G04 #@! TF.FileFunction,Legend,Top*
%FSLAX46Y46*%
G04 Gerber Fmt 4.6, Leading zero omitted, Abs format (unit mm)*
G04 Created by KiCad (PCBNEW 4.0.5-e0-6337~49~ubuntu15.04.1) date Thu Oct 26 21:54:15 2017*
%MOMM*%
%LPD*%
G01*
G04 APERTURE LIST*
%ADD10C,0.100000*%
%ADD11C,0.300000*%
%ADD12C,0.120000*%
%ADD13C,0.150000*%
%ADD14C,0.010000*%
G04 APERTURE END LIST*
D10*
D11*
X147998571Y-62121428D02*
X146498571Y-62121428D01*
X147212857Y-62121428D02*
X147212857Y-61264285D01*
X147998571Y-61264285D02*
X146498571Y-61264285D01*
X147927143Y-59978571D02*
X147998571Y-60121428D01*
X147998571Y-60407142D01*
X147927143Y-60549999D01*
X147784286Y-60621428D01*
X147212857Y-60621428D01*
X147070000Y-60549999D01*
X146998571Y-60407142D01*
X146998571Y-60121428D01*
X147070000Y-59978571D01*
X147212857Y-59907142D01*
X147355714Y-59907142D01*
X147498571Y-60621428D01*
X147998571Y-58621428D02*
X147212857Y-58621428D01*
X147070000Y-58692857D01*
X146998571Y-58835714D01*
X146998571Y-59121428D01*
X147070000Y-59264285D01*
X147927143Y-58621428D02*
X147998571Y-58764285D01*
X147998571Y-59121428D01*
X147927143Y-59264285D01*
X147784286Y-59335714D01*
X147641429Y-59335714D01*
X147498571Y-59264285D01*
X147427143Y-59121428D01*
X147427143Y-58764285D01*
X147355714Y-58621428D01*
X147998571Y-57264285D02*
X146498571Y-57264285D01*
X147927143Y-57264285D02*
X147998571Y-57407142D01*
X147998571Y-57692856D01*
X147927143Y-57835714D01*
X147855714Y-57907142D01*
X147712857Y-57978571D01*
X147284286Y-57978571D01*
X147141429Y-57907142D01*
X147070000Y-57835714D01*
X146998571Y-57692856D01*
X146998571Y-57407142D01*
X147070000Y-57264285D01*
X146998571Y-56549999D02*
X148498571Y-56549999D01*
X147070000Y-56549999D02*
X146998571Y-56407142D01*
X146998571Y-56121428D01*
X147070000Y-55978571D01*
X147141429Y-55907142D01*
X147284286Y-55835713D01*
X147712857Y-55835713D01*
X147855714Y-55907142D01*
X147927143Y-55978571D01*
X147998571Y-56121428D01*
X147998571Y-56407142D01*
X147927143Y-56549999D01*
X147998571Y-55192856D02*
X146498571Y-55192856D01*
X147998571Y-54549999D02*
X147212857Y-54549999D01*
X147070000Y-54621428D01*
X146998571Y-54764285D01*
X146998571Y-54978570D01*
X147070000Y-55121428D01*
X147141429Y-55192856D01*
X147998571Y-53621427D02*
X147927143Y-53764285D01*
X147855714Y-53835713D01*
X147712857Y-53907142D01*
X147284286Y-53907142D01*
X147141429Y-53835713D01*
X147070000Y-53764285D01*
X146998571Y-53621427D01*
X146998571Y-53407142D01*
X147070000Y-53264285D01*
X147141429Y-53192856D01*
X147284286Y-53121427D01*
X147712857Y-53121427D01*
X147855714Y-53192856D01*
X147927143Y-53264285D01*
X147998571Y-53407142D01*
X147998571Y-53621427D01*
X146998571Y-52478570D02*
X147998571Y-52478570D01*
X147141429Y-52478570D02*
X147070000Y-52407142D01*
X146998571Y-52264284D01*
X146998571Y-52049999D01*
X147070000Y-51907142D01*
X147212857Y-51835713D01*
X147998571Y-51835713D01*
X147927143Y-50549999D02*
X147998571Y-50692856D01*
X147998571Y-50978570D01*
X147927143Y-51121427D01*
X147784286Y-51192856D01*
X147212857Y-51192856D01*
X147070000Y-51121427D01*
X146998571Y-50978570D01*
X146998571Y-50692856D01*
X147070000Y-50549999D01*
X147212857Y-50478570D01*
X147355714Y-50478570D01*
X147498571Y-51192856D01*
X147570000Y-48764285D02*
X147570000Y-48049999D01*
X147998571Y-48907142D02*
X146498571Y-48407142D01*
X147998571Y-47907142D01*
X147998571Y-47407142D02*
X146998571Y-47407142D01*
X147141429Y-47407142D02*
X147070000Y-47335714D01*
X146998571Y-47192856D01*
X146998571Y-46978571D01*
X147070000Y-46835714D01*
X147212857Y-46764285D01*
X147998571Y-46764285D01*
X147212857Y-46764285D02*
X147070000Y-46692856D01*
X146998571Y-46549999D01*
X146998571Y-46335714D01*
X147070000Y-46192856D01*
X147212857Y-46121428D01*
X147998571Y-46121428D01*
X146998571Y-45407142D02*
X148498571Y-45407142D01*
X147070000Y-45407142D02*
X146998571Y-45264285D01*
X146998571Y-44978571D01*
X147070000Y-44835714D01*
X147141429Y-44764285D01*
X147284286Y-44692856D01*
X147712857Y-44692856D01*
X147855714Y-44764285D01*
X147927143Y-44835714D01*
X147998571Y-44978571D01*
X147998571Y-45264285D01*
X147927143Y-45407142D01*
X147998571Y-43835713D02*
X147927143Y-43978571D01*
X147784286Y-44049999D01*
X146498571Y-44049999D01*
X147998571Y-43264285D02*
X146998571Y-43264285D01*
X146498571Y-43264285D02*
X146570000Y-43335714D01*
X146641429Y-43264285D01*
X146570000Y-43192857D01*
X146498571Y-43264285D01*
X146641429Y-43264285D01*
X146998571Y-42764285D02*
X146998571Y-42192856D01*
X147998571Y-42549999D02*
X146712857Y-42549999D01*
X146570000Y-42478571D01*
X146498571Y-42335713D01*
X146498571Y-42192856D01*
X147998571Y-41692856D02*
X146998571Y-41692856D01*
X146498571Y-41692856D02*
X146570000Y-41764285D01*
X146641429Y-41692856D01*
X146570000Y-41621428D01*
X146498571Y-41692856D01*
X146641429Y-41692856D01*
X147927143Y-40407142D02*
X147998571Y-40549999D01*
X147998571Y-40835713D01*
X147927143Y-40978570D01*
X147784286Y-41049999D01*
X147212857Y-41049999D01*
X147070000Y-40978570D01*
X146998571Y-40835713D01*
X146998571Y-40549999D01*
X147070000Y-40407142D01*
X147212857Y-40335713D01*
X147355714Y-40335713D01*
X147498571Y-41049999D01*
X147998571Y-39692856D02*
X146998571Y-39692856D01*
X147284286Y-39692856D02*
X147141429Y-39621428D01*
X147070000Y-39549999D01*
X146998571Y-39407142D01*
X146998571Y-39264285D01*
X150515000Y-56328571D02*
X150800714Y-56328571D01*
X150943572Y-56400000D01*
X151086429Y-56542857D01*
X151157857Y-56828571D01*
X151157857Y-57328571D01*
X151086429Y-57614286D01*
X150943572Y-57757143D01*
X150800714Y-57828571D01*
X150515000Y-57828571D01*
X150372143Y-57757143D01*
X150229286Y-57614286D01*
X150157857Y-57328571D01*
X150157857Y-56828571D01*
X150229286Y-56542857D01*
X150372143Y-56400000D01*
X150515000Y-56328571D01*
X152443572Y-56828571D02*
X152443572Y-57828571D01*
X151800715Y-56828571D02*
X151800715Y-57614286D01*
X151872143Y-57757143D01*
X152015001Y-57828571D01*
X152229286Y-57828571D01*
X152372143Y-57757143D01*
X152443572Y-57685714D01*
X152943572Y-56828571D02*
X153515001Y-56828571D01*
X153157858Y-56328571D02*
X153157858Y-57614286D01*
X153229286Y-57757143D01*
X153372144Y-57828571D01*
X153515001Y-57828571D01*
X125039286Y-73068571D02*
X124539286Y-72354286D01*
X124182143Y-73068571D02*
X124182143Y-71568571D01*
X124753571Y-71568571D01*
X124896429Y-71640000D01*
X124967857Y-71711429D01*
X125039286Y-71854286D01*
X125039286Y-72068571D01*
X124967857Y-72211429D01*
X124896429Y-72282857D01*
X124753571Y-72354286D01*
X124182143Y-72354286D01*
X126825000Y-73068571D02*
X126825000Y-71568571D01*
X127539286Y-72068571D02*
X127539286Y-73068571D01*
X127539286Y-72211429D02*
X127610714Y-72140000D01*
X127753572Y-72068571D01*
X127967857Y-72068571D01*
X128110714Y-72140000D01*
X128182143Y-72282857D01*
X128182143Y-73068571D01*
X124896429Y-29888571D02*
X124182143Y-29888571D01*
X124182143Y-28388571D01*
X126539286Y-29888571D02*
X126539286Y-28388571D01*
X127253572Y-28888571D02*
X127253572Y-29888571D01*
X127253572Y-29031429D02*
X127325000Y-28960000D01*
X127467858Y-28888571D01*
X127682143Y-28888571D01*
X127825000Y-28960000D01*
X127896429Y-29102857D01*
X127896429Y-29888571D01*
X60408572Y-59797143D02*
X60480001Y-59725714D01*
X60622858Y-59654286D01*
X60908572Y-59797143D01*
X61051429Y-59725714D01*
X61122858Y-59654286D01*
X62480001Y-60368571D02*
X61622858Y-60368571D01*
X62051430Y-60368571D02*
X62051430Y-58868571D01*
X61908573Y-59082857D01*
X61765715Y-59225714D01*
X61622858Y-59297143D01*
X63051429Y-59011429D02*
X63122858Y-58940000D01*
X63265715Y-58868571D01*
X63622858Y-58868571D01*
X63765715Y-58940000D01*
X63837144Y-59011429D01*
X63908572Y-59154286D01*
X63908572Y-59297143D01*
X63837144Y-59511429D01*
X62980001Y-60368571D01*
X63908572Y-60368571D01*
X59765715Y-42017143D02*
X59837144Y-41945714D01*
X59980001Y-41874286D01*
X60265715Y-42017143D01*
X60408572Y-41945714D01*
X60480001Y-41874286D01*
X61837144Y-42588571D02*
X60980001Y-42588571D01*
X61408573Y-42588571D02*
X61408573Y-41088571D01*
X61265716Y-41302857D01*
X61122858Y-41445714D01*
X60980001Y-41517143D01*
X62408572Y-41231429D02*
X62480001Y-41160000D01*
X62622858Y-41088571D01*
X62980001Y-41088571D01*
X63122858Y-41160000D01*
X63194287Y-41231429D01*
X63265715Y-41374286D01*
X63265715Y-41517143D01*
X63194287Y-41731429D01*
X62337144Y-42588571D01*
X63265715Y-42588571D01*
X63694286Y-41088571D02*
X64194286Y-42588571D01*
X64694286Y-41088571D01*
D12*
X153095000Y-46930000D02*
X150435000Y-46930000D01*
X153095000Y-52070000D02*
X153095000Y-46930000D01*
X150435000Y-52070000D02*
X150435000Y-46930000D01*
X153095000Y-52070000D02*
X150435000Y-52070000D01*
X153095000Y-53340000D02*
X153095000Y-54670000D01*
X153095000Y-54670000D02*
X151765000Y-54670000D01*
X125460000Y-64385000D02*
X123460000Y-64385000D01*
X123460000Y-66425000D02*
X125460000Y-66425000D01*
X113090000Y-61960000D02*
G75*
G02X113090000Y-59960000I0J1000000D01*
G01*
X113090000Y-59960000D02*
X113090000Y-58310000D01*
X113090000Y-58310000D02*
X102810000Y-58310000D01*
X102810000Y-58310000D02*
X102810000Y-63610000D01*
X102810000Y-63610000D02*
X113090000Y-63610000D01*
X113090000Y-63610000D02*
X113090000Y-61960000D01*
X113150000Y-55820000D02*
X102750000Y-55820000D01*
X102750000Y-55820000D02*
X102750000Y-66100000D01*
X102750000Y-66100000D02*
X113150000Y-66100000D01*
X113150000Y-66100000D02*
X113150000Y-55820000D01*
D13*
X104505000Y-28820000D02*
X102505000Y-28820000D01*
X102505000Y-30870000D02*
X104505000Y-30870000D01*
X116087000Y-64270000D02*
X116087000Y-62270000D01*
X114037000Y-62270000D02*
X114037000Y-64270000D01*
X104100000Y-52823000D02*
X102100000Y-52823000D01*
X102100000Y-54873000D02*
X104100000Y-54873000D01*
X82649451Y-65987033D02*
X66649451Y-65987033D01*
X82646451Y-66127033D02*
X66652451Y-66127033D01*
X82641451Y-66267033D02*
X66657451Y-66267033D01*
X82634451Y-66407033D02*
X66664451Y-66407033D01*
X82624451Y-66547033D02*
X66674451Y-66547033D01*
X82611451Y-66687033D02*
X66687451Y-66687033D01*
X82597451Y-66827033D02*
X66701451Y-66827033D01*
X82579451Y-66967033D02*
X66719451Y-66967033D01*
X82559451Y-67107033D02*
X66739451Y-67107033D01*
X82537451Y-67247033D02*
X66761451Y-67247033D01*
X82512451Y-67387033D02*
X66786451Y-67387033D01*
X82484451Y-67527033D02*
X66814451Y-67527033D01*
X82454451Y-67667033D02*
X66844451Y-67667033D01*
X82421451Y-67807033D02*
X66877451Y-67807033D01*
X82386451Y-67947033D02*
X66912451Y-67947033D01*
X82348451Y-68087033D02*
X66950451Y-68087033D01*
X82307451Y-68227033D02*
X66991451Y-68227033D01*
X82263451Y-68367033D02*
X67035451Y-68367033D01*
X82216451Y-68507033D02*
X67082451Y-68507033D01*
X82167451Y-68647033D02*
X67131451Y-68647033D01*
X82115451Y-68787033D02*
X75133451Y-68787033D01*
X74165451Y-68787033D02*
X67183451Y-68787033D01*
X82059451Y-68927033D02*
X75327451Y-68927033D01*
X73971451Y-68927033D02*
X67239451Y-68927033D01*
X82001451Y-69067033D02*
X75453451Y-69067033D01*
X73845451Y-69067033D02*
X67297451Y-69067033D01*
X81939451Y-69207033D02*
X75539451Y-69207033D01*
X73759451Y-69207033D02*
X67359451Y-69207033D01*
X81874451Y-69347033D02*
X75598451Y-69347033D01*
X73700451Y-69347033D02*
X67424451Y-69347033D01*
X81806451Y-69487033D02*
X75634451Y-69487033D01*
X73664451Y-69487033D02*
X67492451Y-69487033D01*
X81734451Y-69627033D02*
X75648451Y-69627033D01*
X73650451Y-69627033D02*
X67564451Y-69627033D01*
X81659451Y-69767033D02*
X75643451Y-69767033D01*
X73655451Y-69767033D02*
X67639451Y-69767033D01*
X81580451Y-69907033D02*
X75619451Y-69907033D01*
X73679451Y-69907033D02*
X67718451Y-69907033D01*
X81497451Y-70047033D02*
X75572451Y-70047033D01*
X73726451Y-70047033D02*
X67801451Y-70047033D01*
X81411451Y-70187033D02*
X75500451Y-70187033D01*
X73798451Y-70187033D02*
X67887451Y-70187033D01*
X81320451Y-70327033D02*
X75396451Y-70327033D01*
X73902451Y-70327033D02*
X67978451Y-70327033D01*
X81226451Y-70467033D02*
X75242451Y-70467033D01*
X74056451Y-70467033D02*
X68072451Y-70467033D01*
X81126451Y-70607033D02*
X74976451Y-70607033D01*
X74322451Y-70607033D02*
X68172451Y-70607033D01*
X81023451Y-70747033D02*
X68275451Y-70747033D01*
X80914451Y-70887033D02*
X68384451Y-70887033D01*
X80800451Y-71027033D02*
X68498451Y-71027033D01*
X80681451Y-71167033D02*
X68617451Y-71167033D01*
X80556451Y-71307033D02*
X68742451Y-71307033D01*
X80425451Y-71447033D02*
X68873451Y-71447033D01*
X80288451Y-71587033D02*
X69010451Y-71587033D01*
X80143451Y-71727033D02*
X69155451Y-71727033D01*
X79991451Y-71867033D02*
X69307451Y-71867033D01*
X79831451Y-72007033D02*
X69467451Y-72007033D01*
X79661451Y-72147033D02*
X69637451Y-72147033D01*
X79482451Y-72287033D02*
X69816451Y-72287033D01*
X79292451Y-72427033D02*
X70006451Y-72427033D01*
X79089451Y-72567033D02*
X70209451Y-72567033D01*
X78871451Y-72707033D02*
X70427451Y-72707033D01*
X78637451Y-72847033D02*
X70661451Y-72847033D01*
X78383451Y-72987033D02*
X70915451Y-72987033D01*
X78105451Y-73127033D02*
X71193451Y-73127033D01*
X77796451Y-73267033D02*
X71502451Y-73267033D01*
X77446451Y-73407033D02*
X71852451Y-73407033D01*
X77038451Y-73547033D02*
X72260451Y-73547033D01*
X76533451Y-73687033D02*
X72765451Y-73687033D01*
X75812451Y-73827033D02*
X73486451Y-73827033D01*
X75649451Y-69662033D02*
G75*
G03X75649451Y-69662033I-1000000J0D01*
G01*
X82686951Y-65912033D02*
G75*
G03X82686951Y-65912033I-8037500J0D01*
G01*
X99794451Y-35507033D02*
X83794451Y-35507033D01*
X99791451Y-35647033D02*
X83797451Y-35647033D01*
X99786451Y-35787033D02*
X83802451Y-35787033D01*
X99779451Y-35927033D02*
X83809451Y-35927033D01*
X99769451Y-36067033D02*
X83819451Y-36067033D01*
X99756451Y-36207033D02*
X83832451Y-36207033D01*
X99742451Y-36347033D02*
X83846451Y-36347033D01*
X99724451Y-36487033D02*
X83864451Y-36487033D01*
X99704451Y-36627033D02*
X83884451Y-36627033D01*
X99682451Y-36767033D02*
X83906451Y-36767033D01*
X99657451Y-36907033D02*
X83931451Y-36907033D01*
X99629451Y-37047033D02*
X83959451Y-37047033D01*
X99599451Y-37187033D02*
X83989451Y-37187033D01*
X99566451Y-37327033D02*
X84022451Y-37327033D01*
X99531451Y-37467033D02*
X84057451Y-37467033D01*
X99493451Y-37607033D02*
X84095451Y-37607033D01*
X99452451Y-37747033D02*
X84136451Y-37747033D01*
X99408451Y-37887033D02*
X84180451Y-37887033D01*
X99361451Y-38027033D02*
X84227451Y-38027033D01*
X99312451Y-38167033D02*
X84276451Y-38167033D01*
X99260451Y-38307033D02*
X92278451Y-38307033D01*
X91310451Y-38307033D02*
X84328451Y-38307033D01*
X99204451Y-38447033D02*
X92472451Y-38447033D01*
X91116451Y-38447033D02*
X84384451Y-38447033D01*
X99146451Y-38587033D02*
X92598451Y-38587033D01*
X90990451Y-38587033D02*
X84442451Y-38587033D01*
X99084451Y-38727033D02*
X92684451Y-38727033D01*
X90904451Y-38727033D02*
X84504451Y-38727033D01*
X99019451Y-38867033D02*
X92743451Y-38867033D01*
X90845451Y-38867033D02*
X84569451Y-38867033D01*
X98951451Y-39007033D02*
X92779451Y-39007033D01*
X90809451Y-39007033D02*
X84637451Y-39007033D01*
X98879451Y-39147033D02*
X92793451Y-39147033D01*
X90795451Y-39147033D02*
X84709451Y-39147033D01*
X98804451Y-39287033D02*
X92788451Y-39287033D01*
X90800451Y-39287033D02*
X84784451Y-39287033D01*
X98725451Y-39427033D02*
X92764451Y-39427033D01*
X90824451Y-39427033D02*
X84863451Y-39427033D01*
X98642451Y-39567033D02*
X92717451Y-39567033D01*
X90871451Y-39567033D02*
X84946451Y-39567033D01*
X98556451Y-39707033D02*
X92645451Y-39707033D01*
X90943451Y-39707033D02*
X85032451Y-39707033D01*
X98465451Y-39847033D02*
X92541451Y-39847033D01*
X91047451Y-39847033D02*
X85123451Y-39847033D01*
X98371451Y-39987033D02*
X92387451Y-39987033D01*
X91201451Y-39987033D02*
X85217451Y-39987033D01*
X98271451Y-40127033D02*
X92121451Y-40127033D01*
X91467451Y-40127033D02*
X85317451Y-40127033D01*
X98168451Y-40267033D02*
X85420451Y-40267033D01*
X98059451Y-40407033D02*
X85529451Y-40407033D01*
X97945451Y-40547033D02*
X85643451Y-40547033D01*
X97826451Y-40687033D02*
X85762451Y-40687033D01*
X97701451Y-40827033D02*
X85887451Y-40827033D01*
X97570451Y-40967033D02*
X86018451Y-40967033D01*
X97433451Y-41107033D02*
X86155451Y-41107033D01*
X97288451Y-41247033D02*
X86300451Y-41247033D01*
X97136451Y-41387033D02*
X86452451Y-41387033D01*
X96976451Y-41527033D02*
X86612451Y-41527033D01*
X96806451Y-41667033D02*
X86782451Y-41667033D01*
X96627451Y-41807033D02*
X86961451Y-41807033D01*
X96437451Y-41947033D02*
X87151451Y-41947033D01*
X96234451Y-42087033D02*
X87354451Y-42087033D01*
X96016451Y-42227033D02*
X87572451Y-42227033D01*
X95782451Y-42367033D02*
X87806451Y-42367033D01*
X95528451Y-42507033D02*
X88060451Y-42507033D01*
X95250451Y-42647033D02*
X88338451Y-42647033D01*
X94941451Y-42787033D02*
X88647451Y-42787033D01*
X94591451Y-42927033D02*
X88997451Y-42927033D01*
X94183451Y-43067033D02*
X89405451Y-43067033D01*
X93678451Y-43207033D02*
X89910451Y-43207033D01*
X92957451Y-43347033D02*
X90631451Y-43347033D01*
X92794451Y-39182033D02*
G75*
G03X92794451Y-39182033I-1000000J0D01*
G01*
X99831951Y-35432033D02*
G75*
G03X99831951Y-35432033I-8037500J0D01*
G01*
X99794451Y-65987033D02*
X83794451Y-65987033D01*
X99791451Y-66127033D02*
X83797451Y-66127033D01*
X99786451Y-66267033D02*
X83802451Y-66267033D01*
X99779451Y-66407033D02*
X83809451Y-66407033D01*
X99769451Y-66547033D02*
X83819451Y-66547033D01*
X99756451Y-66687033D02*
X83832451Y-66687033D01*
X99742451Y-66827033D02*
X83846451Y-66827033D01*
X99724451Y-66967033D02*
X83864451Y-66967033D01*
X99704451Y-67107033D02*
X83884451Y-67107033D01*
X99682451Y-67247033D02*
X83906451Y-67247033D01*
X99657451Y-67387033D02*
X83931451Y-67387033D01*
X99629451Y-67527033D02*
X83959451Y-67527033D01*
X99599451Y-67667033D02*
X83989451Y-67667033D01*
X99566451Y-67807033D02*
X84022451Y-67807033D01*
X99531451Y-67947033D02*
X84057451Y-67947033D01*
X99493451Y-68087033D02*
X84095451Y-68087033D01*
X99452451Y-68227033D02*
X84136451Y-68227033D01*
X99408451Y-68367033D02*
X84180451Y-68367033D01*
X99361451Y-68507033D02*
X84227451Y-68507033D01*
X99312451Y-68647033D02*
X84276451Y-68647033D01*
X99260451Y-68787033D02*
X92278451Y-68787033D01*
X91310451Y-68787033D02*
X84328451Y-68787033D01*
X99204451Y-68927033D02*
X92472451Y-68927033D01*
X91116451Y-68927033D02*
X84384451Y-68927033D01*
X99146451Y-69067033D02*
X92598451Y-69067033D01*
X90990451Y-69067033D02*
X84442451Y-69067033D01*
X99084451Y-69207033D02*
X92684451Y-69207033D01*
X90904451Y-69207033D02*
X84504451Y-69207033D01*
X99019451Y-69347033D02*
X92743451Y-69347033D01*
X90845451Y-69347033D02*
X84569451Y-69347033D01*
X98951451Y-69487033D02*
X92779451Y-69487033D01*
X90809451Y-69487033D02*
X84637451Y-69487033D01*
X98879451Y-69627033D02*
X92793451Y-69627033D01*
X90795451Y-69627033D02*
X84709451Y-69627033D01*
X98804451Y-69767033D02*
X92788451Y-69767033D01*
X90800451Y-69767033D02*
X84784451Y-69767033D01*
X98725451Y-69907033D02*
X92764451Y-69907033D01*
X90824451Y-69907033D02*
X84863451Y-69907033D01*
X98642451Y-70047033D02*
X92717451Y-70047033D01*
X90871451Y-70047033D02*
X84946451Y-70047033D01*
X98556451Y-70187033D02*
X92645451Y-70187033D01*
X90943451Y-70187033D02*
X85032451Y-70187033D01*
X98465451Y-70327033D02*
X92541451Y-70327033D01*
X91047451Y-70327033D02*
X85123451Y-70327033D01*
X98371451Y-70467033D02*
X92387451Y-70467033D01*
X91201451Y-70467033D02*
X85217451Y-70467033D01*
X98271451Y-70607033D02*
X92121451Y-70607033D01*
X91467451Y-70607033D02*
X85317451Y-70607033D01*
X98168451Y-70747033D02*
X85420451Y-70747033D01*
X98059451Y-70887033D02*
X85529451Y-70887033D01*
X97945451Y-71027033D02*
X85643451Y-71027033D01*
X97826451Y-71167033D02*
X85762451Y-71167033D01*
X97701451Y-71307033D02*
X85887451Y-71307033D01*
X97570451Y-71447033D02*
X86018451Y-71447033D01*
X97433451Y-71587033D02*
X86155451Y-71587033D01*
X97288451Y-71727033D02*
X86300451Y-71727033D01*
X97136451Y-71867033D02*
X86452451Y-71867033D01*
X96976451Y-72007033D02*
X86612451Y-72007033D01*
X96806451Y-72147033D02*
X86782451Y-72147033D01*
X96627451Y-72287033D02*
X86961451Y-72287033D01*
X96437451Y-72427033D02*
X87151451Y-72427033D01*
X96234451Y-72567033D02*
X87354451Y-72567033D01*
X96016451Y-72707033D02*
X87572451Y-72707033D01*
X95782451Y-72847033D02*
X87806451Y-72847033D01*
X95528451Y-72987033D02*
X88060451Y-72987033D01*
X95250451Y-73127033D02*
X88338451Y-73127033D01*
X94941451Y-73267033D02*
X88647451Y-73267033D01*
X94591451Y-73407033D02*
X88997451Y-73407033D01*
X94183451Y-73547033D02*
X89405451Y-73547033D01*
X93678451Y-73687033D02*
X89910451Y-73687033D01*
X92957451Y-73827033D02*
X90631451Y-73827033D01*
X92794451Y-69662033D02*
G75*
G03X92794451Y-69662033I-1000000J0D01*
G01*
X99831951Y-65912033D02*
G75*
G03X99831951Y-65912033I-8037500J0D01*
G01*
X82649451Y-35507033D02*
X66649451Y-35507033D01*
X82646451Y-35647033D02*
X66652451Y-35647033D01*
X82641451Y-35787033D02*
X66657451Y-35787033D01*
X82634451Y-35927033D02*
X66664451Y-35927033D01*
X82624451Y-36067033D02*
X66674451Y-36067033D01*
X82611451Y-36207033D02*
X66687451Y-36207033D01*
X82597451Y-36347033D02*
X66701451Y-36347033D01*
X82579451Y-36487033D02*
X66719451Y-36487033D01*
X82559451Y-36627033D02*
X66739451Y-36627033D01*
X82537451Y-36767033D02*
X66761451Y-36767033D01*
X82512451Y-36907033D02*
X66786451Y-36907033D01*
X82484451Y-37047033D02*
X66814451Y-37047033D01*
X82454451Y-37187033D02*
X66844451Y-37187033D01*
X82421451Y-37327033D02*
X66877451Y-37327033D01*
X82386451Y-37467033D02*
X66912451Y-37467033D01*
X82348451Y-37607033D02*
X66950451Y-37607033D01*
X82307451Y-37747033D02*
X66991451Y-37747033D01*
X82263451Y-37887033D02*
X67035451Y-37887033D01*
X82216451Y-38027033D02*
X67082451Y-38027033D01*
X82167451Y-38167033D02*
X67131451Y-38167033D01*
X82115451Y-38307033D02*
X75133451Y-38307033D01*
X74165451Y-38307033D02*
X67183451Y-38307033D01*
X82059451Y-38447033D02*
X75327451Y-38447033D01*
X73971451Y-38447033D02*
X67239451Y-38447033D01*
X82001451Y-38587033D02*
X75453451Y-38587033D01*
X73845451Y-38587033D02*
X67297451Y-38587033D01*
X81939451Y-38727033D02*
X75539451Y-38727033D01*
X73759451Y-38727033D02*
X67359451Y-38727033D01*
X81874451Y-38867033D02*
X75598451Y-38867033D01*
X73700451Y-38867033D02*
X67424451Y-38867033D01*
X81806451Y-39007033D02*
X75634451Y-39007033D01*
X73664451Y-39007033D02*
X67492451Y-39007033D01*
X81734451Y-39147033D02*
X75648451Y-39147033D01*
X73650451Y-39147033D02*
X67564451Y-39147033D01*
X81659451Y-39287033D02*
X75643451Y-39287033D01*
X73655451Y-39287033D02*
X67639451Y-39287033D01*
X81580451Y-39427033D02*
X75619451Y-39427033D01*
X73679451Y-39427033D02*
X67718451Y-39427033D01*
X81497451Y-39567033D02*
X75572451Y-39567033D01*
X73726451Y-39567033D02*
X67801451Y-39567033D01*
X81411451Y-39707033D02*
X75500451Y-39707033D01*
X73798451Y-39707033D02*
X67887451Y-39707033D01*
X81320451Y-39847033D02*
X75396451Y-39847033D01*
X73902451Y-39847033D02*
X67978451Y-39847033D01*
X81226451Y-39987033D02*
X75242451Y-39987033D01*
X74056451Y-39987033D02*
X68072451Y-39987033D01*
X81126451Y-40127033D02*
X74976451Y-40127033D01*
X74322451Y-40127033D02*
X68172451Y-40127033D01*
X81023451Y-40267033D02*
X68275451Y-40267033D01*
X80914451Y-40407033D02*
X68384451Y-40407033D01*
X80800451Y-40547033D02*
X68498451Y-40547033D01*
X80681451Y-40687033D02*
X68617451Y-40687033D01*
X80556451Y-40827033D02*
X68742451Y-40827033D01*
X80425451Y-40967033D02*
X68873451Y-40967033D01*
X80288451Y-41107033D02*
X69010451Y-41107033D01*
X80143451Y-41247033D02*
X69155451Y-41247033D01*
X79991451Y-41387033D02*
X69307451Y-41387033D01*
X79831451Y-41527033D02*
X69467451Y-41527033D01*
X79661451Y-41667033D02*
X69637451Y-41667033D01*
X79482451Y-41807033D02*
X69816451Y-41807033D01*
X79292451Y-41947033D02*
X70006451Y-41947033D01*
X79089451Y-42087033D02*
X70209451Y-42087033D01*
X78871451Y-42227033D02*
X70427451Y-42227033D01*
X78637451Y-42367033D02*
X70661451Y-42367033D01*
X78383451Y-42507033D02*
X70915451Y-42507033D01*
X78105451Y-42647033D02*
X71193451Y-42647033D01*
X77796451Y-42787033D02*
X71502451Y-42787033D01*
X77446451Y-42927033D02*
X71852451Y-42927033D01*
X77038451Y-43067033D02*
X72260451Y-43067033D01*
X76533451Y-43207033D02*
X72765451Y-43207033D01*
X75812451Y-43347033D02*
X73486451Y-43347033D01*
X75649451Y-39182033D02*
G75*
G03X75649451Y-39182033I-1000000J0D01*
G01*
X82686951Y-35432033D02*
G75*
G03X82686951Y-35432033I-8037500J0D01*
G01*
X95756456Y-54514640D02*
X95756456Y-53514640D01*
X94056456Y-53514640D02*
X94056456Y-54514640D01*
X95756456Y-47910640D02*
X95756456Y-46910640D01*
X94056456Y-46910640D02*
X94056456Y-47910640D01*
X110836000Y-30720000D02*
X109636000Y-30720000D01*
X109636000Y-28970000D02*
X110836000Y-28970000D01*
X105064000Y-46369000D02*
X106264000Y-46369000D01*
X106264000Y-48119000D02*
X105064000Y-48119000D01*
X110836000Y-54723000D02*
X109636000Y-54723000D01*
X109636000Y-52973000D02*
X110836000Y-52973000D01*
X104810000Y-70880000D02*
X106010000Y-70880000D01*
X106010000Y-72630000D02*
X104810000Y-72630000D01*
X109636000Y-46369000D02*
X110836000Y-46369000D01*
X110836000Y-48119000D02*
X109636000Y-48119000D01*
X109636000Y-70880000D02*
X110836000Y-70880000D01*
X110836000Y-72630000D02*
X109636000Y-72630000D01*
X109636000Y-42813000D02*
X110836000Y-42813000D01*
X110836000Y-44563000D02*
X109636000Y-44563000D01*
X109636000Y-67070000D02*
X110836000Y-67070000D01*
X110836000Y-68820000D02*
X109636000Y-68820000D01*
X113192000Y-42813000D02*
X114392000Y-42813000D01*
X114392000Y-44563000D02*
X113192000Y-44563000D01*
X113192000Y-67070000D02*
X114392000Y-67070000D01*
X114392000Y-68820000D02*
X113192000Y-68820000D01*
D10*
X121805000Y-47045000D02*
X127805000Y-47045000D01*
X121805000Y-38045000D02*
X127805000Y-38045000D01*
X127805000Y-36795000D02*
X127805000Y-48295000D01*
X137805000Y-36795000D02*
X137805000Y-48295000D01*
X127805000Y-36795000D02*
X137805000Y-36795000D01*
X121805000Y-47045000D02*
X121805000Y-38045000D01*
X137805000Y-48295000D02*
X127805000Y-48295000D01*
X121805000Y-63555000D02*
X127805000Y-63555000D01*
X121805000Y-54555000D02*
X127805000Y-54555000D01*
X127805000Y-53305000D02*
X127805000Y-64805000D01*
X137805000Y-53305000D02*
X137805000Y-64805000D01*
X127805000Y-53305000D02*
X137805000Y-53305000D01*
X121805000Y-63555000D02*
X121805000Y-54555000D01*
X137805000Y-64805000D02*
X127805000Y-64805000D01*
D13*
X92710000Y-53213000D02*
X92710000Y-56642000D01*
X83058000Y-53213000D02*
X83058000Y-56642000D01*
X93218000Y-52070000D02*
X82550000Y-52070000D01*
X89662000Y-53086000D02*
X89662000Y-51816000D01*
X86106000Y-53086000D02*
X86106000Y-51816000D01*
X82550000Y-53213000D02*
X93218000Y-53213000D01*
X93218000Y-56642000D02*
X82550000Y-56642000D01*
X82550000Y-51816000D02*
X82550000Y-56642000D01*
X93218000Y-51816000D02*
X93218000Y-56642000D01*
X93218000Y-51816000D02*
X82550000Y-51816000D01*
X83058000Y-48387000D02*
X83058000Y-44958000D01*
X92710000Y-48387000D02*
X92710000Y-44958000D01*
X82550000Y-49530000D02*
X93218000Y-49530000D01*
X86106000Y-48514000D02*
X86106000Y-49784000D01*
X89662000Y-48514000D02*
X89662000Y-49784000D01*
X93218000Y-48387000D02*
X82550000Y-48387000D01*
X82550000Y-44958000D02*
X93218000Y-44958000D01*
X93218000Y-49784000D02*
X93218000Y-44958000D01*
X82550000Y-49784000D02*
X82550000Y-44958000D01*
X82550000Y-49784000D02*
X93218000Y-49784000D01*
X64584000Y-45800000D02*
G75*
G03X64584000Y-45800000I-2000000J0D01*
G01*
X66584000Y-48300000D02*
X67084000Y-48300000D01*
X66584000Y-53300000D02*
X67084000Y-53300000D01*
X64584000Y-50800000D02*
G75*
G03X64584000Y-50800000I-2000000J0D01*
G01*
X64584000Y-55800000D02*
G75*
G03X64584000Y-55800000I-2000000J0D01*
G01*
X65084000Y-58300000D02*
X65084000Y-43300000D01*
X60184000Y-58300000D02*
X60184000Y-43300000D01*
X66584000Y-58300000D02*
X66584000Y-43300000D01*
X67084000Y-58300000D02*
X67084000Y-43300000D01*
X67084000Y-43300000D02*
X57284000Y-43300000D01*
X57284000Y-43300000D02*
X57284000Y-58300000D01*
X57284000Y-58300000D02*
X67084000Y-58300000D01*
D12*
X113090000Y-37830000D02*
G75*
G02X113090000Y-35830000I0J1000000D01*
G01*
X113090000Y-35830000D02*
X113090000Y-34180000D01*
X113090000Y-34180000D02*
X102810000Y-34180000D01*
X102810000Y-34180000D02*
X102810000Y-39480000D01*
X102810000Y-39480000D02*
X113090000Y-39480000D01*
X113090000Y-39480000D02*
X113090000Y-37830000D01*
X113150000Y-31690000D02*
X102750000Y-31690000D01*
X102750000Y-31690000D02*
X102750000Y-41970000D01*
X102750000Y-41970000D02*
X113150000Y-41970000D01*
X113150000Y-41970000D02*
X113150000Y-31690000D01*
X69438185Y-50390000D02*
X72738185Y-50390000D01*
X72738185Y-50390000D02*
X72738185Y-44990000D01*
X69438185Y-50390000D02*
X69438185Y-44990000D01*
X69438185Y-58133565D02*
X72738185Y-58133565D01*
X72738185Y-58133565D02*
X72738185Y-52733565D01*
X69438185Y-58133565D02*
X69438185Y-52733565D01*
X74070000Y-46610000D02*
X74070000Y-49910000D01*
X74070000Y-49910000D02*
X79470000Y-49910000D01*
X74070000Y-46610000D02*
X79470000Y-46610000D01*
X80870000Y-54990000D02*
X80870000Y-51690000D01*
X80870000Y-51690000D02*
X75470000Y-51690000D01*
X80870000Y-54990000D02*
X75470000Y-54990000D01*
X116066890Y-40116000D02*
X116066890Y-38116000D01*
X114026890Y-38116000D02*
X114026890Y-40116000D01*
X125460000Y-47748000D02*
X123460000Y-47748000D01*
X123460000Y-49788000D02*
X125460000Y-49788000D01*
X125460000Y-35175000D02*
X123460000Y-35175000D01*
X123460000Y-37215000D02*
X125460000Y-37215000D01*
X125460000Y-51812000D02*
X123460000Y-51812000D01*
X123460000Y-53852000D02*
X125460000Y-53852000D01*
X103290000Y-43696000D02*
X103290000Y-44696000D01*
X104990000Y-44696000D02*
X104990000Y-43696000D01*
X103290000Y-68080000D02*
X103290000Y-69080000D01*
X104990000Y-69080000D02*
X104990000Y-68080000D01*
X105830000Y-68080000D02*
X105830000Y-69080000D01*
X107530000Y-69080000D02*
X107530000Y-68080000D01*
X105830000Y-43696000D02*
X105830000Y-44696000D01*
X107530000Y-44696000D02*
X107530000Y-43696000D01*
X118050000Y-33080000D02*
X120710000Y-33080000D01*
X118050000Y-30480000D02*
X118050000Y-33080000D01*
X120710000Y-30480000D02*
X120710000Y-33080000D01*
X118050000Y-30480000D02*
X120710000Y-30480000D01*
X118050000Y-29210000D02*
X118050000Y-27880000D01*
X118050000Y-27880000D02*
X119380000Y-27880000D01*
X120710000Y-68520000D02*
X118050000Y-68520000D01*
X120710000Y-71120000D02*
X120710000Y-68520000D01*
X118050000Y-71120000D02*
X118050000Y-68520000D01*
X120710000Y-71120000D02*
X118050000Y-71120000D01*
X120710000Y-72390000D02*
X120710000Y-73720000D01*
X120710000Y-73720000D02*
X119380000Y-73720000D01*
D14*
G36*
X113804744Y-52719918D02*
X113860201Y-52747568D01*
X113909148Y-52798480D01*
X113922629Y-52817338D01*
X113937314Y-52842015D01*
X113946842Y-52868816D01*
X113952293Y-52904587D01*
X113954747Y-52956169D01*
X113955286Y-53024267D01*
X113952852Y-53117588D01*
X113944394Y-53187657D01*
X113928174Y-53239931D01*
X113902454Y-53279869D01*
X113865497Y-53312929D01*
X113862782Y-53314886D01*
X113826360Y-53334908D01*
X113782502Y-53344815D01*
X113726724Y-53347257D01*
X113636048Y-53347257D01*
X113636010Y-53435283D01*
X113635166Y-53484308D01*
X113630024Y-53513065D01*
X113616587Y-53530311D01*
X113590858Y-53544808D01*
X113584679Y-53547769D01*
X113555764Y-53561648D01*
X113533376Y-53570414D01*
X113516729Y-53571171D01*
X113505036Y-53561023D01*
X113497510Y-53537073D01*
X113493366Y-53496426D01*
X113491815Y-53436186D01*
X113492071Y-53353455D01*
X113493349Y-53245339D01*
X113493748Y-53213000D01*
X113495185Y-53101524D01*
X113496472Y-53028603D01*
X113635971Y-53028603D01*
X113636755Y-53090499D01*
X113640240Y-53130997D01*
X113648124Y-53157708D01*
X113662105Y-53178244D01*
X113671597Y-53188260D01*
X113710404Y-53217567D01*
X113744763Y-53219952D01*
X113780216Y-53195750D01*
X113781114Y-53194857D01*
X113795539Y-53176153D01*
X113804313Y-53150732D01*
X113808739Y-53111584D01*
X113810118Y-53051697D01*
X113810143Y-53038430D01*
X113806812Y-52955901D01*
X113795969Y-52898691D01*
X113776340Y-52863766D01*
X113746650Y-52848094D01*
X113729491Y-52846514D01*
X113688766Y-52853926D01*
X113660832Y-52878330D01*
X113644017Y-52922980D01*
X113636650Y-52991130D01*
X113635971Y-53028603D01*
X113496472Y-53028603D01*
X113496708Y-53015245D01*
X113498677Y-52950333D01*
X113501450Y-52902958D01*
X113505388Y-52869290D01*
X113510849Y-52845498D01*
X113518192Y-52827753D01*
X113527777Y-52812224D01*
X113531887Y-52806381D01*
X113586405Y-52751185D01*
X113655336Y-52719890D01*
X113735072Y-52711165D01*
X113804744Y-52719918D01*
X113804744Y-52719918D01*
G37*
X113804744Y-52719918D02*
X113860201Y-52747568D01*
X113909148Y-52798480D01*
X113922629Y-52817338D01*
X113937314Y-52842015D01*
X113946842Y-52868816D01*
X113952293Y-52904587D01*
X113954747Y-52956169D01*
X113955286Y-53024267D01*
X113952852Y-53117588D01*
X113944394Y-53187657D01*
X113928174Y-53239931D01*
X113902454Y-53279869D01*
X113865497Y-53312929D01*
X113862782Y-53314886D01*
X113826360Y-53334908D01*
X113782502Y-53344815D01*
X113726724Y-53347257D01*
X113636048Y-53347257D01*
X113636010Y-53435283D01*
X113635166Y-53484308D01*
X113630024Y-53513065D01*
X113616587Y-53530311D01*
X113590858Y-53544808D01*
X113584679Y-53547769D01*
X113555764Y-53561648D01*
X113533376Y-53570414D01*
X113516729Y-53571171D01*
X113505036Y-53561023D01*
X113497510Y-53537073D01*
X113493366Y-53496426D01*
X113491815Y-53436186D01*
X113492071Y-53353455D01*
X113493349Y-53245339D01*
X113493748Y-53213000D01*
X113495185Y-53101524D01*
X113496472Y-53028603D01*
X113635971Y-53028603D01*
X113636755Y-53090499D01*
X113640240Y-53130997D01*
X113648124Y-53157708D01*
X113662105Y-53178244D01*
X113671597Y-53188260D01*
X113710404Y-53217567D01*
X113744763Y-53219952D01*
X113780216Y-53195750D01*
X113781114Y-53194857D01*
X113795539Y-53176153D01*
X113804313Y-53150732D01*
X113808739Y-53111584D01*
X113810118Y-53051697D01*
X113810143Y-53038430D01*
X113806812Y-52955901D01*
X113795969Y-52898691D01*
X113776340Y-52863766D01*
X113746650Y-52848094D01*
X113729491Y-52846514D01*
X113688766Y-52853926D01*
X113660832Y-52878330D01*
X113644017Y-52922980D01*
X113636650Y-52991130D01*
X113635971Y-53028603D01*
X113496472Y-53028603D01*
X113496708Y-53015245D01*
X113498677Y-52950333D01*
X113501450Y-52902958D01*
X113505388Y-52869290D01*
X113510849Y-52845498D01*
X113518192Y-52827753D01*
X113527777Y-52812224D01*
X113531887Y-52806381D01*
X113586405Y-52751185D01*
X113655336Y-52719890D01*
X113735072Y-52711165D01*
X113804744Y-52719918D01*
G36*
X114921093Y-52727780D02*
X114967672Y-52754723D01*
X115000057Y-52781466D01*
X115023742Y-52809484D01*
X115040059Y-52843748D01*
X115050339Y-52889227D01*
X115055914Y-52950892D01*
X115058116Y-53033711D01*
X115058371Y-53093246D01*
X115058371Y-53312391D01*
X114996686Y-53340044D01*
X114935000Y-53367697D01*
X114927743Y-53127670D01*
X114924744Y-53038028D01*
X114921598Y-52972962D01*
X114917701Y-52928026D01*
X114912447Y-52898770D01*
X114905231Y-52880748D01*
X114895450Y-52869511D01*
X114892312Y-52867079D01*
X114844761Y-52848083D01*
X114796697Y-52855600D01*
X114768086Y-52875543D01*
X114756447Y-52889675D01*
X114748391Y-52908220D01*
X114743271Y-52936334D01*
X114740441Y-52979173D01*
X114739256Y-53041895D01*
X114739057Y-53107261D01*
X114739018Y-53189268D01*
X114737614Y-53247316D01*
X114732914Y-53286465D01*
X114722987Y-53311780D01*
X114705903Y-53328323D01*
X114679732Y-53341156D01*
X114644775Y-53354491D01*
X114606596Y-53369007D01*
X114611141Y-53111389D01*
X114612971Y-53018519D01*
X114615112Y-52949889D01*
X114618181Y-52900711D01*
X114622794Y-52866198D01*
X114629568Y-52841562D01*
X114639119Y-52822016D01*
X114650634Y-52804770D01*
X114706190Y-52749680D01*
X114773980Y-52717822D01*
X114847713Y-52710191D01*
X114921093Y-52727780D01*
X114921093Y-52727780D01*
G37*
X114921093Y-52727780D02*
X114967672Y-52754723D01*
X115000057Y-52781466D01*
X115023742Y-52809484D01*
X115040059Y-52843748D01*
X115050339Y-52889227D01*
X115055914Y-52950892D01*
X115058116Y-53033711D01*
X115058371Y-53093246D01*
X115058371Y-53312391D01*
X114996686Y-53340044D01*
X114935000Y-53367697D01*
X114927743Y-53127670D01*
X114924744Y-53038028D01*
X114921598Y-52972962D01*
X114917701Y-52928026D01*
X114912447Y-52898770D01*
X114905231Y-52880748D01*
X114895450Y-52869511D01*
X114892312Y-52867079D01*
X114844761Y-52848083D01*
X114796697Y-52855600D01*
X114768086Y-52875543D01*
X114756447Y-52889675D01*
X114748391Y-52908220D01*
X114743271Y-52936334D01*
X114740441Y-52979173D01*
X114739256Y-53041895D01*
X114739057Y-53107261D01*
X114739018Y-53189268D01*
X114737614Y-53247316D01*
X114732914Y-53286465D01*
X114722987Y-53311780D01*
X114705903Y-53328323D01*
X114679732Y-53341156D01*
X114644775Y-53354491D01*
X114606596Y-53369007D01*
X114611141Y-53111389D01*
X114612971Y-53018519D01*
X114615112Y-52949889D01*
X114618181Y-52900711D01*
X114622794Y-52866198D01*
X114629568Y-52841562D01*
X114639119Y-52822016D01*
X114650634Y-52804770D01*
X114706190Y-52749680D01*
X114773980Y-52717822D01*
X114847713Y-52710191D01*
X114921093Y-52727780D01*
G36*
X113246115Y-52721962D02*
X113314145Y-52757733D01*
X113364351Y-52815301D01*
X113382185Y-52852312D01*
X113396063Y-52907882D01*
X113403167Y-52978096D01*
X113403840Y-53054727D01*
X113398427Y-53129552D01*
X113387270Y-53194342D01*
X113370714Y-53240873D01*
X113365626Y-53248887D01*
X113305355Y-53308707D01*
X113233769Y-53344535D01*
X113156092Y-53355020D01*
X113077548Y-53338810D01*
X113055689Y-53329092D01*
X113013122Y-53299143D01*
X112975763Y-53259433D01*
X112972232Y-53254397D01*
X112957881Y-53230124D01*
X112948394Y-53204178D01*
X112942790Y-53170022D01*
X112940086Y-53121119D01*
X112939299Y-53050935D01*
X112939286Y-53035200D01*
X112939322Y-53030192D01*
X113084429Y-53030192D01*
X113085273Y-53096430D01*
X113088596Y-53140386D01*
X113095583Y-53168779D01*
X113107416Y-53188325D01*
X113113457Y-53194857D01*
X113148186Y-53219680D01*
X113181903Y-53218548D01*
X113215995Y-53197016D01*
X113236329Y-53174029D01*
X113248371Y-53140478D01*
X113255134Y-53087569D01*
X113255598Y-53081399D01*
X113256752Y-52985513D01*
X113244688Y-52914299D01*
X113219570Y-52868194D01*
X113181560Y-52847635D01*
X113167992Y-52846514D01*
X113132364Y-52852152D01*
X113107994Y-52871686D01*
X113093093Y-52909042D01*
X113085875Y-52968150D01*
X113084429Y-53030192D01*
X112939322Y-53030192D01*
X112939826Y-52960413D01*
X112942096Y-52908159D01*
X112947068Y-52871949D01*
X112955713Y-52845299D01*
X112969005Y-52821722D01*
X112971943Y-52817338D01*
X113021313Y-52758249D01*
X113075109Y-52723947D01*
X113140602Y-52710331D01*
X113162842Y-52709665D01*
X113246115Y-52721962D01*
X113246115Y-52721962D01*
G37*
X113246115Y-52721962D02*
X113314145Y-52757733D01*
X113364351Y-52815301D01*
X113382185Y-52852312D01*
X113396063Y-52907882D01*
X113403167Y-52978096D01*
X113403840Y-53054727D01*
X113398427Y-53129552D01*
X113387270Y-53194342D01*
X113370714Y-53240873D01*
X113365626Y-53248887D01*
X113305355Y-53308707D01*
X113233769Y-53344535D01*
X113156092Y-53355020D01*
X113077548Y-53338810D01*
X113055689Y-53329092D01*
X113013122Y-53299143D01*
X112975763Y-53259433D01*
X112972232Y-53254397D01*
X112957881Y-53230124D01*
X112948394Y-53204178D01*
X112942790Y-53170022D01*
X112940086Y-53121119D01*
X112939299Y-53050935D01*
X112939286Y-53035200D01*
X112939322Y-53030192D01*
X113084429Y-53030192D01*
X113085273Y-53096430D01*
X113088596Y-53140386D01*
X113095583Y-53168779D01*
X113107416Y-53188325D01*
X113113457Y-53194857D01*
X113148186Y-53219680D01*
X113181903Y-53218548D01*
X113215995Y-53197016D01*
X113236329Y-53174029D01*
X113248371Y-53140478D01*
X113255134Y-53087569D01*
X113255598Y-53081399D01*
X113256752Y-52985513D01*
X113244688Y-52914299D01*
X113219570Y-52868194D01*
X113181560Y-52847635D01*
X113167992Y-52846514D01*
X113132364Y-52852152D01*
X113107994Y-52871686D01*
X113093093Y-52909042D01*
X113085875Y-52968150D01*
X113084429Y-53030192D01*
X112939322Y-53030192D01*
X112939826Y-52960413D01*
X112942096Y-52908159D01*
X112947068Y-52871949D01*
X112955713Y-52845299D01*
X112969005Y-52821722D01*
X112971943Y-52817338D01*
X113021313Y-52758249D01*
X113075109Y-52723947D01*
X113140602Y-52710331D01*
X113162842Y-52709665D01*
X113246115Y-52721962D01*
G36*
X114373303Y-52731239D02*
X114430527Y-52769735D01*
X114474749Y-52825335D01*
X114501167Y-52896086D01*
X114506510Y-52948162D01*
X114505903Y-52969893D01*
X114500822Y-52986531D01*
X114486855Y-53001437D01*
X114459589Y-53017973D01*
X114414612Y-53039498D01*
X114347511Y-53069374D01*
X114347171Y-53069524D01*
X114285407Y-53097813D01*
X114234759Y-53122933D01*
X114200404Y-53142179D01*
X114187518Y-53152848D01*
X114187514Y-53152934D01*
X114198872Y-53176166D01*
X114225431Y-53201774D01*
X114255923Y-53220221D01*
X114271370Y-53223886D01*
X114313515Y-53211212D01*
X114349808Y-53179471D01*
X114367517Y-53144572D01*
X114384552Y-53118845D01*
X114417922Y-53089546D01*
X114457149Y-53064235D01*
X114491756Y-53050471D01*
X114498993Y-53049714D01*
X114507139Y-53062160D01*
X114507630Y-53093972D01*
X114501643Y-53136866D01*
X114490357Y-53182558D01*
X114474950Y-53222761D01*
X114474171Y-53224322D01*
X114427804Y-53289062D01*
X114367711Y-53333097D01*
X114299465Y-53354711D01*
X114228638Y-53352185D01*
X114160804Y-53323804D01*
X114157788Y-53321808D01*
X114104427Y-53273448D01*
X114069340Y-53210352D01*
X114049922Y-53127387D01*
X114047316Y-53104078D01*
X114042701Y-52994055D01*
X114048233Y-52942748D01*
X114187514Y-52942748D01*
X114189324Y-52974753D01*
X114199222Y-52984093D01*
X114223898Y-52977105D01*
X114262795Y-52960587D01*
X114306275Y-52939881D01*
X114307356Y-52939333D01*
X114344209Y-52919949D01*
X114359000Y-52907013D01*
X114355353Y-52893451D01*
X114339995Y-52875632D01*
X114300923Y-52849845D01*
X114258846Y-52847950D01*
X114221103Y-52866717D01*
X114195034Y-52902915D01*
X114187514Y-52942748D01*
X114048233Y-52942748D01*
X114052194Y-52906027D01*
X114076550Y-52836212D01*
X114110456Y-52787302D01*
X114171653Y-52737878D01*
X114239063Y-52713359D01*
X114307880Y-52711797D01*
X114373303Y-52731239D01*
X114373303Y-52731239D01*
G37*
X114373303Y-52731239D02*
X114430527Y-52769735D01*
X114474749Y-52825335D01*
X114501167Y-52896086D01*
X114506510Y-52948162D01*
X114505903Y-52969893D01*
X114500822Y-52986531D01*
X114486855Y-53001437D01*
X114459589Y-53017973D01*
X114414612Y-53039498D01*
X114347511Y-53069374D01*
X114347171Y-53069524D01*
X114285407Y-53097813D01*
X114234759Y-53122933D01*
X114200404Y-53142179D01*
X114187518Y-53152848D01*
X114187514Y-53152934D01*
X114198872Y-53176166D01*
X114225431Y-53201774D01*
X114255923Y-53220221D01*
X114271370Y-53223886D01*
X114313515Y-53211212D01*
X114349808Y-53179471D01*
X114367517Y-53144572D01*
X114384552Y-53118845D01*
X114417922Y-53089546D01*
X114457149Y-53064235D01*
X114491756Y-53050471D01*
X114498993Y-53049714D01*
X114507139Y-53062160D01*
X114507630Y-53093972D01*
X114501643Y-53136866D01*
X114490357Y-53182558D01*
X114474950Y-53222761D01*
X114474171Y-53224322D01*
X114427804Y-53289062D01*
X114367711Y-53333097D01*
X114299465Y-53354711D01*
X114228638Y-53352185D01*
X114160804Y-53323804D01*
X114157788Y-53321808D01*
X114104427Y-53273448D01*
X114069340Y-53210352D01*
X114049922Y-53127387D01*
X114047316Y-53104078D01*
X114042701Y-52994055D01*
X114048233Y-52942748D01*
X114187514Y-52942748D01*
X114189324Y-52974753D01*
X114199222Y-52984093D01*
X114223898Y-52977105D01*
X114262795Y-52960587D01*
X114306275Y-52939881D01*
X114307356Y-52939333D01*
X114344209Y-52919949D01*
X114359000Y-52907013D01*
X114355353Y-52893451D01*
X114339995Y-52875632D01*
X114300923Y-52849845D01*
X114258846Y-52847950D01*
X114221103Y-52866717D01*
X114195034Y-52902915D01*
X114187514Y-52942748D01*
X114048233Y-52942748D01*
X114052194Y-52906027D01*
X114076550Y-52836212D01*
X114110456Y-52787302D01*
X114171653Y-52737878D01*
X114239063Y-52713359D01*
X114307880Y-52711797D01*
X114373303Y-52731239D01*
G36*
X115580886Y-52651289D02*
X115585139Y-52710613D01*
X115590025Y-52745572D01*
X115596795Y-52760820D01*
X115606702Y-52761015D01*
X115609914Y-52759195D01*
X115652644Y-52746015D01*
X115708227Y-52746785D01*
X115764737Y-52760333D01*
X115800082Y-52777861D01*
X115836321Y-52805861D01*
X115862813Y-52837549D01*
X115880999Y-52877813D01*
X115892322Y-52931543D01*
X115898222Y-53003626D01*
X115900143Y-53098951D01*
X115900177Y-53117237D01*
X115900200Y-53322646D01*
X115854491Y-53338580D01*
X115822027Y-53349420D01*
X115804215Y-53354468D01*
X115803691Y-53354514D01*
X115801937Y-53340828D01*
X115800444Y-53303076D01*
X115799326Y-53246224D01*
X115798697Y-53175234D01*
X115798600Y-53132073D01*
X115798398Y-53046973D01*
X115797358Y-52985981D01*
X115794831Y-52944177D01*
X115790164Y-52916642D01*
X115782707Y-52898456D01*
X115771811Y-52884698D01*
X115765007Y-52878073D01*
X115718272Y-52851375D01*
X115667272Y-52849375D01*
X115621001Y-52871955D01*
X115612444Y-52880107D01*
X115599893Y-52895436D01*
X115591188Y-52913618D01*
X115585631Y-52939909D01*
X115582526Y-52979562D01*
X115581176Y-53037832D01*
X115580886Y-53118173D01*
X115580886Y-53322646D01*
X115535177Y-53338580D01*
X115502713Y-53349420D01*
X115484901Y-53354468D01*
X115484377Y-53354514D01*
X115483037Y-53340623D01*
X115481828Y-53301439D01*
X115480801Y-53240700D01*
X115480002Y-53162141D01*
X115479481Y-53069498D01*
X115479286Y-52966509D01*
X115479286Y-52569342D01*
X115526457Y-52549444D01*
X115573629Y-52529547D01*
X115580886Y-52651289D01*
X115580886Y-52651289D01*
G37*
X115580886Y-52651289D02*
X115585139Y-52710613D01*
X115590025Y-52745572D01*
X115596795Y-52760820D01*
X115606702Y-52761015D01*
X115609914Y-52759195D01*
X115652644Y-52746015D01*
X115708227Y-52746785D01*
X115764737Y-52760333D01*
X115800082Y-52777861D01*
X115836321Y-52805861D01*
X115862813Y-52837549D01*
X115880999Y-52877813D01*
X115892322Y-52931543D01*
X115898222Y-53003626D01*
X115900143Y-53098951D01*
X115900177Y-53117237D01*
X115900200Y-53322646D01*
X115854491Y-53338580D01*
X115822027Y-53349420D01*
X115804215Y-53354468D01*
X115803691Y-53354514D01*
X115801937Y-53340828D01*
X115800444Y-53303076D01*
X115799326Y-53246224D01*
X115798697Y-53175234D01*
X115798600Y-53132073D01*
X115798398Y-53046973D01*
X115797358Y-52985981D01*
X115794831Y-52944177D01*
X115790164Y-52916642D01*
X115782707Y-52898456D01*
X115771811Y-52884698D01*
X115765007Y-52878073D01*
X115718272Y-52851375D01*
X115667272Y-52849375D01*
X115621001Y-52871955D01*
X115612444Y-52880107D01*
X115599893Y-52895436D01*
X115591188Y-52913618D01*
X115585631Y-52939909D01*
X115582526Y-52979562D01*
X115581176Y-53037832D01*
X115580886Y-53118173D01*
X115580886Y-53322646D01*
X115535177Y-53338580D01*
X115502713Y-53349420D01*
X115484901Y-53354468D01*
X115484377Y-53354514D01*
X115483037Y-53340623D01*
X115481828Y-53301439D01*
X115480801Y-53240700D01*
X115480002Y-53162141D01*
X115479481Y-53069498D01*
X115479286Y-52966509D01*
X115479286Y-52569342D01*
X115526457Y-52549444D01*
X115573629Y-52529547D01*
X115580886Y-52651289D01*
G36*
X116244744Y-52750968D02*
X116301616Y-52772087D01*
X116302267Y-52772493D01*
X116337440Y-52798380D01*
X116363407Y-52828633D01*
X116381670Y-52868058D01*
X116393732Y-52921462D01*
X116401096Y-52993651D01*
X116405264Y-53089432D01*
X116405629Y-53103078D01*
X116410876Y-53308842D01*
X116366716Y-53331678D01*
X116334763Y-53347110D01*
X116315470Y-53354423D01*
X116314578Y-53354514D01*
X116311239Y-53341022D01*
X116308587Y-53304626D01*
X116306956Y-53251452D01*
X116306600Y-53208393D01*
X116306592Y-53138641D01*
X116303403Y-53094837D01*
X116292288Y-53073944D01*
X116268501Y-53072925D01*
X116227296Y-53088741D01*
X116165086Y-53117815D01*
X116119341Y-53141963D01*
X116095813Y-53162913D01*
X116088896Y-53185747D01*
X116088886Y-53186877D01*
X116100299Y-53226212D01*
X116134092Y-53247462D01*
X116185809Y-53250539D01*
X116223061Y-53250006D01*
X116242703Y-53260735D01*
X116254952Y-53286505D01*
X116262002Y-53319337D01*
X116251842Y-53337966D01*
X116248017Y-53340632D01*
X116212001Y-53351340D01*
X116161566Y-53352856D01*
X116109626Y-53345759D01*
X116072822Y-53332788D01*
X116021938Y-53289585D01*
X115993014Y-53229446D01*
X115987286Y-53182462D01*
X115991657Y-53140082D01*
X116007475Y-53105488D01*
X116038797Y-53074763D01*
X116089678Y-53043990D01*
X116164176Y-53009252D01*
X116168714Y-53007288D01*
X116235821Y-52976287D01*
X116277232Y-52950862D01*
X116294981Y-52928014D01*
X116291107Y-52904745D01*
X116267643Y-52878056D01*
X116260627Y-52871914D01*
X116213630Y-52848100D01*
X116164933Y-52849103D01*
X116122522Y-52872451D01*
X116094384Y-52915675D01*
X116091769Y-52924160D01*
X116066308Y-52965308D01*
X116034001Y-52985128D01*
X115987286Y-53004770D01*
X115987286Y-52953950D01*
X116001496Y-52880082D01*
X116043675Y-52812327D01*
X116065624Y-52789661D01*
X116115517Y-52760569D01*
X116178967Y-52747400D01*
X116244744Y-52750968D01*
X116244744Y-52750968D01*
G37*
X116244744Y-52750968D02*
X116301616Y-52772087D01*
X116302267Y-52772493D01*
X116337440Y-52798380D01*
X116363407Y-52828633D01*
X116381670Y-52868058D01*
X116393732Y-52921462D01*
X116401096Y-52993651D01*
X116405264Y-53089432D01*
X116405629Y-53103078D01*
X116410876Y-53308842D01*
X116366716Y-53331678D01*
X116334763Y-53347110D01*
X116315470Y-53354423D01*
X116314578Y-53354514D01*
X116311239Y-53341022D01*
X116308587Y-53304626D01*
X116306956Y-53251452D01*
X116306600Y-53208393D01*
X116306592Y-53138641D01*
X116303403Y-53094837D01*
X116292288Y-53073944D01*
X116268501Y-53072925D01*
X116227296Y-53088741D01*
X116165086Y-53117815D01*
X116119341Y-53141963D01*
X116095813Y-53162913D01*
X116088896Y-53185747D01*
X116088886Y-53186877D01*
X116100299Y-53226212D01*
X116134092Y-53247462D01*
X116185809Y-53250539D01*
X116223061Y-53250006D01*
X116242703Y-53260735D01*
X116254952Y-53286505D01*
X116262002Y-53319337D01*
X116251842Y-53337966D01*
X116248017Y-53340632D01*
X116212001Y-53351340D01*
X116161566Y-53352856D01*
X116109626Y-53345759D01*
X116072822Y-53332788D01*
X116021938Y-53289585D01*
X115993014Y-53229446D01*
X115987286Y-53182462D01*
X115991657Y-53140082D01*
X116007475Y-53105488D01*
X116038797Y-53074763D01*
X116089678Y-53043990D01*
X116164176Y-53009252D01*
X116168714Y-53007288D01*
X116235821Y-52976287D01*
X116277232Y-52950862D01*
X116294981Y-52928014D01*
X116291107Y-52904745D01*
X116267643Y-52878056D01*
X116260627Y-52871914D01*
X116213630Y-52848100D01*
X116164933Y-52849103D01*
X116122522Y-52872451D01*
X116094384Y-52915675D01*
X116091769Y-52924160D01*
X116066308Y-52965308D01*
X116034001Y-52985128D01*
X115987286Y-53004770D01*
X115987286Y-52953950D01*
X116001496Y-52880082D01*
X116043675Y-52812327D01*
X116065624Y-52789661D01*
X116115517Y-52760569D01*
X116178967Y-52747400D01*
X116244744Y-52750968D01*
G36*
X116734926Y-52749755D02*
X116800858Y-52774084D01*
X116854273Y-52817117D01*
X116875164Y-52847409D01*
X116897939Y-52902994D01*
X116897466Y-52943186D01*
X116873562Y-52970217D01*
X116864717Y-52974813D01*
X116826530Y-52989144D01*
X116807028Y-52985472D01*
X116800422Y-52961407D01*
X116800086Y-52948114D01*
X116787992Y-52899210D01*
X116756471Y-52864999D01*
X116712659Y-52848476D01*
X116663695Y-52852634D01*
X116623894Y-52874227D01*
X116610450Y-52886544D01*
X116600921Y-52901487D01*
X116594485Y-52924075D01*
X116590317Y-52959328D01*
X116587597Y-53012266D01*
X116585502Y-53087907D01*
X116584960Y-53111857D01*
X116582981Y-53193790D01*
X116580731Y-53251455D01*
X116577357Y-53289608D01*
X116572006Y-53313004D01*
X116563824Y-53326398D01*
X116551959Y-53334545D01*
X116544362Y-53338144D01*
X116512102Y-53350452D01*
X116493111Y-53354514D01*
X116486836Y-53340948D01*
X116483006Y-53299934D01*
X116481600Y-53230999D01*
X116482598Y-53133669D01*
X116482908Y-53118657D01*
X116485101Y-53029859D01*
X116487693Y-52965019D01*
X116491382Y-52919067D01*
X116496864Y-52886935D01*
X116504835Y-52863553D01*
X116515993Y-52843852D01*
X116521830Y-52835410D01*
X116555296Y-52798057D01*
X116592727Y-52769003D01*
X116597309Y-52766467D01*
X116664426Y-52746443D01*
X116734926Y-52749755D01*
X116734926Y-52749755D01*
G37*
X116734926Y-52749755D02*
X116800858Y-52774084D01*
X116854273Y-52817117D01*
X116875164Y-52847409D01*
X116897939Y-52902994D01*
X116897466Y-52943186D01*
X116873562Y-52970217D01*
X116864717Y-52974813D01*
X116826530Y-52989144D01*
X116807028Y-52985472D01*
X116800422Y-52961407D01*
X116800086Y-52948114D01*
X116787992Y-52899210D01*
X116756471Y-52864999D01*
X116712659Y-52848476D01*
X116663695Y-52852634D01*
X116623894Y-52874227D01*
X116610450Y-52886544D01*
X116600921Y-52901487D01*
X116594485Y-52924075D01*
X116590317Y-52959328D01*
X116587597Y-53012266D01*
X116585502Y-53087907D01*
X116584960Y-53111857D01*
X116582981Y-53193790D01*
X116580731Y-53251455D01*
X116577357Y-53289608D01*
X116572006Y-53313004D01*
X116563824Y-53326398D01*
X116551959Y-53334545D01*
X116544362Y-53338144D01*
X116512102Y-53350452D01*
X116493111Y-53354514D01*
X116486836Y-53340948D01*
X116483006Y-53299934D01*
X116481600Y-53230999D01*
X116482598Y-53133669D01*
X116482908Y-53118657D01*
X116485101Y-53029859D01*
X116487693Y-52965019D01*
X116491382Y-52919067D01*
X116496864Y-52886935D01*
X116504835Y-52863553D01*
X116515993Y-52843852D01*
X116521830Y-52835410D01*
X116555296Y-52798057D01*
X116592727Y-52769003D01*
X116597309Y-52766467D01*
X116664426Y-52746443D01*
X116734926Y-52749755D01*
G36*
X117395117Y-52865358D02*
X117394933Y-52973837D01*
X117394219Y-53057287D01*
X117392675Y-53119704D01*
X117390001Y-53165085D01*
X117385894Y-53197429D01*
X117380055Y-53220733D01*
X117372182Y-53238995D01*
X117366221Y-53249418D01*
X117316855Y-53305945D01*
X117254264Y-53341377D01*
X117185013Y-53354090D01*
X117115668Y-53342463D01*
X117074375Y-53321568D01*
X117031025Y-53285422D01*
X117001481Y-53241276D01*
X116983655Y-53183462D01*
X116975463Y-53106313D01*
X116974302Y-53049714D01*
X116974458Y-53045647D01*
X117075857Y-53045647D01*
X117076476Y-53110550D01*
X117079314Y-53153514D01*
X117085840Y-53181622D01*
X117097523Y-53201953D01*
X117111483Y-53217288D01*
X117158365Y-53246890D01*
X117208701Y-53249419D01*
X117256276Y-53224705D01*
X117259979Y-53221356D01*
X117275783Y-53203935D01*
X117285693Y-53183209D01*
X117291058Y-53152362D01*
X117293228Y-53104577D01*
X117293571Y-53051748D01*
X117292827Y-52985381D01*
X117289748Y-52941106D01*
X117283061Y-52912009D01*
X117271496Y-52891173D01*
X117262013Y-52880107D01*
X117217960Y-52852198D01*
X117167224Y-52848843D01*
X117118796Y-52870159D01*
X117109450Y-52878073D01*
X117093540Y-52895647D01*
X117083610Y-52916587D01*
X117078278Y-52947782D01*
X117076163Y-52996122D01*
X117075857Y-53045647D01*
X116974458Y-53045647D01*
X116977810Y-52958568D01*
X116989726Y-52890086D01*
X117012135Y-52838600D01*
X117047124Y-52798443D01*
X117074375Y-52777861D01*
X117123907Y-52755625D01*
X117181316Y-52745304D01*
X117234682Y-52748067D01*
X117264543Y-52759212D01*
X117276261Y-52762383D01*
X117284037Y-52750557D01*
X117289465Y-52718866D01*
X117293571Y-52670593D01*
X117298067Y-52616829D01*
X117304313Y-52584482D01*
X117315676Y-52565985D01*
X117335528Y-52553770D01*
X117348000Y-52548362D01*
X117395171Y-52528601D01*
X117395117Y-52865358D01*
X117395117Y-52865358D01*
G37*
X117395117Y-52865358D02*
X117394933Y-52973837D01*
X117394219Y-53057287D01*
X117392675Y-53119704D01*
X117390001Y-53165085D01*
X117385894Y-53197429D01*
X117380055Y-53220733D01*
X117372182Y-53238995D01*
X117366221Y-53249418D01*
X117316855Y-53305945D01*
X117254264Y-53341377D01*
X117185013Y-53354090D01*
X117115668Y-53342463D01*
X117074375Y-53321568D01*
X117031025Y-53285422D01*
X117001481Y-53241276D01*
X116983655Y-53183462D01*
X116975463Y-53106313D01*
X116974302Y-53049714D01*
X116974458Y-53045647D01*
X117075857Y-53045647D01*
X117076476Y-53110550D01*
X117079314Y-53153514D01*
X117085840Y-53181622D01*
X117097523Y-53201953D01*
X117111483Y-53217288D01*
X117158365Y-53246890D01*
X117208701Y-53249419D01*
X117256276Y-53224705D01*
X117259979Y-53221356D01*
X117275783Y-53203935D01*
X117285693Y-53183209D01*
X117291058Y-53152362D01*
X117293228Y-53104577D01*
X117293571Y-53051748D01*
X117292827Y-52985381D01*
X117289748Y-52941106D01*
X117283061Y-52912009D01*
X117271496Y-52891173D01*
X117262013Y-52880107D01*
X117217960Y-52852198D01*
X117167224Y-52848843D01*
X117118796Y-52870159D01*
X117109450Y-52878073D01*
X117093540Y-52895647D01*
X117083610Y-52916587D01*
X117078278Y-52947782D01*
X117076163Y-52996122D01*
X117075857Y-53045647D01*
X116974458Y-53045647D01*
X116977810Y-52958568D01*
X116989726Y-52890086D01*
X117012135Y-52838600D01*
X117047124Y-52798443D01*
X117074375Y-52777861D01*
X117123907Y-52755625D01*
X117181316Y-52745304D01*
X117234682Y-52748067D01*
X117264543Y-52759212D01*
X117276261Y-52762383D01*
X117284037Y-52750557D01*
X117289465Y-52718866D01*
X117293571Y-52670593D01*
X117298067Y-52616829D01*
X117304313Y-52584482D01*
X117315676Y-52565985D01*
X117335528Y-52553770D01*
X117348000Y-52548362D01*
X117395171Y-52528601D01*
X117395117Y-52865358D01*
G36*
X117984833Y-52758663D02*
X117987048Y-52796850D01*
X117988784Y-52854886D01*
X117989899Y-52928180D01*
X117990257Y-53005055D01*
X117990257Y-53265196D01*
X117944326Y-53311127D01*
X117912675Y-53339429D01*
X117884890Y-53350893D01*
X117846915Y-53350168D01*
X117831840Y-53348321D01*
X117784726Y-53342948D01*
X117745756Y-53339869D01*
X117736257Y-53339585D01*
X117704233Y-53341445D01*
X117658432Y-53346114D01*
X117640674Y-53348321D01*
X117597057Y-53351735D01*
X117567745Y-53344320D01*
X117538680Y-53321427D01*
X117528188Y-53311127D01*
X117482257Y-53265196D01*
X117482257Y-52778602D01*
X117519226Y-52761758D01*
X117551059Y-52749282D01*
X117569683Y-52744914D01*
X117574458Y-52758718D01*
X117578921Y-52797286D01*
X117582775Y-52856356D01*
X117585722Y-52931663D01*
X117587143Y-52995286D01*
X117591114Y-53245657D01*
X117625759Y-53250556D01*
X117657268Y-53247131D01*
X117672708Y-53236041D01*
X117677023Y-53215308D01*
X117680708Y-53171145D01*
X117683469Y-53109146D01*
X117685012Y-53034909D01*
X117685235Y-52996706D01*
X117685457Y-52776783D01*
X117731166Y-52760849D01*
X117763518Y-52750015D01*
X117781115Y-52744962D01*
X117781623Y-52744914D01*
X117783388Y-52758648D01*
X117785329Y-52796730D01*
X117787282Y-52854482D01*
X117789084Y-52927227D01*
X117790343Y-52995286D01*
X117794314Y-53245657D01*
X117881400Y-53245657D01*
X117885396Y-53017240D01*
X117889392Y-52788822D01*
X117931847Y-52766868D01*
X117963192Y-52751793D01*
X117981744Y-52744951D01*
X117982279Y-52744914D01*
X117984833Y-52758663D01*
X117984833Y-52758663D01*
G37*
X117984833Y-52758663D02*
X117987048Y-52796850D01*
X117988784Y-52854886D01*
X117989899Y-52928180D01*
X117990257Y-53005055D01*
X117990257Y-53265196D01*
X117944326Y-53311127D01*
X117912675Y-53339429D01*
X117884890Y-53350893D01*
X117846915Y-53350168D01*
X117831840Y-53348321D01*
X117784726Y-53342948D01*
X117745756Y-53339869D01*
X117736257Y-53339585D01*
X117704233Y-53341445D01*
X117658432Y-53346114D01*
X117640674Y-53348321D01*
X117597057Y-53351735D01*
X117567745Y-53344320D01*
X117538680Y-53321427D01*
X117528188Y-53311127D01*
X117482257Y-53265196D01*
X117482257Y-52778602D01*
X117519226Y-52761758D01*
X117551059Y-52749282D01*
X117569683Y-52744914D01*
X117574458Y-52758718D01*
X117578921Y-52797286D01*
X117582775Y-52856356D01*
X117585722Y-52931663D01*
X117587143Y-52995286D01*
X117591114Y-53245657D01*
X117625759Y-53250556D01*
X117657268Y-53247131D01*
X117672708Y-53236041D01*
X117677023Y-53215308D01*
X117680708Y-53171145D01*
X117683469Y-53109146D01*
X117685012Y-53034909D01*
X117685235Y-52996706D01*
X117685457Y-52776783D01*
X117731166Y-52760849D01*
X117763518Y-52750015D01*
X117781115Y-52744962D01*
X117781623Y-52744914D01*
X117783388Y-52758648D01*
X117785329Y-52796730D01*
X117787282Y-52854482D01*
X117789084Y-52927227D01*
X117790343Y-52995286D01*
X117794314Y-53245657D01*
X117881400Y-53245657D01*
X117885396Y-53017240D01*
X117889392Y-52788822D01*
X117931847Y-52766868D01*
X117963192Y-52751793D01*
X117981744Y-52744951D01*
X117982279Y-52744914D01*
X117984833Y-52758663D01*
G36*
X118349876Y-52756335D02*
X118391667Y-52775344D01*
X118424469Y-52798378D01*
X118448503Y-52824133D01*
X118465097Y-52857358D01*
X118475577Y-52902800D01*
X118481271Y-52965207D01*
X118483507Y-53049327D01*
X118483743Y-53104721D01*
X118483743Y-53320826D01*
X118446774Y-53337670D01*
X118417656Y-53349981D01*
X118403231Y-53354514D01*
X118400472Y-53341025D01*
X118398282Y-53304653D01*
X118396942Y-53251542D01*
X118396657Y-53209372D01*
X118395434Y-53148447D01*
X118392136Y-53100115D01*
X118387321Y-53070518D01*
X118383496Y-53064229D01*
X118357783Y-53070652D01*
X118317418Y-53087125D01*
X118270679Y-53109458D01*
X118225845Y-53133457D01*
X118191193Y-53154930D01*
X118175002Y-53169685D01*
X118174938Y-53169845D01*
X118176330Y-53197152D01*
X118188818Y-53223219D01*
X118210743Y-53244392D01*
X118242743Y-53251474D01*
X118270092Y-53250649D01*
X118308826Y-53250042D01*
X118329158Y-53259116D01*
X118341369Y-53283092D01*
X118342909Y-53287613D01*
X118348203Y-53321806D01*
X118334047Y-53342568D01*
X118297148Y-53352462D01*
X118257289Y-53354292D01*
X118185562Y-53340727D01*
X118148432Y-53321355D01*
X118102576Y-53275845D01*
X118078256Y-53219983D01*
X118076073Y-53160957D01*
X118096629Y-53105953D01*
X118127549Y-53071486D01*
X118158420Y-53052189D01*
X118206942Y-53027759D01*
X118263485Y-53002985D01*
X118272910Y-52999199D01*
X118335019Y-52971791D01*
X118370822Y-52947634D01*
X118382337Y-52923619D01*
X118371580Y-52896635D01*
X118353114Y-52875543D01*
X118309469Y-52849572D01*
X118261446Y-52847624D01*
X118217406Y-52867637D01*
X118185709Y-52907551D01*
X118181549Y-52917848D01*
X118157327Y-52955724D01*
X118121965Y-52983842D01*
X118077343Y-53006917D01*
X118077343Y-52941485D01*
X118079969Y-52901506D01*
X118091230Y-52869997D01*
X118116199Y-52836378D01*
X118140169Y-52810484D01*
X118177441Y-52773817D01*
X118206401Y-52754121D01*
X118237505Y-52746220D01*
X118272713Y-52744914D01*
X118349876Y-52756335D01*
X118349876Y-52756335D01*
G37*
X118349876Y-52756335D02*
X118391667Y-52775344D01*
X118424469Y-52798378D01*
X118448503Y-52824133D01*
X118465097Y-52857358D01*
X118475577Y-52902800D01*
X118481271Y-52965207D01*
X118483507Y-53049327D01*
X118483743Y-53104721D01*
X118483743Y-53320826D01*
X118446774Y-53337670D01*
X118417656Y-53349981D01*
X118403231Y-53354514D01*
X118400472Y-53341025D01*
X118398282Y-53304653D01*
X118396942Y-53251542D01*
X118396657Y-53209372D01*
X118395434Y-53148447D01*
X118392136Y-53100115D01*
X118387321Y-53070518D01*
X118383496Y-53064229D01*
X118357783Y-53070652D01*
X118317418Y-53087125D01*
X118270679Y-53109458D01*
X118225845Y-53133457D01*
X118191193Y-53154930D01*
X118175002Y-53169685D01*
X118174938Y-53169845D01*
X118176330Y-53197152D01*
X118188818Y-53223219D01*
X118210743Y-53244392D01*
X118242743Y-53251474D01*
X118270092Y-53250649D01*
X118308826Y-53250042D01*
X118329158Y-53259116D01*
X118341369Y-53283092D01*
X118342909Y-53287613D01*
X118348203Y-53321806D01*
X118334047Y-53342568D01*
X118297148Y-53352462D01*
X118257289Y-53354292D01*
X118185562Y-53340727D01*
X118148432Y-53321355D01*
X118102576Y-53275845D01*
X118078256Y-53219983D01*
X118076073Y-53160957D01*
X118096629Y-53105953D01*
X118127549Y-53071486D01*
X118158420Y-53052189D01*
X118206942Y-53027759D01*
X118263485Y-53002985D01*
X118272910Y-52999199D01*
X118335019Y-52971791D01*
X118370822Y-52947634D01*
X118382337Y-52923619D01*
X118371580Y-52896635D01*
X118353114Y-52875543D01*
X118309469Y-52849572D01*
X118261446Y-52847624D01*
X118217406Y-52867637D01*
X118185709Y-52907551D01*
X118181549Y-52917848D01*
X118157327Y-52955724D01*
X118121965Y-52983842D01*
X118077343Y-53006917D01*
X118077343Y-52941485D01*
X118079969Y-52901506D01*
X118091230Y-52869997D01*
X118116199Y-52836378D01*
X118140169Y-52810484D01*
X118177441Y-52773817D01*
X118206401Y-52754121D01*
X118237505Y-52746220D01*
X118272713Y-52744914D01*
X118349876Y-52756335D01*
G36*
X118857600Y-52758752D02*
X118874948Y-52766334D01*
X118916356Y-52799128D01*
X118951765Y-52846547D01*
X118973664Y-52897151D01*
X118977229Y-52922098D01*
X118965279Y-52956927D01*
X118939067Y-52975357D01*
X118910964Y-52986516D01*
X118898095Y-52988572D01*
X118891829Y-52973649D01*
X118879456Y-52941175D01*
X118874028Y-52926502D01*
X118843590Y-52875744D01*
X118799520Y-52850427D01*
X118743010Y-52851206D01*
X118738825Y-52852203D01*
X118708655Y-52866507D01*
X118686476Y-52894393D01*
X118671327Y-52939287D01*
X118662250Y-53004615D01*
X118658286Y-53093804D01*
X118657914Y-53141261D01*
X118657730Y-53216071D01*
X118656522Y-53267069D01*
X118653309Y-53299471D01*
X118647109Y-53318495D01*
X118636940Y-53329356D01*
X118621819Y-53337272D01*
X118620946Y-53337670D01*
X118591828Y-53349981D01*
X118577403Y-53354514D01*
X118575186Y-53340809D01*
X118573289Y-53302925D01*
X118571847Y-53245715D01*
X118570998Y-53174027D01*
X118570829Y-53121565D01*
X118571692Y-53020047D01*
X118575070Y-52943032D01*
X118582142Y-52886023D01*
X118594088Y-52844526D01*
X118612090Y-52814043D01*
X118637327Y-52790080D01*
X118662247Y-52773355D01*
X118722171Y-52751097D01*
X118791911Y-52746076D01*
X118857600Y-52758752D01*
X118857600Y-52758752D01*
G37*
X118857600Y-52758752D02*
X118874948Y-52766334D01*
X118916356Y-52799128D01*
X118951765Y-52846547D01*
X118973664Y-52897151D01*
X118977229Y-52922098D01*
X118965279Y-52956927D01*
X118939067Y-52975357D01*
X118910964Y-52986516D01*
X118898095Y-52988572D01*
X118891829Y-52973649D01*
X118879456Y-52941175D01*
X118874028Y-52926502D01*
X118843590Y-52875744D01*
X118799520Y-52850427D01*
X118743010Y-52851206D01*
X118738825Y-52852203D01*
X118708655Y-52866507D01*
X118686476Y-52894393D01*
X118671327Y-52939287D01*
X118662250Y-53004615D01*
X118658286Y-53093804D01*
X118657914Y-53141261D01*
X118657730Y-53216071D01*
X118656522Y-53267069D01*
X118653309Y-53299471D01*
X118647109Y-53318495D01*
X118636940Y-53329356D01*
X118621819Y-53337272D01*
X118620946Y-53337670D01*
X118591828Y-53349981D01*
X118577403Y-53354514D01*
X118575186Y-53340809D01*
X118573289Y-53302925D01*
X118571847Y-53245715D01*
X118570998Y-53174027D01*
X118570829Y-53121565D01*
X118571692Y-53020047D01*
X118575070Y-52943032D01*
X118582142Y-52886023D01*
X118594088Y-52844526D01*
X118612090Y-52814043D01*
X118637327Y-52790080D01*
X118662247Y-52773355D01*
X118722171Y-52751097D01*
X118791911Y-52746076D01*
X118857600Y-52758752D01*
G36*
X119358595Y-52766966D02*
X119416021Y-52804497D01*
X119443719Y-52838096D01*
X119465662Y-52899064D01*
X119467405Y-52947308D01*
X119463457Y-53011816D01*
X119314686Y-53076934D01*
X119242349Y-53110202D01*
X119195084Y-53136964D01*
X119170507Y-53160144D01*
X119166237Y-53182667D01*
X119179889Y-53207455D01*
X119194943Y-53223886D01*
X119238746Y-53250235D01*
X119286389Y-53252081D01*
X119330145Y-53231546D01*
X119362289Y-53190752D01*
X119368038Y-53176347D01*
X119395576Y-53131356D01*
X119427258Y-53112182D01*
X119470714Y-53095779D01*
X119470714Y-53157966D01*
X119466872Y-53200283D01*
X119451823Y-53235969D01*
X119420280Y-53276943D01*
X119415592Y-53282267D01*
X119380506Y-53318720D01*
X119350347Y-53338283D01*
X119312615Y-53347283D01*
X119281335Y-53350230D01*
X119225385Y-53350965D01*
X119185555Y-53341660D01*
X119160708Y-53327846D01*
X119121656Y-53297467D01*
X119094625Y-53264613D01*
X119077517Y-53223294D01*
X119068238Y-53167521D01*
X119064693Y-53091305D01*
X119064410Y-53052622D01*
X119065372Y-53006247D01*
X119153007Y-53006247D01*
X119154023Y-53031126D01*
X119156556Y-53035200D01*
X119173274Y-53029665D01*
X119209249Y-53015017D01*
X119257331Y-52994190D01*
X119267386Y-52989714D01*
X119328152Y-52958814D01*
X119361632Y-52931657D01*
X119368990Y-52906220D01*
X119351391Y-52880481D01*
X119336856Y-52869109D01*
X119284410Y-52846364D01*
X119235322Y-52850122D01*
X119194227Y-52877884D01*
X119165758Y-52927152D01*
X119156631Y-52966257D01*
X119153007Y-53006247D01*
X119065372Y-53006247D01*
X119066285Y-52962249D01*
X119073196Y-52895384D01*
X119086884Y-52846695D01*
X119109096Y-52810849D01*
X119141574Y-52782513D01*
X119155733Y-52773355D01*
X119220053Y-52749507D01*
X119290473Y-52748006D01*
X119358595Y-52766966D01*
X119358595Y-52766966D01*
G37*
X119358595Y-52766966D02*
X119416021Y-52804497D01*
X119443719Y-52838096D01*
X119465662Y-52899064D01*
X119467405Y-52947308D01*
X119463457Y-53011816D01*
X119314686Y-53076934D01*
X119242349Y-53110202D01*
X119195084Y-53136964D01*
X119170507Y-53160144D01*
X119166237Y-53182667D01*
X119179889Y-53207455D01*
X119194943Y-53223886D01*
X119238746Y-53250235D01*
X119286389Y-53252081D01*
X119330145Y-53231546D01*
X119362289Y-53190752D01*
X119368038Y-53176347D01*
X119395576Y-53131356D01*
X119427258Y-53112182D01*
X119470714Y-53095779D01*
X119470714Y-53157966D01*
X119466872Y-53200283D01*
X119451823Y-53235969D01*
X119420280Y-53276943D01*
X119415592Y-53282267D01*
X119380506Y-53318720D01*
X119350347Y-53338283D01*
X119312615Y-53347283D01*
X119281335Y-53350230D01*
X119225385Y-53350965D01*
X119185555Y-53341660D01*
X119160708Y-53327846D01*
X119121656Y-53297467D01*
X119094625Y-53264613D01*
X119077517Y-53223294D01*
X119068238Y-53167521D01*
X119064693Y-53091305D01*
X119064410Y-53052622D01*
X119065372Y-53006247D01*
X119153007Y-53006247D01*
X119154023Y-53031126D01*
X119156556Y-53035200D01*
X119173274Y-53029665D01*
X119209249Y-53015017D01*
X119257331Y-52994190D01*
X119267386Y-52989714D01*
X119328152Y-52958814D01*
X119361632Y-52931657D01*
X119368990Y-52906220D01*
X119351391Y-52880481D01*
X119336856Y-52869109D01*
X119284410Y-52846364D01*
X119235322Y-52850122D01*
X119194227Y-52877884D01*
X119165758Y-52927152D01*
X119156631Y-52966257D01*
X119153007Y-53006247D01*
X119065372Y-53006247D01*
X119066285Y-52962249D01*
X119073196Y-52895384D01*
X119086884Y-52846695D01*
X119109096Y-52810849D01*
X119141574Y-52782513D01*
X119155733Y-52773355D01*
X119220053Y-52749507D01*
X119290473Y-52748006D01*
X119358595Y-52766966D01*
G36*
X116308910Y-48042348D02*
X116387454Y-48042778D01*
X116444298Y-48043942D01*
X116483105Y-48046207D01*
X116507538Y-48049940D01*
X116521262Y-48055506D01*
X116527940Y-48063273D01*
X116531236Y-48073605D01*
X116531556Y-48074943D01*
X116536562Y-48099079D01*
X116545829Y-48146701D01*
X116558392Y-48212741D01*
X116573287Y-48292128D01*
X116589551Y-48379796D01*
X116590119Y-48382875D01*
X116606410Y-48468789D01*
X116621652Y-48544696D01*
X116634861Y-48606045D01*
X116645054Y-48648282D01*
X116651248Y-48666855D01*
X116651543Y-48667184D01*
X116669788Y-48676253D01*
X116707405Y-48691367D01*
X116756271Y-48709262D01*
X116756543Y-48709358D01*
X116818093Y-48732493D01*
X116890657Y-48761965D01*
X116959057Y-48791597D01*
X116962294Y-48793062D01*
X117073702Y-48843626D01*
X117320399Y-48675160D01*
X117396077Y-48623803D01*
X117464631Y-48577889D01*
X117522088Y-48540030D01*
X117564476Y-48512837D01*
X117587825Y-48498921D01*
X117590042Y-48497889D01*
X117607010Y-48502484D01*
X117638701Y-48524655D01*
X117686352Y-48565447D01*
X117751198Y-48625905D01*
X117817397Y-48690227D01*
X117881214Y-48753612D01*
X117938329Y-48811451D01*
X117985305Y-48860175D01*
X118018703Y-48896210D01*
X118035085Y-48915984D01*
X118035694Y-48917002D01*
X118037505Y-48930572D01*
X118030683Y-48952733D01*
X118013540Y-48986478D01*
X117984393Y-49034800D01*
X117941555Y-49100692D01*
X117884448Y-49185517D01*
X117833766Y-49260177D01*
X117788461Y-49327140D01*
X117751150Y-49382516D01*
X117724452Y-49422420D01*
X117710985Y-49442962D01*
X117710137Y-49444356D01*
X117711781Y-49464038D01*
X117724245Y-49502293D01*
X117745048Y-49551889D01*
X117752462Y-49567728D01*
X117784814Y-49638290D01*
X117819328Y-49718353D01*
X117847365Y-49787629D01*
X117867568Y-49839045D01*
X117883615Y-49878119D01*
X117892888Y-49898541D01*
X117894041Y-49900114D01*
X117911096Y-49902721D01*
X117951298Y-49909863D01*
X118009302Y-49920523D01*
X118079763Y-49933685D01*
X118157335Y-49948333D01*
X118236672Y-49963449D01*
X118312431Y-49978018D01*
X118379264Y-49991022D01*
X118431828Y-50001445D01*
X118464776Y-50008270D01*
X118472857Y-50010199D01*
X118481205Y-50014962D01*
X118487506Y-50025718D01*
X118492045Y-50046098D01*
X118495104Y-50079734D01*
X118496967Y-50130255D01*
X118497918Y-50201292D01*
X118498240Y-50296476D01*
X118498257Y-50335492D01*
X118498257Y-50652799D01*
X118422057Y-50667839D01*
X118379663Y-50675995D01*
X118316400Y-50687899D01*
X118239962Y-50702116D01*
X118158043Y-50717210D01*
X118135400Y-50721355D01*
X118059806Y-50736053D01*
X117993953Y-50750505D01*
X117943366Y-50763375D01*
X117913574Y-50773322D01*
X117908612Y-50776287D01*
X117896426Y-50797283D01*
X117878953Y-50837967D01*
X117859577Y-50890322D01*
X117855734Y-50901600D01*
X117830339Y-50971523D01*
X117798817Y-51050418D01*
X117767969Y-51121266D01*
X117767817Y-51121595D01*
X117716447Y-51232733D01*
X117885399Y-51481253D01*
X118054352Y-51729772D01*
X117837429Y-51947058D01*
X117771819Y-52011726D01*
X117711979Y-52068733D01*
X117661267Y-52115033D01*
X117623046Y-52147584D01*
X117600675Y-52163343D01*
X117597466Y-52164343D01*
X117578626Y-52156469D01*
X117540180Y-52134578D01*
X117486330Y-52101267D01*
X117421276Y-52059131D01*
X117350940Y-52011943D01*
X117279555Y-51963810D01*
X117215908Y-51921928D01*
X117164041Y-51888871D01*
X117127995Y-51867218D01*
X117111867Y-51859543D01*
X117092189Y-51866037D01*
X117054875Y-51883150D01*
X117007621Y-51907326D01*
X117002612Y-51910013D01*
X116938977Y-51941927D01*
X116895341Y-51957579D01*
X116868202Y-51957745D01*
X116854057Y-51943204D01*
X116853975Y-51943000D01*
X116846905Y-51925779D01*
X116830042Y-51884899D01*
X116804695Y-51823525D01*
X116772171Y-51744819D01*
X116733778Y-51651947D01*
X116690822Y-51548072D01*
X116649222Y-51447502D01*
X116603504Y-51336516D01*
X116561526Y-51233703D01*
X116524548Y-51142215D01*
X116493827Y-51065201D01*
X116470622Y-51005815D01*
X116456190Y-50967209D01*
X116451743Y-50952800D01*
X116462896Y-50936272D01*
X116492069Y-50909930D01*
X116530971Y-50880887D01*
X116641757Y-50789039D01*
X116728351Y-50683759D01*
X116789716Y-50567266D01*
X116824815Y-50441776D01*
X116832608Y-50309507D01*
X116826943Y-50248457D01*
X116796078Y-50121795D01*
X116742920Y-50009941D01*
X116670767Y-49914001D01*
X116582917Y-49835076D01*
X116482665Y-49774270D01*
X116373310Y-49732687D01*
X116258147Y-49711428D01*
X116140475Y-49711599D01*
X116023590Y-49734301D01*
X115910789Y-49780638D01*
X115805369Y-49851713D01*
X115761368Y-49891911D01*
X115676979Y-49995129D01*
X115618222Y-50107925D01*
X115584704Y-50227010D01*
X115576035Y-50349095D01*
X115591823Y-50470893D01*
X115631678Y-50589116D01*
X115695207Y-50700475D01*
X115782021Y-50801684D01*
X115879029Y-50880887D01*
X115919437Y-50911162D01*
X115947982Y-50937219D01*
X115958257Y-50952825D01*
X115952877Y-50969843D01*
X115937575Y-51010500D01*
X115913612Y-51071642D01*
X115882244Y-51150119D01*
X115844732Y-51242780D01*
X115802333Y-51346472D01*
X115760663Y-51447526D01*
X115714690Y-51558607D01*
X115672107Y-51661541D01*
X115634221Y-51753165D01*
X115602340Y-51830316D01*
X115577771Y-51889831D01*
X115561820Y-51928544D01*
X115555910Y-51943000D01*
X115541948Y-51957685D01*
X115514940Y-51957642D01*
X115471413Y-51942099D01*
X115407890Y-51910284D01*
X115407388Y-51910013D01*
X115359560Y-51885323D01*
X115320897Y-51867338D01*
X115299095Y-51859614D01*
X115298133Y-51859543D01*
X115281721Y-51867378D01*
X115245487Y-51889165D01*
X115193474Y-51922328D01*
X115129725Y-51964291D01*
X115059060Y-52011943D01*
X114987116Y-52060191D01*
X114922274Y-52102151D01*
X114868735Y-52135227D01*
X114830697Y-52156821D01*
X114812533Y-52164343D01*
X114795808Y-52154457D01*
X114762180Y-52126826D01*
X114715010Y-52084495D01*
X114657658Y-52030505D01*
X114593484Y-51967899D01*
X114572497Y-51946983D01*
X114355499Y-51729623D01*
X114520668Y-51487220D01*
X114570864Y-51412781D01*
X114614919Y-51345972D01*
X114650362Y-51290665D01*
X114674719Y-51250729D01*
X114685522Y-51230036D01*
X114685838Y-51228563D01*
X114680143Y-51209058D01*
X114664826Y-51169822D01*
X114642537Y-51117430D01*
X114626893Y-51082355D01*
X114597641Y-51015201D01*
X114570094Y-50947358D01*
X114548737Y-50890034D01*
X114542935Y-50872572D01*
X114526452Y-50825938D01*
X114510340Y-50789905D01*
X114501490Y-50776287D01*
X114481960Y-50767952D01*
X114439334Y-50756137D01*
X114379145Y-50742181D01*
X114306922Y-50727422D01*
X114274600Y-50721355D01*
X114192522Y-50706273D01*
X114113795Y-50691669D01*
X114046109Y-50678980D01*
X113997160Y-50669642D01*
X113987943Y-50667839D01*
X113911743Y-50652799D01*
X113911743Y-50335492D01*
X113911914Y-50231154D01*
X113912616Y-50152213D01*
X113914134Y-50095038D01*
X113916749Y-50055999D01*
X113920746Y-50031465D01*
X113926409Y-50017805D01*
X113934020Y-50011389D01*
X113937143Y-50010199D01*
X113955978Y-50005980D01*
X113997588Y-49997562D01*
X114056630Y-49985961D01*
X114127757Y-49972195D01*
X114205625Y-49957280D01*
X114284887Y-49942232D01*
X114360198Y-49928069D01*
X114426213Y-49915806D01*
X114477587Y-49906461D01*
X114508975Y-49901050D01*
X114515959Y-49900114D01*
X114522285Y-49887596D01*
X114536290Y-49854246D01*
X114555355Y-49806377D01*
X114562634Y-49787629D01*
X114591996Y-49715195D01*
X114626571Y-49635170D01*
X114657537Y-49567728D01*
X114680323Y-49516159D01*
X114695482Y-49473785D01*
X114700542Y-49447834D01*
X114699736Y-49444356D01*
X114689041Y-49427936D01*
X114664620Y-49391417D01*
X114629095Y-49338687D01*
X114585087Y-49273635D01*
X114535217Y-49200151D01*
X114525356Y-49185645D01*
X114467492Y-49099704D01*
X114424956Y-49034261D01*
X114396054Y-48986304D01*
X114379090Y-48952820D01*
X114372367Y-48930795D01*
X114374190Y-48917217D01*
X114374236Y-48917131D01*
X114388586Y-48899297D01*
X114420323Y-48864817D01*
X114466010Y-48817268D01*
X114522204Y-48760222D01*
X114585468Y-48697255D01*
X114592602Y-48690227D01*
X114672330Y-48613020D01*
X114733857Y-48556330D01*
X114778421Y-48519110D01*
X114807257Y-48500315D01*
X114819958Y-48497889D01*
X114838494Y-48508471D01*
X114876961Y-48532916D01*
X114931386Y-48568612D01*
X114997798Y-48612947D01*
X115072225Y-48663311D01*
X115089601Y-48675160D01*
X115336297Y-48843626D01*
X115447706Y-48793062D01*
X115515457Y-48763595D01*
X115588183Y-48733959D01*
X115650703Y-48710330D01*
X115653457Y-48709358D01*
X115702360Y-48691457D01*
X115740057Y-48676320D01*
X115758425Y-48667210D01*
X115758456Y-48667184D01*
X115764285Y-48650717D01*
X115774192Y-48610219D01*
X115787195Y-48550242D01*
X115802309Y-48475340D01*
X115818552Y-48390064D01*
X115819881Y-48382875D01*
X115836175Y-48295014D01*
X115851133Y-48215260D01*
X115863791Y-48148681D01*
X115873186Y-48100347D01*
X115878354Y-48075325D01*
X115878444Y-48074943D01*
X115881589Y-48064299D01*
X115887704Y-48056262D01*
X115900453Y-48050467D01*
X115923500Y-48046547D01*
X115960509Y-48044135D01*
X116015144Y-48042865D01*
X116091067Y-48042371D01*
X116191944Y-48042286D01*
X116205000Y-48042286D01*
X116308910Y-48042348D01*
X116308910Y-48042348D01*
G37*
X116308910Y-48042348D02*
X116387454Y-48042778D01*
X116444298Y-48043942D01*
X116483105Y-48046207D01*
X116507538Y-48049940D01*
X116521262Y-48055506D01*
X116527940Y-48063273D01*
X116531236Y-48073605D01*
X116531556Y-48074943D01*
X116536562Y-48099079D01*
X116545829Y-48146701D01*
X116558392Y-48212741D01*
X116573287Y-48292128D01*
X116589551Y-48379796D01*
X116590119Y-48382875D01*
X116606410Y-48468789D01*
X116621652Y-48544696D01*
X116634861Y-48606045D01*
X116645054Y-48648282D01*
X116651248Y-48666855D01*
X116651543Y-48667184D01*
X116669788Y-48676253D01*
X116707405Y-48691367D01*
X116756271Y-48709262D01*
X116756543Y-48709358D01*
X116818093Y-48732493D01*
X116890657Y-48761965D01*
X116959057Y-48791597D01*
X116962294Y-48793062D01*
X117073702Y-48843626D01*
X117320399Y-48675160D01*
X117396077Y-48623803D01*
X117464631Y-48577889D01*
X117522088Y-48540030D01*
X117564476Y-48512837D01*
X117587825Y-48498921D01*
X117590042Y-48497889D01*
X117607010Y-48502484D01*
X117638701Y-48524655D01*
X117686352Y-48565447D01*
X117751198Y-48625905D01*
X117817397Y-48690227D01*
X117881214Y-48753612D01*
X117938329Y-48811451D01*
X117985305Y-48860175D01*
X118018703Y-48896210D01*
X118035085Y-48915984D01*
X118035694Y-48917002D01*
X118037505Y-48930572D01*
X118030683Y-48952733D01*
X118013540Y-48986478D01*
X117984393Y-49034800D01*
X117941555Y-49100692D01*
X117884448Y-49185517D01*
X117833766Y-49260177D01*
X117788461Y-49327140D01*
X117751150Y-49382516D01*
X117724452Y-49422420D01*
X117710985Y-49442962D01*
X117710137Y-49444356D01*
X117711781Y-49464038D01*
X117724245Y-49502293D01*
X117745048Y-49551889D01*
X117752462Y-49567728D01*
X117784814Y-49638290D01*
X117819328Y-49718353D01*
X117847365Y-49787629D01*
X117867568Y-49839045D01*
X117883615Y-49878119D01*
X117892888Y-49898541D01*
X117894041Y-49900114D01*
X117911096Y-49902721D01*
X117951298Y-49909863D01*
X118009302Y-49920523D01*
X118079763Y-49933685D01*
X118157335Y-49948333D01*
X118236672Y-49963449D01*
X118312431Y-49978018D01*
X118379264Y-49991022D01*
X118431828Y-50001445D01*
X118464776Y-50008270D01*
X118472857Y-50010199D01*
X118481205Y-50014962D01*
X118487506Y-50025718D01*
X118492045Y-50046098D01*
X118495104Y-50079734D01*
X118496967Y-50130255D01*
X118497918Y-50201292D01*
X118498240Y-50296476D01*
X118498257Y-50335492D01*
X118498257Y-50652799D01*
X118422057Y-50667839D01*
X118379663Y-50675995D01*
X118316400Y-50687899D01*
X118239962Y-50702116D01*
X118158043Y-50717210D01*
X118135400Y-50721355D01*
X118059806Y-50736053D01*
X117993953Y-50750505D01*
X117943366Y-50763375D01*
X117913574Y-50773322D01*
X117908612Y-50776287D01*
X117896426Y-50797283D01*
X117878953Y-50837967D01*
X117859577Y-50890322D01*
X117855734Y-50901600D01*
X117830339Y-50971523D01*
X117798817Y-51050418D01*
X117767969Y-51121266D01*
X117767817Y-51121595D01*
X117716447Y-51232733D01*
X117885399Y-51481253D01*
X118054352Y-51729772D01*
X117837429Y-51947058D01*
X117771819Y-52011726D01*
X117711979Y-52068733D01*
X117661267Y-52115033D01*
X117623046Y-52147584D01*
X117600675Y-52163343D01*
X117597466Y-52164343D01*
X117578626Y-52156469D01*
X117540180Y-52134578D01*
X117486330Y-52101267D01*
X117421276Y-52059131D01*
X117350940Y-52011943D01*
X117279555Y-51963810D01*
X117215908Y-51921928D01*
X117164041Y-51888871D01*
X117127995Y-51867218D01*
X117111867Y-51859543D01*
X117092189Y-51866037D01*
X117054875Y-51883150D01*
X117007621Y-51907326D01*
X117002612Y-51910013D01*
X116938977Y-51941927D01*
X116895341Y-51957579D01*
X116868202Y-51957745D01*
X116854057Y-51943204D01*
X116853975Y-51943000D01*
X116846905Y-51925779D01*
X116830042Y-51884899D01*
X116804695Y-51823525D01*
X116772171Y-51744819D01*
X116733778Y-51651947D01*
X116690822Y-51548072D01*
X116649222Y-51447502D01*
X116603504Y-51336516D01*
X116561526Y-51233703D01*
X116524548Y-51142215D01*
X116493827Y-51065201D01*
X116470622Y-51005815D01*
X116456190Y-50967209D01*
X116451743Y-50952800D01*
X116462896Y-50936272D01*
X116492069Y-50909930D01*
X116530971Y-50880887D01*
X116641757Y-50789039D01*
X116728351Y-50683759D01*
X116789716Y-50567266D01*
X116824815Y-50441776D01*
X116832608Y-50309507D01*
X116826943Y-50248457D01*
X116796078Y-50121795D01*
X116742920Y-50009941D01*
X116670767Y-49914001D01*
X116582917Y-49835076D01*
X116482665Y-49774270D01*
X116373310Y-49732687D01*
X116258147Y-49711428D01*
X116140475Y-49711599D01*
X116023590Y-49734301D01*
X115910789Y-49780638D01*
X115805369Y-49851713D01*
X115761368Y-49891911D01*
X115676979Y-49995129D01*
X115618222Y-50107925D01*
X115584704Y-50227010D01*
X115576035Y-50349095D01*
X115591823Y-50470893D01*
X115631678Y-50589116D01*
X115695207Y-50700475D01*
X115782021Y-50801684D01*
X115879029Y-50880887D01*
X115919437Y-50911162D01*
X115947982Y-50937219D01*
X115958257Y-50952825D01*
X115952877Y-50969843D01*
X115937575Y-51010500D01*
X115913612Y-51071642D01*
X115882244Y-51150119D01*
X115844732Y-51242780D01*
X115802333Y-51346472D01*
X115760663Y-51447526D01*
X115714690Y-51558607D01*
X115672107Y-51661541D01*
X115634221Y-51753165D01*
X115602340Y-51830316D01*
X115577771Y-51889831D01*
X115561820Y-51928544D01*
X115555910Y-51943000D01*
X115541948Y-51957685D01*
X115514940Y-51957642D01*
X115471413Y-51942099D01*
X115407890Y-51910284D01*
X115407388Y-51910013D01*
X115359560Y-51885323D01*
X115320897Y-51867338D01*
X115299095Y-51859614D01*
X115298133Y-51859543D01*
X115281721Y-51867378D01*
X115245487Y-51889165D01*
X115193474Y-51922328D01*
X115129725Y-51964291D01*
X115059060Y-52011943D01*
X114987116Y-52060191D01*
X114922274Y-52102151D01*
X114868735Y-52135227D01*
X114830697Y-52156821D01*
X114812533Y-52164343D01*
X114795808Y-52154457D01*
X114762180Y-52126826D01*
X114715010Y-52084495D01*
X114657658Y-52030505D01*
X114593484Y-51967899D01*
X114572497Y-51946983D01*
X114355499Y-51729623D01*
X114520668Y-51487220D01*
X114570864Y-51412781D01*
X114614919Y-51345972D01*
X114650362Y-51290665D01*
X114674719Y-51250729D01*
X114685522Y-51230036D01*
X114685838Y-51228563D01*
X114680143Y-51209058D01*
X114664826Y-51169822D01*
X114642537Y-51117430D01*
X114626893Y-51082355D01*
X114597641Y-51015201D01*
X114570094Y-50947358D01*
X114548737Y-50890034D01*
X114542935Y-50872572D01*
X114526452Y-50825938D01*
X114510340Y-50789905D01*
X114501490Y-50776287D01*
X114481960Y-50767952D01*
X114439334Y-50756137D01*
X114379145Y-50742181D01*
X114306922Y-50727422D01*
X114274600Y-50721355D01*
X114192522Y-50706273D01*
X114113795Y-50691669D01*
X114046109Y-50678980D01*
X113997160Y-50669642D01*
X113987943Y-50667839D01*
X113911743Y-50652799D01*
X113911743Y-50335492D01*
X113911914Y-50231154D01*
X113912616Y-50152213D01*
X113914134Y-50095038D01*
X113916749Y-50055999D01*
X113920746Y-50031465D01*
X113926409Y-50017805D01*
X113934020Y-50011389D01*
X113937143Y-50010199D01*
X113955978Y-50005980D01*
X113997588Y-49997562D01*
X114056630Y-49985961D01*
X114127757Y-49972195D01*
X114205625Y-49957280D01*
X114284887Y-49942232D01*
X114360198Y-49928069D01*
X114426213Y-49915806D01*
X114477587Y-49906461D01*
X114508975Y-49901050D01*
X114515959Y-49900114D01*
X114522285Y-49887596D01*
X114536290Y-49854246D01*
X114555355Y-49806377D01*
X114562634Y-49787629D01*
X114591996Y-49715195D01*
X114626571Y-49635170D01*
X114657537Y-49567728D01*
X114680323Y-49516159D01*
X114695482Y-49473785D01*
X114700542Y-49447834D01*
X114699736Y-49444356D01*
X114689041Y-49427936D01*
X114664620Y-49391417D01*
X114629095Y-49338687D01*
X114585087Y-49273635D01*
X114535217Y-49200151D01*
X114525356Y-49185645D01*
X114467492Y-49099704D01*
X114424956Y-49034261D01*
X114396054Y-48986304D01*
X114379090Y-48952820D01*
X114372367Y-48930795D01*
X114374190Y-48917217D01*
X114374236Y-48917131D01*
X114388586Y-48899297D01*
X114420323Y-48864817D01*
X114466010Y-48817268D01*
X114522204Y-48760222D01*
X114585468Y-48697255D01*
X114592602Y-48690227D01*
X114672330Y-48613020D01*
X114733857Y-48556330D01*
X114778421Y-48519110D01*
X114807257Y-48500315D01*
X114819958Y-48497889D01*
X114838494Y-48508471D01*
X114876961Y-48532916D01*
X114931386Y-48568612D01*
X114997798Y-48612947D01*
X115072225Y-48663311D01*
X115089601Y-48675160D01*
X115336297Y-48843626D01*
X115447706Y-48793062D01*
X115515457Y-48763595D01*
X115588183Y-48733959D01*
X115650703Y-48710330D01*
X115653457Y-48709358D01*
X115702360Y-48691457D01*
X115740057Y-48676320D01*
X115758425Y-48667210D01*
X115758456Y-48667184D01*
X115764285Y-48650717D01*
X115774192Y-48610219D01*
X115787195Y-48550242D01*
X115802309Y-48475340D01*
X115818552Y-48390064D01*
X115819881Y-48382875D01*
X115836175Y-48295014D01*
X115851133Y-48215260D01*
X115863791Y-48148681D01*
X115873186Y-48100347D01*
X115878354Y-48075325D01*
X115878444Y-48074943D01*
X115881589Y-48064299D01*
X115887704Y-48056262D01*
X115900453Y-48050467D01*
X115923500Y-48046547D01*
X115960509Y-48044135D01*
X116015144Y-48042865D01*
X116091067Y-48042371D01*
X116191944Y-48042286D01*
X116205000Y-48042286D01*
X116308910Y-48042348D01*
D13*
X121515143Y-65920857D02*
X121562762Y-65968476D01*
X121610381Y-66111333D01*
X121610381Y-66206571D01*
X121562762Y-66349429D01*
X121467524Y-66444667D01*
X121372286Y-66492286D01*
X121181810Y-66539905D01*
X121038952Y-66539905D01*
X120848476Y-66492286D01*
X120753238Y-66444667D01*
X120658000Y-66349429D01*
X120610381Y-66206571D01*
X120610381Y-66111333D01*
X120658000Y-65968476D01*
X120705619Y-65920857D01*
X121610381Y-64968476D02*
X121610381Y-65539905D01*
X121610381Y-65254191D02*
X120610381Y-65254191D01*
X120753238Y-65349429D01*
X120848476Y-65444667D01*
X120896095Y-65539905D01*
X121610381Y-64016095D02*
X121610381Y-64587524D01*
X121610381Y-64301810D02*
X120610381Y-64301810D01*
X120753238Y-64397048D01*
X120848476Y-64492286D01*
X120896095Y-64587524D01*
X107188095Y-60412381D02*
X107188095Y-61221905D01*
X107235714Y-61317143D01*
X107283333Y-61364762D01*
X107378571Y-61412381D01*
X107569048Y-61412381D01*
X107664286Y-61364762D01*
X107711905Y-61317143D01*
X107759524Y-61221905D01*
X107759524Y-60412381D01*
X108188095Y-60507619D02*
X108235714Y-60460000D01*
X108330952Y-60412381D01*
X108569048Y-60412381D01*
X108664286Y-60460000D01*
X108711905Y-60507619D01*
X108759524Y-60602857D01*
X108759524Y-60698095D01*
X108711905Y-60840952D01*
X108140476Y-61412381D01*
X108759524Y-61412381D01*
X103338334Y-28297143D02*
X103290715Y-28344762D01*
X103147858Y-28392381D01*
X103052620Y-28392381D01*
X102909762Y-28344762D01*
X102814524Y-28249524D01*
X102766905Y-28154286D01*
X102719286Y-27963810D01*
X102719286Y-27820952D01*
X102766905Y-27630476D01*
X102814524Y-27535238D01*
X102909762Y-27440000D01*
X103052620Y-27392381D01*
X103147858Y-27392381D01*
X103290715Y-27440000D01*
X103338334Y-27487619D01*
X104195477Y-27725714D02*
X104195477Y-28392381D01*
X103957381Y-27344762D02*
X103719286Y-28059048D01*
X104338334Y-28059048D01*
X117451143Y-63412666D02*
X117498762Y-63460285D01*
X117546381Y-63603142D01*
X117546381Y-63698380D01*
X117498762Y-63841238D01*
X117403524Y-63936476D01*
X117308286Y-63984095D01*
X117117810Y-64031714D01*
X116974952Y-64031714D01*
X116784476Y-63984095D01*
X116689238Y-63936476D01*
X116594000Y-63841238D01*
X116546381Y-63698380D01*
X116546381Y-63603142D01*
X116594000Y-63460285D01*
X116641619Y-63412666D01*
X116546381Y-62507904D02*
X116546381Y-62984095D01*
X117022571Y-63031714D01*
X116974952Y-62984095D01*
X116927333Y-62888857D01*
X116927333Y-62650761D01*
X116974952Y-62555523D01*
X117022571Y-62507904D01*
X117117810Y-62460285D01*
X117355905Y-62460285D01*
X117451143Y-62507904D01*
X117498762Y-62555523D01*
X117546381Y-62650761D01*
X117546381Y-62888857D01*
X117498762Y-62984095D01*
X117451143Y-63031714D01*
X102957334Y-52427143D02*
X102909715Y-52474762D01*
X102766858Y-52522381D01*
X102671620Y-52522381D01*
X102528762Y-52474762D01*
X102433524Y-52379524D01*
X102385905Y-52284286D01*
X102338286Y-52093810D01*
X102338286Y-51950952D01*
X102385905Y-51760476D01*
X102433524Y-51665238D01*
X102528762Y-51570000D01*
X102671620Y-51522381D01*
X102766858Y-51522381D01*
X102909715Y-51570000D01*
X102957334Y-51617619D01*
X103814477Y-51522381D02*
X103624000Y-51522381D01*
X103528762Y-51570000D01*
X103481143Y-51617619D01*
X103385905Y-51760476D01*
X103338286Y-51950952D01*
X103338286Y-52331905D01*
X103385905Y-52427143D01*
X103433524Y-52474762D01*
X103528762Y-52522381D01*
X103719239Y-52522381D01*
X103814477Y-52474762D01*
X103862096Y-52427143D01*
X103909715Y-52331905D01*
X103909715Y-52093810D01*
X103862096Y-51998571D01*
X103814477Y-51950952D01*
X103719239Y-51903333D01*
X103528762Y-51903333D01*
X103433524Y-51950952D01*
X103385905Y-51998571D01*
X103338286Y-52093810D01*
X74287143Y-65127143D02*
X74239524Y-65174762D01*
X74096667Y-65222381D01*
X74001429Y-65222381D01*
X73858571Y-65174762D01*
X73763333Y-65079524D01*
X73715714Y-64984286D01*
X73668095Y-64793810D01*
X73668095Y-64650952D01*
X73715714Y-64460476D01*
X73763333Y-64365238D01*
X73858571Y-64270000D01*
X74001429Y-64222381D01*
X74096667Y-64222381D01*
X74239524Y-64270000D01*
X74287143Y-64317619D01*
X75239524Y-65222381D02*
X74668095Y-65222381D01*
X74953809Y-65222381D02*
X74953809Y-64222381D01*
X74858571Y-64365238D01*
X74763333Y-64460476D01*
X74668095Y-64508095D01*
X75572857Y-64222381D02*
X76239524Y-64222381D01*
X75810952Y-65222381D01*
X91432143Y-34647143D02*
X91384524Y-34694762D01*
X91241667Y-34742381D01*
X91146429Y-34742381D01*
X91003571Y-34694762D01*
X90908333Y-34599524D01*
X90860714Y-34504286D01*
X90813095Y-34313810D01*
X90813095Y-34170952D01*
X90860714Y-33980476D01*
X90908333Y-33885238D01*
X91003571Y-33790000D01*
X91146429Y-33742381D01*
X91241667Y-33742381D01*
X91384524Y-33790000D01*
X91432143Y-33837619D01*
X92384524Y-34742381D02*
X91813095Y-34742381D01*
X92098809Y-34742381D02*
X92098809Y-33742381D01*
X92003571Y-33885238D01*
X91908333Y-33980476D01*
X91813095Y-34028095D01*
X92955952Y-34170952D02*
X92860714Y-34123333D01*
X92813095Y-34075714D01*
X92765476Y-33980476D01*
X92765476Y-33932857D01*
X92813095Y-33837619D01*
X92860714Y-33790000D01*
X92955952Y-33742381D01*
X93146429Y-33742381D01*
X93241667Y-33790000D01*
X93289286Y-33837619D01*
X93336905Y-33932857D01*
X93336905Y-33980476D01*
X93289286Y-34075714D01*
X93241667Y-34123333D01*
X93146429Y-34170952D01*
X92955952Y-34170952D01*
X92860714Y-34218571D01*
X92813095Y-34266190D01*
X92765476Y-34361429D01*
X92765476Y-34551905D01*
X92813095Y-34647143D01*
X92860714Y-34694762D01*
X92955952Y-34742381D01*
X93146429Y-34742381D01*
X93241667Y-34694762D01*
X93289286Y-34647143D01*
X93336905Y-34551905D01*
X93336905Y-34361429D01*
X93289286Y-34266190D01*
X93241667Y-34218571D01*
X93146429Y-34170952D01*
X91432143Y-65127143D02*
X91384524Y-65174762D01*
X91241667Y-65222381D01*
X91146429Y-65222381D01*
X91003571Y-65174762D01*
X90908333Y-65079524D01*
X90860714Y-64984286D01*
X90813095Y-64793810D01*
X90813095Y-64650952D01*
X90860714Y-64460476D01*
X90908333Y-64365238D01*
X91003571Y-64270000D01*
X91146429Y-64222381D01*
X91241667Y-64222381D01*
X91384524Y-64270000D01*
X91432143Y-64317619D01*
X92384524Y-65222381D02*
X91813095Y-65222381D01*
X92098809Y-65222381D02*
X92098809Y-64222381D01*
X92003571Y-64365238D01*
X91908333Y-64460476D01*
X91813095Y-64508095D01*
X92860714Y-65222381D02*
X93051190Y-65222381D01*
X93146429Y-65174762D01*
X93194048Y-65127143D01*
X93289286Y-64984286D01*
X93336905Y-64793810D01*
X93336905Y-64412857D01*
X93289286Y-64317619D01*
X93241667Y-64270000D01*
X93146429Y-64222381D01*
X92955952Y-64222381D01*
X92860714Y-64270000D01*
X92813095Y-64317619D01*
X92765476Y-64412857D01*
X92765476Y-64650952D01*
X92813095Y-64746190D01*
X92860714Y-64793810D01*
X92955952Y-64841429D01*
X93146429Y-64841429D01*
X93241667Y-64793810D01*
X93289286Y-64746190D01*
X93336905Y-64650952D01*
X74287143Y-34647143D02*
X74239524Y-34694762D01*
X74096667Y-34742381D01*
X74001429Y-34742381D01*
X73858571Y-34694762D01*
X73763333Y-34599524D01*
X73715714Y-34504286D01*
X73668095Y-34313810D01*
X73668095Y-34170952D01*
X73715714Y-33980476D01*
X73763333Y-33885238D01*
X73858571Y-33790000D01*
X74001429Y-33742381D01*
X74096667Y-33742381D01*
X74239524Y-33790000D01*
X74287143Y-33837619D01*
X74668095Y-33837619D02*
X74715714Y-33790000D01*
X74810952Y-33742381D01*
X75049048Y-33742381D01*
X75144286Y-33790000D01*
X75191905Y-33837619D01*
X75239524Y-33932857D01*
X75239524Y-34028095D01*
X75191905Y-34170952D01*
X74620476Y-34742381D01*
X75239524Y-34742381D01*
X75858571Y-33742381D02*
X75953810Y-33742381D01*
X76049048Y-33790000D01*
X76096667Y-33837619D01*
X76144286Y-33932857D01*
X76191905Y-34123333D01*
X76191905Y-34361429D01*
X76144286Y-34551905D01*
X76096667Y-34647143D01*
X76049048Y-34694762D01*
X75953810Y-34742381D01*
X75858571Y-34742381D01*
X75763333Y-34694762D01*
X75715714Y-34647143D01*
X75668095Y-34551905D01*
X75620476Y-34361429D01*
X75620476Y-34123333D01*
X75668095Y-33932857D01*
X75715714Y-33837619D01*
X75763333Y-33790000D01*
X75858571Y-33742381D01*
X97363599Y-54657497D02*
X97411218Y-54705116D01*
X97458837Y-54847973D01*
X97458837Y-54943211D01*
X97411218Y-55086069D01*
X97315980Y-55181307D01*
X97220742Y-55228926D01*
X97030266Y-55276545D01*
X96887408Y-55276545D01*
X96696932Y-55228926D01*
X96601694Y-55181307D01*
X96506456Y-55086069D01*
X96458837Y-54943211D01*
X96458837Y-54847973D01*
X96506456Y-54705116D01*
X96554075Y-54657497D01*
X96554075Y-54276545D02*
X96506456Y-54228926D01*
X96458837Y-54133688D01*
X96458837Y-53895592D01*
X96506456Y-53800354D01*
X96554075Y-53752735D01*
X96649313Y-53705116D01*
X96744551Y-53705116D01*
X96887408Y-53752735D01*
X97458837Y-54324164D01*
X97458837Y-53705116D01*
X97458837Y-52752735D02*
X97458837Y-53324164D01*
X97458837Y-53038450D02*
X96458837Y-53038450D01*
X96601694Y-53133688D01*
X96696932Y-53228926D01*
X96744551Y-53324164D01*
X97363599Y-48053497D02*
X97411218Y-48101116D01*
X97458837Y-48243973D01*
X97458837Y-48339211D01*
X97411218Y-48482069D01*
X97315980Y-48577307D01*
X97220742Y-48624926D01*
X97030266Y-48672545D01*
X96887408Y-48672545D01*
X96696932Y-48624926D01*
X96601694Y-48577307D01*
X96506456Y-48482069D01*
X96458837Y-48339211D01*
X96458837Y-48243973D01*
X96506456Y-48101116D01*
X96554075Y-48053497D01*
X96554075Y-47672545D02*
X96506456Y-47624926D01*
X96458837Y-47529688D01*
X96458837Y-47291592D01*
X96506456Y-47196354D01*
X96554075Y-47148735D01*
X96649313Y-47101116D01*
X96744551Y-47101116D01*
X96887408Y-47148735D01*
X97458837Y-47720164D01*
X97458837Y-47101116D01*
X96554075Y-46720164D02*
X96506456Y-46672545D01*
X96458837Y-46577307D01*
X96458837Y-46339211D01*
X96506456Y-46243973D01*
X96554075Y-46196354D01*
X96649313Y-46148735D01*
X96744551Y-46148735D01*
X96887408Y-46196354D01*
X97458837Y-46767783D01*
X97458837Y-46148735D01*
X110069334Y-28646381D02*
X109736000Y-28170190D01*
X109497905Y-28646381D02*
X109497905Y-27646381D01*
X109878858Y-27646381D01*
X109974096Y-27694000D01*
X110021715Y-27741619D01*
X110069334Y-27836857D01*
X110069334Y-27979714D01*
X110021715Y-28074952D01*
X109974096Y-28122571D01*
X109878858Y-28170190D01*
X109497905Y-28170190D01*
X111021715Y-28646381D02*
X110450286Y-28646381D01*
X110736000Y-28646381D02*
X110736000Y-27646381D01*
X110640762Y-27789238D01*
X110545524Y-27884476D01*
X110450286Y-27932095D01*
X105497334Y-49474381D02*
X105164000Y-48998190D01*
X104925905Y-49474381D02*
X104925905Y-48474381D01*
X105306858Y-48474381D01*
X105402096Y-48522000D01*
X105449715Y-48569619D01*
X105497334Y-48664857D01*
X105497334Y-48807714D01*
X105449715Y-48902952D01*
X105402096Y-48950571D01*
X105306858Y-48998190D01*
X104925905Y-48998190D01*
X105878286Y-48569619D02*
X105925905Y-48522000D01*
X106021143Y-48474381D01*
X106259239Y-48474381D01*
X106354477Y-48522000D01*
X106402096Y-48569619D01*
X106449715Y-48664857D01*
X106449715Y-48760095D01*
X106402096Y-48902952D01*
X105830667Y-49474381D01*
X106449715Y-49474381D01*
X110069334Y-52522381D02*
X109736000Y-52046190D01*
X109497905Y-52522381D02*
X109497905Y-51522381D01*
X109878858Y-51522381D01*
X109974096Y-51570000D01*
X110021715Y-51617619D01*
X110069334Y-51712857D01*
X110069334Y-51855714D01*
X110021715Y-51950952D01*
X109974096Y-51998571D01*
X109878858Y-52046190D01*
X109497905Y-52046190D01*
X110402667Y-51522381D02*
X111021715Y-51522381D01*
X110688381Y-51903333D01*
X110831239Y-51903333D01*
X110926477Y-51950952D01*
X110974096Y-51998571D01*
X111021715Y-52093810D01*
X111021715Y-52331905D01*
X110974096Y-52427143D01*
X110926477Y-52474762D01*
X110831239Y-52522381D01*
X110545524Y-52522381D01*
X110450286Y-52474762D01*
X110402667Y-52427143D01*
X105243334Y-74112381D02*
X104910000Y-73636190D01*
X104671905Y-74112381D02*
X104671905Y-73112381D01*
X105052858Y-73112381D01*
X105148096Y-73160000D01*
X105195715Y-73207619D01*
X105243334Y-73302857D01*
X105243334Y-73445714D01*
X105195715Y-73540952D01*
X105148096Y-73588571D01*
X105052858Y-73636190D01*
X104671905Y-73636190D01*
X106100477Y-73445714D02*
X106100477Y-74112381D01*
X105862381Y-73064762D02*
X105624286Y-73779048D01*
X106243334Y-73779048D01*
X110069334Y-49474381D02*
X109736000Y-48998190D01*
X109497905Y-49474381D02*
X109497905Y-48474381D01*
X109878858Y-48474381D01*
X109974096Y-48522000D01*
X110021715Y-48569619D01*
X110069334Y-48664857D01*
X110069334Y-48807714D01*
X110021715Y-48902952D01*
X109974096Y-48950571D01*
X109878858Y-48998190D01*
X109497905Y-48998190D01*
X110974096Y-48474381D02*
X110497905Y-48474381D01*
X110450286Y-48950571D01*
X110497905Y-48902952D01*
X110593143Y-48855333D01*
X110831239Y-48855333D01*
X110926477Y-48902952D01*
X110974096Y-48950571D01*
X111021715Y-49045810D01*
X111021715Y-49283905D01*
X110974096Y-49379143D01*
X110926477Y-49426762D01*
X110831239Y-49474381D01*
X110593143Y-49474381D01*
X110497905Y-49426762D01*
X110450286Y-49379143D01*
X110069334Y-74112381D02*
X109736000Y-73636190D01*
X109497905Y-74112381D02*
X109497905Y-73112381D01*
X109878858Y-73112381D01*
X109974096Y-73160000D01*
X110021715Y-73207619D01*
X110069334Y-73302857D01*
X110069334Y-73445714D01*
X110021715Y-73540952D01*
X109974096Y-73588571D01*
X109878858Y-73636190D01*
X109497905Y-73636190D01*
X110926477Y-73112381D02*
X110736000Y-73112381D01*
X110640762Y-73160000D01*
X110593143Y-73207619D01*
X110497905Y-73350476D01*
X110450286Y-73540952D01*
X110450286Y-73921905D01*
X110497905Y-74017143D01*
X110545524Y-74064762D01*
X110640762Y-74112381D01*
X110831239Y-74112381D01*
X110926477Y-74064762D01*
X110974096Y-74017143D01*
X111021715Y-73921905D01*
X111021715Y-73683810D01*
X110974096Y-73588571D01*
X110926477Y-73540952D01*
X110831239Y-73493333D01*
X110640762Y-73493333D01*
X110545524Y-73540952D01*
X110497905Y-73588571D01*
X110450286Y-73683810D01*
X110069334Y-45918381D02*
X109736000Y-45442190D01*
X109497905Y-45918381D02*
X109497905Y-44918381D01*
X109878858Y-44918381D01*
X109974096Y-44966000D01*
X110021715Y-45013619D01*
X110069334Y-45108857D01*
X110069334Y-45251714D01*
X110021715Y-45346952D01*
X109974096Y-45394571D01*
X109878858Y-45442190D01*
X109497905Y-45442190D01*
X110402667Y-44918381D02*
X111069334Y-44918381D01*
X110640762Y-45918381D01*
X110069334Y-70302381D02*
X109736000Y-69826190D01*
X109497905Y-70302381D02*
X109497905Y-69302381D01*
X109878858Y-69302381D01*
X109974096Y-69350000D01*
X110021715Y-69397619D01*
X110069334Y-69492857D01*
X110069334Y-69635714D01*
X110021715Y-69730952D01*
X109974096Y-69778571D01*
X109878858Y-69826190D01*
X109497905Y-69826190D01*
X110640762Y-69730952D02*
X110545524Y-69683333D01*
X110497905Y-69635714D01*
X110450286Y-69540476D01*
X110450286Y-69492857D01*
X110497905Y-69397619D01*
X110545524Y-69350000D01*
X110640762Y-69302381D01*
X110831239Y-69302381D01*
X110926477Y-69350000D01*
X110974096Y-69397619D01*
X111021715Y-69492857D01*
X111021715Y-69540476D01*
X110974096Y-69635714D01*
X110926477Y-69683333D01*
X110831239Y-69730952D01*
X110640762Y-69730952D01*
X110545524Y-69778571D01*
X110497905Y-69826190D01*
X110450286Y-69921429D01*
X110450286Y-70111905D01*
X110497905Y-70207143D01*
X110545524Y-70254762D01*
X110640762Y-70302381D01*
X110831239Y-70302381D01*
X110926477Y-70254762D01*
X110974096Y-70207143D01*
X111021715Y-70111905D01*
X111021715Y-69921429D01*
X110974096Y-69826190D01*
X110926477Y-69778571D01*
X110831239Y-69730952D01*
X113625334Y-45918381D02*
X113292000Y-45442190D01*
X113053905Y-45918381D02*
X113053905Y-44918381D01*
X113434858Y-44918381D01*
X113530096Y-44966000D01*
X113577715Y-45013619D01*
X113625334Y-45108857D01*
X113625334Y-45251714D01*
X113577715Y-45346952D01*
X113530096Y-45394571D01*
X113434858Y-45442190D01*
X113053905Y-45442190D01*
X114101524Y-45918381D02*
X114292000Y-45918381D01*
X114387239Y-45870762D01*
X114434858Y-45823143D01*
X114530096Y-45680286D01*
X114577715Y-45489810D01*
X114577715Y-45108857D01*
X114530096Y-45013619D01*
X114482477Y-44966000D01*
X114387239Y-44918381D01*
X114196762Y-44918381D01*
X114101524Y-44966000D01*
X114053905Y-45013619D01*
X114006286Y-45108857D01*
X114006286Y-45346952D01*
X114053905Y-45442190D01*
X114101524Y-45489810D01*
X114196762Y-45537429D01*
X114387239Y-45537429D01*
X114482477Y-45489810D01*
X114530096Y-45442190D01*
X114577715Y-45346952D01*
X113149143Y-70302381D02*
X112815809Y-69826190D01*
X112577714Y-70302381D02*
X112577714Y-69302381D01*
X112958667Y-69302381D01*
X113053905Y-69350000D01*
X113101524Y-69397619D01*
X113149143Y-69492857D01*
X113149143Y-69635714D01*
X113101524Y-69730952D01*
X113053905Y-69778571D01*
X112958667Y-69826190D01*
X112577714Y-69826190D01*
X114101524Y-70302381D02*
X113530095Y-70302381D01*
X113815809Y-70302381D02*
X113815809Y-69302381D01*
X113720571Y-69445238D01*
X113625333Y-69540476D01*
X113530095Y-69588095D01*
X114720571Y-69302381D02*
X114815810Y-69302381D01*
X114911048Y-69350000D01*
X114958667Y-69397619D01*
X115006286Y-69492857D01*
X115053905Y-69683333D01*
X115053905Y-69921429D01*
X115006286Y-70111905D01*
X114958667Y-70207143D01*
X114911048Y-70254762D01*
X114815810Y-70302381D01*
X114720571Y-70302381D01*
X114625333Y-70254762D01*
X114577714Y-70207143D01*
X114530095Y-70111905D01*
X114482476Y-69921429D01*
X114482476Y-69683333D01*
X114530095Y-69492857D01*
X114577714Y-69397619D01*
X114625333Y-69350000D01*
X114720571Y-69302381D01*
X125807381Y-43306905D02*
X126616905Y-43306905D01*
X126712143Y-43259286D01*
X126759762Y-43211667D01*
X126807381Y-43116429D01*
X126807381Y-42925952D01*
X126759762Y-42830714D01*
X126712143Y-42783095D01*
X126616905Y-42735476D01*
X125807381Y-42735476D01*
X125807381Y-42354524D02*
X125807381Y-41735476D01*
X126188333Y-42068810D01*
X126188333Y-41925952D01*
X126235952Y-41830714D01*
X126283571Y-41783095D01*
X126378810Y-41735476D01*
X126616905Y-41735476D01*
X126712143Y-41783095D01*
X126759762Y-41830714D01*
X126807381Y-41925952D01*
X126807381Y-42211667D01*
X126759762Y-42306905D01*
X126712143Y-42354524D01*
X125817381Y-59816905D02*
X126626905Y-59816905D01*
X126722143Y-59769286D01*
X126769762Y-59721667D01*
X126817381Y-59626429D01*
X126817381Y-59435952D01*
X126769762Y-59340714D01*
X126722143Y-59293095D01*
X126626905Y-59245476D01*
X125817381Y-59245476D01*
X126150714Y-58340714D02*
X126817381Y-58340714D01*
X125769762Y-58578810D02*
X126484048Y-58816905D01*
X126484048Y-58197857D01*
X85598095Y-57237381D02*
X85598095Y-58046905D01*
X85645714Y-58142143D01*
X85693333Y-58189762D01*
X85788571Y-58237381D01*
X85979048Y-58237381D01*
X86074286Y-58189762D01*
X86121905Y-58142143D01*
X86169524Y-58046905D01*
X86169524Y-57237381D01*
X87121905Y-57237381D02*
X86645714Y-57237381D01*
X86598095Y-57713571D01*
X86645714Y-57665952D01*
X86740952Y-57618333D01*
X86979048Y-57618333D01*
X87074286Y-57665952D01*
X87121905Y-57713571D01*
X87169524Y-57808810D01*
X87169524Y-58046905D01*
X87121905Y-58142143D01*
X87074286Y-58189762D01*
X86979048Y-58237381D01*
X86740952Y-58237381D01*
X86645714Y-58189762D01*
X86598095Y-58142143D01*
X85598095Y-43267381D02*
X85598095Y-44076905D01*
X85645714Y-44172143D01*
X85693333Y-44219762D01*
X85788571Y-44267381D01*
X85979048Y-44267381D01*
X86074286Y-44219762D01*
X86121905Y-44172143D01*
X86169524Y-44076905D01*
X86169524Y-43267381D01*
X87074286Y-43267381D02*
X86883809Y-43267381D01*
X86788571Y-43315000D01*
X86740952Y-43362619D01*
X86645714Y-43505476D01*
X86598095Y-43695952D01*
X86598095Y-44076905D01*
X86645714Y-44172143D01*
X86693333Y-44219762D01*
X86788571Y-44267381D01*
X86979048Y-44267381D01*
X87074286Y-44219762D01*
X87121905Y-44172143D01*
X87169524Y-44076905D01*
X87169524Y-43838810D01*
X87121905Y-43743571D01*
X87074286Y-43695952D01*
X86979048Y-43648333D01*
X86788571Y-43648333D01*
X86693333Y-43695952D01*
X86645714Y-43743571D01*
X86598095Y-43838810D01*
X59126381Y-51538095D02*
X58126381Y-51538095D01*
X58126381Y-51157142D01*
X58174000Y-51061904D01*
X58221619Y-51014285D01*
X58316857Y-50966666D01*
X58459714Y-50966666D01*
X58554952Y-51014285D01*
X58602571Y-51061904D01*
X58650190Y-51157142D01*
X58650190Y-51538095D01*
X59126381Y-50014285D02*
X59126381Y-50585714D01*
X59126381Y-50300000D02*
X58126381Y-50300000D01*
X58269238Y-50395238D01*
X58364476Y-50490476D01*
X58412095Y-50585714D01*
X107188095Y-36282381D02*
X107188095Y-37091905D01*
X107235714Y-37187143D01*
X107283333Y-37234762D01*
X107378571Y-37282381D01*
X107569048Y-37282381D01*
X107664286Y-37234762D01*
X107711905Y-37187143D01*
X107759524Y-37091905D01*
X107759524Y-36282381D01*
X108759524Y-37282381D02*
X108188095Y-37282381D01*
X108473809Y-37282381D02*
X108473809Y-36282381D01*
X108378571Y-36425238D01*
X108283333Y-36520476D01*
X108188095Y-36568095D01*
X69032381Y-45188095D02*
X68032381Y-45188095D01*
X68032381Y-44950000D01*
X68080000Y-44807142D01*
X68175238Y-44711904D01*
X68270476Y-44664285D01*
X68460952Y-44616666D01*
X68603810Y-44616666D01*
X68794286Y-44664285D01*
X68889524Y-44711904D01*
X68984762Y-44807142D01*
X69032381Y-44950000D01*
X69032381Y-45188095D01*
X68032381Y-44283333D02*
X68032381Y-43664285D01*
X68413333Y-43997619D01*
X68413333Y-43854761D01*
X68460952Y-43759523D01*
X68508571Y-43711904D01*
X68603810Y-43664285D01*
X68841905Y-43664285D01*
X68937143Y-43711904D01*
X68984762Y-43759523D01*
X69032381Y-43854761D01*
X69032381Y-44140476D01*
X68984762Y-44235714D01*
X68937143Y-44283333D01*
X69000566Y-57281660D02*
X68000566Y-57281660D01*
X68000566Y-57043565D01*
X68048185Y-56900707D01*
X68143423Y-56805469D01*
X68238661Y-56757850D01*
X68429137Y-56710231D01*
X68571995Y-56710231D01*
X68762471Y-56757850D01*
X68857709Y-56805469D01*
X68952947Y-56900707D01*
X69000566Y-57043565D01*
X69000566Y-57281660D01*
X68333899Y-55853088D02*
X69000566Y-55853088D01*
X67952947Y-56091184D02*
X68667233Y-56329279D01*
X68667233Y-55710231D01*
X76731905Y-46172381D02*
X76731905Y-45172381D01*
X76970000Y-45172381D01*
X77112858Y-45220000D01*
X77208096Y-45315238D01*
X77255715Y-45410476D01*
X77303334Y-45600952D01*
X77303334Y-45743810D01*
X77255715Y-45934286D01*
X77208096Y-46029524D01*
X77112858Y-46124762D01*
X76970000Y-46172381D01*
X76731905Y-46172381D01*
X78255715Y-46172381D02*
X77684286Y-46172381D01*
X77970000Y-46172381D02*
X77970000Y-45172381D01*
X77874762Y-45315238D01*
X77779524Y-45410476D01*
X77684286Y-45458095D01*
X76731905Y-56332381D02*
X76731905Y-55332381D01*
X76970000Y-55332381D01*
X77112858Y-55380000D01*
X77208096Y-55475238D01*
X77255715Y-55570476D01*
X77303334Y-55760952D01*
X77303334Y-55903810D01*
X77255715Y-56094286D01*
X77208096Y-56189524D01*
X77112858Y-56284762D01*
X76970000Y-56332381D01*
X76731905Y-56332381D01*
X77684286Y-55427619D02*
X77731905Y-55380000D01*
X77827143Y-55332381D01*
X78065239Y-55332381D01*
X78160477Y-55380000D01*
X78208096Y-55427619D01*
X78255715Y-55522857D01*
X78255715Y-55618095D01*
X78208096Y-55760952D01*
X77636667Y-56332381D01*
X78255715Y-56332381D01*
X117451143Y-39282666D02*
X117498762Y-39330285D01*
X117546381Y-39473142D01*
X117546381Y-39568380D01*
X117498762Y-39711238D01*
X117403524Y-39806476D01*
X117308286Y-39854095D01*
X117117810Y-39901714D01*
X116974952Y-39901714D01*
X116784476Y-39854095D01*
X116689238Y-39806476D01*
X116594000Y-39711238D01*
X116546381Y-39568380D01*
X116546381Y-39473142D01*
X116594000Y-39330285D01*
X116641619Y-39282666D01*
X116546381Y-38949333D02*
X116546381Y-38330285D01*
X116927333Y-38663619D01*
X116927333Y-38520761D01*
X116974952Y-38425523D01*
X117022571Y-38377904D01*
X117117810Y-38330285D01*
X117355905Y-38330285D01*
X117451143Y-38377904D01*
X117498762Y-38425523D01*
X117546381Y-38520761D01*
X117546381Y-38806476D01*
X117498762Y-38901714D01*
X117451143Y-38949333D01*
X121769143Y-48934666D02*
X121816762Y-48982285D01*
X121864381Y-49125142D01*
X121864381Y-49220380D01*
X121816762Y-49363238D01*
X121721524Y-49458476D01*
X121626286Y-49506095D01*
X121435810Y-49553714D01*
X121292952Y-49553714D01*
X121102476Y-49506095D01*
X121007238Y-49458476D01*
X120912000Y-49363238D01*
X120864381Y-49220380D01*
X120864381Y-49125142D01*
X120912000Y-48982285D01*
X120959619Y-48934666D01*
X121864381Y-48458476D02*
X121864381Y-48268000D01*
X121816762Y-48172761D01*
X121769143Y-48125142D01*
X121626286Y-48029904D01*
X121435810Y-47982285D01*
X121054857Y-47982285D01*
X120959619Y-48029904D01*
X120912000Y-48077523D01*
X120864381Y-48172761D01*
X120864381Y-48363238D01*
X120912000Y-48458476D01*
X120959619Y-48506095D01*
X121054857Y-48553714D01*
X121292952Y-48553714D01*
X121388190Y-48506095D01*
X121435810Y-48458476D01*
X121483429Y-48363238D01*
X121483429Y-48172761D01*
X121435810Y-48077523D01*
X121388190Y-48029904D01*
X121292952Y-47982285D01*
X121769143Y-36964857D02*
X121816762Y-37012476D01*
X121864381Y-37155333D01*
X121864381Y-37250571D01*
X121816762Y-37393429D01*
X121721524Y-37488667D01*
X121626286Y-37536286D01*
X121435810Y-37583905D01*
X121292952Y-37583905D01*
X121102476Y-37536286D01*
X121007238Y-37488667D01*
X120912000Y-37393429D01*
X120864381Y-37250571D01*
X120864381Y-37155333D01*
X120912000Y-37012476D01*
X120959619Y-36964857D01*
X121864381Y-36012476D02*
X121864381Y-36583905D01*
X121864381Y-36298191D02*
X120864381Y-36298191D01*
X121007238Y-36393429D01*
X121102476Y-36488667D01*
X121150095Y-36583905D01*
X120864381Y-35393429D02*
X120864381Y-35298190D01*
X120912000Y-35202952D01*
X120959619Y-35155333D01*
X121054857Y-35107714D01*
X121245333Y-35060095D01*
X121483429Y-35060095D01*
X121673905Y-35107714D01*
X121769143Y-35155333D01*
X121816762Y-35202952D01*
X121864381Y-35298190D01*
X121864381Y-35393429D01*
X121816762Y-35488667D01*
X121769143Y-35536286D01*
X121673905Y-35583905D01*
X121483429Y-35631524D01*
X121245333Y-35631524D01*
X121054857Y-35583905D01*
X120959619Y-35536286D01*
X120912000Y-35488667D01*
X120864381Y-35393429D01*
X121769143Y-53474857D02*
X121816762Y-53522476D01*
X121864381Y-53665333D01*
X121864381Y-53760571D01*
X121816762Y-53903429D01*
X121721524Y-53998667D01*
X121626286Y-54046286D01*
X121435810Y-54093905D01*
X121292952Y-54093905D01*
X121102476Y-54046286D01*
X121007238Y-53998667D01*
X120912000Y-53903429D01*
X120864381Y-53760571D01*
X120864381Y-53665333D01*
X120912000Y-53522476D01*
X120959619Y-53474857D01*
X121864381Y-52522476D02*
X121864381Y-53093905D01*
X121864381Y-52808191D02*
X120864381Y-52808191D01*
X121007238Y-52903429D01*
X121102476Y-52998667D01*
X121150095Y-53093905D01*
X120959619Y-52141524D02*
X120912000Y-52093905D01*
X120864381Y-51998667D01*
X120864381Y-51760571D01*
X120912000Y-51665333D01*
X120959619Y-51617714D01*
X121054857Y-51570095D01*
X121150095Y-51570095D01*
X121292952Y-51617714D01*
X121864381Y-52189143D01*
X121864381Y-51570095D01*
X102973143Y-44362666D02*
X103020762Y-44410285D01*
X103068381Y-44553142D01*
X103068381Y-44648380D01*
X103020762Y-44791238D01*
X102925524Y-44886476D01*
X102830286Y-44934095D01*
X102639810Y-44981714D01*
X102496952Y-44981714D01*
X102306476Y-44934095D01*
X102211238Y-44886476D01*
X102116000Y-44791238D01*
X102068381Y-44648380D01*
X102068381Y-44553142D01*
X102116000Y-44410285D01*
X102163619Y-44362666D01*
X103068381Y-43410285D02*
X103068381Y-43981714D01*
X103068381Y-43696000D02*
X102068381Y-43696000D01*
X102211238Y-43791238D01*
X102306476Y-43886476D01*
X102354095Y-43981714D01*
X102997143Y-68746666D02*
X103044762Y-68794285D01*
X103092381Y-68937142D01*
X103092381Y-69032380D01*
X103044762Y-69175238D01*
X102949524Y-69270476D01*
X102854286Y-69318095D01*
X102663810Y-69365714D01*
X102520952Y-69365714D01*
X102330476Y-69318095D01*
X102235238Y-69270476D01*
X102140000Y-69175238D01*
X102092381Y-69032380D01*
X102092381Y-68937142D01*
X102140000Y-68794285D01*
X102187619Y-68746666D01*
X102187619Y-68365714D02*
X102140000Y-68318095D01*
X102092381Y-68222857D01*
X102092381Y-67984761D01*
X102140000Y-67889523D01*
X102187619Y-67841904D01*
X102282857Y-67794285D01*
X102378095Y-67794285D01*
X102520952Y-67841904D01*
X103092381Y-68413333D01*
X103092381Y-67794285D01*
X108561143Y-68746666D02*
X108608762Y-68794285D01*
X108656381Y-68937142D01*
X108656381Y-69032380D01*
X108608762Y-69175238D01*
X108513524Y-69270476D01*
X108418286Y-69318095D01*
X108227810Y-69365714D01*
X108084952Y-69365714D01*
X107894476Y-69318095D01*
X107799238Y-69270476D01*
X107704000Y-69175238D01*
X107656381Y-69032380D01*
X107656381Y-68937142D01*
X107704000Y-68794285D01*
X107751619Y-68746666D01*
X108084952Y-68175238D02*
X108037333Y-68270476D01*
X107989714Y-68318095D01*
X107894476Y-68365714D01*
X107846857Y-68365714D01*
X107751619Y-68318095D01*
X107704000Y-68270476D01*
X107656381Y-68175238D01*
X107656381Y-67984761D01*
X107704000Y-67889523D01*
X107751619Y-67841904D01*
X107846857Y-67794285D01*
X107894476Y-67794285D01*
X107989714Y-67841904D01*
X108037333Y-67889523D01*
X108084952Y-67984761D01*
X108084952Y-68175238D01*
X108132571Y-68270476D01*
X108180190Y-68318095D01*
X108275429Y-68365714D01*
X108465905Y-68365714D01*
X108561143Y-68318095D01*
X108608762Y-68270476D01*
X108656381Y-68175238D01*
X108656381Y-67984761D01*
X108608762Y-67889523D01*
X108561143Y-67841904D01*
X108465905Y-67794285D01*
X108275429Y-67794285D01*
X108180190Y-67841904D01*
X108132571Y-67889523D01*
X108084952Y-67984761D01*
X108561143Y-44362666D02*
X108608762Y-44410285D01*
X108656381Y-44553142D01*
X108656381Y-44648380D01*
X108608762Y-44791238D01*
X108513524Y-44886476D01*
X108418286Y-44934095D01*
X108227810Y-44981714D01*
X108084952Y-44981714D01*
X107894476Y-44934095D01*
X107799238Y-44886476D01*
X107704000Y-44791238D01*
X107656381Y-44648380D01*
X107656381Y-44553142D01*
X107704000Y-44410285D01*
X107751619Y-44362666D01*
X107656381Y-44029333D02*
X107656381Y-43362666D01*
X108656381Y-43791238D01*
M02*
