G04 #@! TF.FileFunction,Paste,Top*
%FSLAX46Y46*%
G04 Gerber Fmt 4.6, Leading zero omitted, Abs format (unit mm)*
G04 Created by KiCad (PCBNEW 4.0.5-e0-6337~49~ubuntu15.04.1) date Thu Oct 26 22:51:34 2017*
%MOMM*%
%LPD*%
G01*
G04 APERTURE LIST*
%ADD10C,0.100000*%
%ADD11R,1.000000X1.600000*%
%ADD12R,1.600000X1.000000*%
%ADD13R,1.250000X1.000000*%
%ADD14R,0.700000X1.300000*%
%ADD15R,2.160000X1.070000*%
%ADD16R,7.000000X8.330000*%
%ADD17R,1.910000X10.800000*%
%ADD18R,1.800000X2.500000*%
%ADD19R,2.500000X1.800000*%
G04 APERTURE END LIST*
D10*
D11*
X122960000Y-65405000D03*
X125960000Y-65405000D03*
X102005000Y-29845000D03*
X105005000Y-29845000D03*
D12*
X115062000Y-61770000D03*
X115062000Y-64770000D03*
D11*
X101600000Y-53848000D03*
X104600000Y-53848000D03*
D13*
X94906456Y-53014640D03*
X94906456Y-55014640D03*
X94906456Y-46410640D03*
X94906456Y-48410640D03*
D14*
X109286000Y-29845000D03*
X111186000Y-29845000D03*
X106614000Y-47244000D03*
X104714000Y-47244000D03*
X109286000Y-53848000D03*
X111186000Y-53848000D03*
X106360000Y-71755000D03*
X104460000Y-71755000D03*
X111186000Y-47244000D03*
X109286000Y-47244000D03*
X111186000Y-71755000D03*
X109286000Y-71755000D03*
X111186000Y-43688000D03*
X109286000Y-43688000D03*
X111186000Y-67945000D03*
X109286000Y-67945000D03*
X114742000Y-43688000D03*
X112842000Y-43688000D03*
X114742000Y-67945000D03*
X112842000Y-67945000D03*
D15*
X123305000Y-42545000D03*
X123305000Y-44245000D03*
X123305000Y-45945000D03*
X123305000Y-40845000D03*
X123305000Y-39145000D03*
D16*
X133975000Y-42545000D03*
D17*
X136525000Y-42545000D03*
D15*
X123305000Y-59055000D03*
X123305000Y-60755000D03*
X123305000Y-62455000D03*
X123305000Y-57355000D03*
X123305000Y-55655000D03*
D16*
X133975000Y-59055000D03*
D17*
X136525000Y-59055000D03*
D18*
X71088185Y-48990000D03*
X71088185Y-44990000D03*
X71088185Y-56733565D03*
X71088185Y-52733565D03*
D19*
X75470000Y-48260000D03*
X79470000Y-48260000D03*
X79470000Y-53340000D03*
X75470000Y-53340000D03*
D12*
X115046890Y-37616000D03*
X115046890Y-40616000D03*
D11*
X122960000Y-48768000D03*
X125960000Y-48768000D03*
X122960000Y-36195000D03*
X125960000Y-36195000D03*
X122960000Y-52832000D03*
X125960000Y-52832000D03*
D13*
X104140000Y-45196000D03*
X104140000Y-43196000D03*
X104140000Y-69580000D03*
X104140000Y-67580000D03*
X106680000Y-69580000D03*
X106680000Y-67580000D03*
X106680000Y-45196000D03*
X106680000Y-43196000D03*
M02*
