G04 #@! TF.FileFunction,Copper,L1,Top,Signal*
%FSLAX46Y46*%
G04 Gerber Fmt 4.6, Leading zero omitted, Abs format (unit mm)*
G04 Created by KiCad (PCBNEW 4.0.5-e0-6337~49~ubuntu15.04.1) date Thu Oct 26 22:14:57 2017*
%MOMM*%
%LPD*%
G01*
G04 APERTURE LIST*
%ADD10C,0.100000*%
%ADD11R,1.700000X1.700000*%
%ADD12O,1.700000X1.700000*%
%ADD13R,1.000000X1.600000*%
%ADD14R,1.600000X1.600000*%
%ADD15O,1.600000X1.600000*%
%ADD16R,1.600000X1.000000*%
%ADD17R,1.300000X1.300000*%
%ADD18C,1.300000*%
%ADD19R,1.250000X1.000000*%
%ADD20R,0.700000X1.300000*%
%ADD21R,2.160000X1.070000*%
%ADD22R,7.000000X8.330000*%
%ADD23R,1.910000X10.800000*%
%ADD24O,2.032000X2.540000*%
%ADD25C,2.500000*%
%ADD26R,2.500000X2.500000*%
%ADD27R,1.800000X2.500000*%
%ADD28R,2.500000X1.800000*%
%ADD29C,0.500000*%
%ADD30C,0.600000*%
%ADD31C,1.000000*%
%ADD32C,0.250000*%
%ADD33C,0.254000*%
G04 APERTURE END LIST*
D10*
D11*
X151765000Y-53340000D03*
D12*
X151765000Y-50800000D03*
X151765000Y-48260000D03*
D13*
X122960000Y-65405000D03*
X125960000Y-65405000D03*
D14*
X111760000Y-57150000D03*
D15*
X104140000Y-64770000D03*
X109220000Y-57150000D03*
X106680000Y-64770000D03*
X106680000Y-57150000D03*
X109220000Y-64770000D03*
X104140000Y-57150000D03*
X111760000Y-64770000D03*
D13*
X102005000Y-29845000D03*
X105005000Y-29845000D03*
D16*
X115062000Y-61770000D03*
X115062000Y-64770000D03*
D13*
X101600000Y-53848000D03*
X104600000Y-53848000D03*
D17*
X74649451Y-62162033D03*
D18*
X74649451Y-69662033D03*
D17*
X91794451Y-31682033D03*
D18*
X91794451Y-39182033D03*
D17*
X91794451Y-62162033D03*
D18*
X91794451Y-69662033D03*
D17*
X74649451Y-31682033D03*
D18*
X74649451Y-39182033D03*
D19*
X94906456Y-53014640D03*
X94906456Y-55014640D03*
X94906456Y-46410640D03*
X94906456Y-48410640D03*
D20*
X109286000Y-29845000D03*
X111186000Y-29845000D03*
X106614000Y-47244000D03*
X104714000Y-47244000D03*
X109286000Y-53848000D03*
X111186000Y-53848000D03*
X106360000Y-71755000D03*
X104460000Y-71755000D03*
X111186000Y-47244000D03*
X109286000Y-47244000D03*
X111186000Y-71755000D03*
X109286000Y-71755000D03*
X111186000Y-43688000D03*
X109286000Y-43688000D03*
X111186000Y-67945000D03*
X109286000Y-67945000D03*
X114742000Y-43688000D03*
X112842000Y-43688000D03*
X114742000Y-67945000D03*
X112842000Y-67945000D03*
D21*
X123305000Y-42545000D03*
X123305000Y-44245000D03*
X123305000Y-45945000D03*
X123305000Y-40845000D03*
X123305000Y-39145000D03*
D22*
X133975000Y-42545000D03*
D23*
X136525000Y-42545000D03*
D21*
X123305000Y-59055000D03*
X123305000Y-60755000D03*
X123305000Y-62455000D03*
X123305000Y-57355000D03*
X123305000Y-55655000D03*
D22*
X133975000Y-59055000D03*
D23*
X136525000Y-59055000D03*
D24*
X87884000Y-54864000D03*
X90424000Y-54864000D03*
X85344000Y-54864000D03*
X87884000Y-46736000D03*
X85344000Y-46736000D03*
X90424000Y-46736000D03*
D25*
X62484000Y-45800000D03*
D26*
X62484000Y-55800000D03*
D25*
X62484000Y-50800000D03*
D14*
X111760000Y-33020000D03*
D15*
X104140000Y-40640000D03*
X109220000Y-33020000D03*
X106680000Y-40640000D03*
X106680000Y-33020000D03*
X109220000Y-40640000D03*
X104140000Y-33020000D03*
X111760000Y-40640000D03*
D27*
X71088185Y-48990000D03*
X71088185Y-44990000D03*
X71088185Y-56733565D03*
X71088185Y-52733565D03*
D28*
X75470000Y-48260000D03*
X79470000Y-48260000D03*
X79470000Y-53340000D03*
X75470000Y-53340000D03*
D16*
X115046890Y-37616000D03*
X115046890Y-40616000D03*
D13*
X122960000Y-48768000D03*
X125960000Y-48768000D03*
X122960000Y-36195000D03*
X125960000Y-36195000D03*
X122960000Y-52832000D03*
X125960000Y-52832000D03*
D19*
X104140000Y-45196000D03*
X104140000Y-43196000D03*
X104140000Y-69580000D03*
X104140000Y-67580000D03*
X106680000Y-69580000D03*
X106680000Y-67580000D03*
X106680000Y-45196000D03*
X106680000Y-43196000D03*
D11*
X119380000Y-29210000D03*
D12*
X119380000Y-31750000D03*
D11*
X119380000Y-72390000D03*
D12*
X119380000Y-69850000D03*
D29*
X71120000Y-30480000D03*
X71120000Y-71120000D03*
X119380000Y-34290000D03*
X119380000Y-67310000D03*
D30*
X112268000Y-53848000D03*
X101600000Y-55626000D03*
X113284000Y-61722000D03*
X102870000Y-69596000D03*
X102034270Y-31517135D03*
X121920000Y-50800000D03*
X121920000Y-36195000D03*
X121920000Y-65405000D03*
X112776000Y-29845000D03*
X113284000Y-37592000D03*
X102616000Y-45212000D03*
X94906456Y-44870640D03*
X94906456Y-56554640D03*
X109220000Y-62992000D03*
X120650000Y-55880000D03*
X120650000Y-62230000D03*
X109220000Y-38735000D03*
X125966697Y-50958477D03*
X129540000Y-69850000D03*
X131445000Y-69850000D03*
X132715000Y-69850000D03*
X134620000Y-69850000D03*
X136525000Y-69850000D03*
X138430000Y-69850000D03*
X129540000Y-31750000D03*
X131445000Y-31750000D03*
X132715000Y-31750000D03*
X134620000Y-31750000D03*
X136525000Y-31750000D03*
X138430000Y-31750000D03*
X145415000Y-64770000D03*
X143510000Y-64770000D03*
X143510000Y-69850000D03*
X145415000Y-69850000D03*
X145415000Y-59055000D03*
X143510000Y-61595000D03*
X143510000Y-59055000D03*
X145415000Y-56515000D03*
X145415000Y-61595000D03*
X143510000Y-56515000D03*
X145415000Y-42545000D03*
X143510000Y-42545000D03*
X143510000Y-40005000D03*
X143510000Y-36830000D03*
X145415000Y-45085000D03*
X145415000Y-36830000D03*
X145415000Y-40005000D03*
X143510000Y-45085000D03*
X145415000Y-31750000D03*
X143510000Y-31750000D03*
X145415000Y-48260000D03*
X143510000Y-48260000D03*
X145415000Y-53340000D03*
X143510000Y-53340000D03*
X141605000Y-69850000D03*
X141605000Y-56515000D03*
X141605000Y-61595000D03*
X141605000Y-59055000D03*
X141605000Y-64770000D03*
X141605000Y-45085000D03*
X141605000Y-42545000D03*
X141605000Y-40005000D03*
X141605000Y-36830000D03*
X141605000Y-31750000D03*
X141605000Y-53340000D03*
X141605000Y-48260000D03*
X103505000Y-50165000D03*
X106045000Y-53975000D03*
X125909824Y-54438657D03*
X138430000Y-66040000D03*
X138430000Y-35560000D03*
X131445000Y-35560000D03*
X134620000Y-35560000D03*
X131445000Y-66040000D03*
X134620000Y-66040000D03*
X129540000Y-69850000D03*
X129540000Y-31750000D03*
X132080000Y-48260000D03*
X134620000Y-48260000D03*
X132080000Y-53340000D03*
X134620000Y-53340000D03*
X136525000Y-66040000D03*
X132715000Y-66040000D03*
X129540000Y-66040000D03*
X136525000Y-35560000D03*
X132715000Y-35560000D03*
X129540000Y-35560000D03*
X139700000Y-64770000D03*
X139700000Y-61595000D03*
X139700000Y-36830000D03*
X139700000Y-59055000D03*
X139700000Y-56515000D03*
X139700000Y-53340000D03*
X139700000Y-48260000D03*
X139700000Y-45085000D03*
X139700000Y-40005000D03*
X139700000Y-42545000D03*
X129540000Y-38100000D03*
X129540000Y-40005000D03*
X129540000Y-46990000D03*
X129540000Y-45085000D03*
X129540000Y-42545000D03*
X129540000Y-63500000D03*
X129540000Y-61595000D03*
X129540000Y-54610000D03*
X129540000Y-56515000D03*
X129540000Y-59055000D03*
X119380000Y-50165000D03*
X125960000Y-41155002D03*
X98425000Y-50165000D03*
X91440000Y-50165000D03*
X118148868Y-55814564D03*
X118108589Y-62279363D03*
X126365000Y-45085000D03*
X126365000Y-59690000D03*
X75470000Y-50800000D03*
D31*
X111186000Y-53848000D02*
X112268000Y-53848000D01*
X101600000Y-53848000D02*
X101600000Y-55626000D01*
X115062000Y-61770000D02*
X113332000Y-61770000D01*
X113332000Y-61770000D02*
X113284000Y-61722000D01*
X104140000Y-69580000D02*
X102886000Y-69580000D01*
X102886000Y-69580000D02*
X102870000Y-69596000D01*
X104267000Y-71755000D02*
X104140000Y-71628000D01*
X104140000Y-71628000D02*
X104140000Y-69580000D01*
X104460000Y-71755000D02*
X104267000Y-71755000D01*
X104140000Y-46696000D02*
X104140000Y-45196000D01*
X104688000Y-47244000D02*
X104140000Y-46696000D01*
X104714000Y-47244000D02*
X104688000Y-47244000D01*
X102034270Y-31092871D02*
X102034270Y-31517135D01*
X102034270Y-29874270D02*
X102034270Y-31092871D01*
X102005000Y-29845000D02*
X102034270Y-29874270D01*
X122960000Y-50800000D02*
X121920000Y-50800000D01*
X122960000Y-50165000D02*
X122960000Y-48768000D01*
X122960000Y-52832000D02*
X122960000Y-50165000D01*
X122960000Y-50165000D02*
X122960000Y-50800000D01*
X122960000Y-36195000D02*
X121920000Y-36195000D01*
X122960000Y-65405000D02*
X121920000Y-65405000D01*
X111186000Y-29845000D02*
X112776000Y-29845000D01*
X115046890Y-37616000D02*
X113308000Y-37616000D01*
X113308000Y-37616000D02*
X113284000Y-37592000D01*
X104140000Y-45196000D02*
X102632000Y-45196000D01*
X102632000Y-45196000D02*
X102616000Y-45212000D01*
X94906456Y-46410640D02*
X94906456Y-44870640D01*
X94906456Y-55014640D02*
X94906456Y-56554640D01*
D32*
X108662000Y-48768000D02*
X103632000Y-48768000D01*
X103632000Y-48768000D02*
X101600000Y-46736000D01*
X109286000Y-47244000D02*
X109286000Y-48144000D01*
X109286000Y-48144000D02*
X108662000Y-48768000D01*
X109286000Y-47244000D02*
X109286000Y-47544000D01*
X101600000Y-46736000D02*
X101600000Y-44196000D01*
X101600000Y-44196000D02*
X102600000Y-43196000D01*
X102600000Y-43196000D02*
X104140000Y-43196000D01*
X104140000Y-43196000D02*
X104140000Y-40640000D01*
X101600000Y-70866000D02*
X101600000Y-69245000D01*
X101600000Y-69245000D02*
X103265000Y-67580000D01*
X103265000Y-67580000D02*
X104140000Y-67580000D01*
X104140000Y-73406000D02*
X101600000Y-70866000D01*
X107035000Y-73406000D02*
X104140000Y-73406000D01*
X109286000Y-71755000D02*
X108686000Y-71755000D01*
X108686000Y-71755000D02*
X107035000Y-73406000D01*
X104140000Y-64770000D02*
X104140000Y-65901370D01*
X104140000Y-65901370D02*
X104140000Y-67580000D01*
D31*
X111760000Y-64770000D02*
X115062000Y-64770000D01*
X99695000Y-59563000D02*
X103124000Y-62992000D01*
X103124000Y-62992000D02*
X109220000Y-62992000D01*
X99695000Y-51435000D02*
X99695000Y-59563000D01*
X120650000Y-51435000D02*
X120650000Y-55880000D01*
X123305000Y-62455000D02*
X120875000Y-62455000D01*
X120875000Y-62455000D02*
X120650000Y-62230000D01*
X120650000Y-51435000D02*
X99695000Y-51435000D01*
X120650000Y-48427998D02*
X120650000Y-51435000D01*
X123305000Y-45945000D02*
X123132998Y-45945000D01*
X123132998Y-45945000D02*
X120650000Y-48427998D01*
X123305000Y-45945000D02*
X122760000Y-45945000D01*
X99695000Y-51435000D02*
X99695000Y-40640000D01*
X99695000Y-40640000D02*
X101600000Y-38735000D01*
X101600000Y-38735000D02*
X109220000Y-38735000D01*
X125960000Y-65705000D02*
X125960000Y-65405000D01*
X125984000Y-48792000D02*
X125960000Y-48768000D01*
X94615000Y-51435000D02*
X99695000Y-51435000D01*
X91583000Y-51435000D02*
X94615000Y-51435000D01*
X94906456Y-51514640D02*
X94826816Y-51435000D01*
X94906456Y-53014640D02*
X94906456Y-51514640D01*
X94826816Y-51435000D02*
X94615000Y-51435000D01*
X90424000Y-54864000D02*
X90424000Y-52594000D01*
X90424000Y-52594000D02*
X91583000Y-51435000D01*
X111760000Y-40640000D02*
X115022890Y-40640000D01*
X115022890Y-40640000D02*
X115046890Y-40616000D01*
X112101890Y-40842012D02*
X111871890Y-40612012D01*
X125960000Y-65405000D02*
X125960000Y-65110000D01*
X125960000Y-65110000D02*
X123305000Y-62455000D01*
X125960000Y-48600000D02*
X123305000Y-45945000D01*
X125960000Y-50965174D02*
X125966697Y-50958477D01*
X125960000Y-52832000D02*
X125960000Y-50965174D01*
X138430000Y-69850000D02*
X139700000Y-69850000D01*
X134620000Y-69850000D02*
X136525000Y-69850000D01*
X136525000Y-69850000D02*
X138430000Y-69850000D01*
X132715000Y-69850000D02*
X134620000Y-69850000D01*
X129540000Y-69850000D02*
X131445000Y-69850000D01*
X129540000Y-69850000D02*
X129540000Y-68580000D01*
X131445000Y-69850000D02*
X132715000Y-69850000D01*
X139700000Y-69850000D02*
X141605000Y-69850000D01*
X139700000Y-69850000D02*
X146050000Y-69850000D01*
X143510000Y-69850000D02*
X145415000Y-69850000D01*
X138430000Y-31750000D02*
X139700000Y-31750000D01*
X134620000Y-31750000D02*
X136525000Y-31750000D01*
X136525000Y-31750000D02*
X138430000Y-31750000D01*
X132715000Y-31750000D02*
X134620000Y-31750000D01*
X129540000Y-31750000D02*
X131445000Y-31750000D01*
X129540000Y-31750000D02*
X129540000Y-30480000D01*
X131445000Y-31750000D02*
X132715000Y-31750000D01*
X139700000Y-31750000D02*
X141605000Y-31750000D01*
X139700000Y-31750000D02*
X146050000Y-31750000D01*
X143510000Y-31750000D02*
X145415000Y-31750000D01*
X143510000Y-53340000D02*
X145415000Y-53340000D01*
X141605000Y-53340000D02*
X143510000Y-53340000D01*
X139700000Y-53340000D02*
X141605000Y-53340000D01*
X143510000Y-46355000D02*
X143510000Y-45085000D01*
X143510000Y-42545000D02*
X143510000Y-46355000D01*
X143510000Y-42545000D02*
X143510000Y-40005000D01*
X143510000Y-40005000D02*
X143510000Y-38100000D01*
X143510000Y-36830000D02*
X143510000Y-35560000D01*
X143510000Y-38100000D02*
X143510000Y-36830000D01*
X143510000Y-35560000D02*
X143510000Y-31750000D01*
X143510000Y-31750000D02*
X143510000Y-27940000D01*
X145415000Y-59055000D02*
X145415000Y-61595000D01*
X145415000Y-57785000D02*
X145415000Y-59055000D01*
X143510000Y-56515000D02*
X143510000Y-57785000D01*
X143510000Y-57785000D02*
X143510000Y-59055000D01*
X143510000Y-59055000D02*
X143510000Y-61595000D01*
X145415000Y-53340000D02*
X145415000Y-56515000D01*
X145415000Y-56515000D02*
X145415000Y-57785000D01*
X143510000Y-66040000D02*
X143510000Y-69850000D01*
X145415000Y-64135000D02*
X145415000Y-64770000D01*
X145415000Y-61595000D02*
X145415000Y-64135000D01*
X143510000Y-64135000D02*
X143510000Y-64770000D01*
X143510000Y-61595000D02*
X143510000Y-64135000D01*
X145415000Y-64135000D02*
X145415000Y-66040000D01*
X143510000Y-64135000D02*
X143510000Y-66040000D01*
X145415000Y-66040000D02*
X145415000Y-69850000D01*
X145415000Y-73660000D02*
X145415000Y-73025000D01*
X143510000Y-73660000D02*
X143510000Y-73025000D01*
X145415000Y-69850000D02*
X145415000Y-73025000D01*
X143510000Y-69850000D02*
X143510000Y-73025000D01*
X143510000Y-46355000D02*
X143510000Y-46990000D01*
X143510000Y-46990000D02*
X143510000Y-48260000D01*
X145415000Y-46990000D02*
X145415000Y-48260000D01*
X145415000Y-46355000D02*
X145415000Y-46990000D01*
X145415000Y-35560000D02*
X145415000Y-31750000D01*
X145415000Y-46990000D02*
X145415000Y-53340000D01*
X143510000Y-46990000D02*
X143510000Y-53340000D01*
X145415000Y-46355000D02*
X145415000Y-45085000D01*
X145415000Y-31750000D02*
X145415000Y-27940000D01*
X145415000Y-42545000D02*
X145415000Y-46355000D01*
X143510000Y-53340000D02*
X143510000Y-56515000D01*
X143510000Y-35560000D02*
X145415000Y-35560000D01*
X145415000Y-36830000D02*
X145415000Y-35560000D01*
X145415000Y-42545000D02*
X145415000Y-40005000D01*
X145415000Y-40005000D02*
X145415000Y-38100000D01*
X145415000Y-38100000D02*
X145415000Y-36830000D01*
X139700000Y-35560000D02*
X141605000Y-35560000D01*
X141605000Y-66040000D02*
X141605000Y-69850000D01*
X141605000Y-64135000D02*
X141605000Y-66040000D01*
X141605000Y-64135000D02*
X141605000Y-64770000D01*
X141605000Y-61595000D02*
X141605000Y-64135000D01*
X141605000Y-59055000D02*
X141605000Y-61595000D01*
X141605000Y-69850000D02*
X141605000Y-73025000D01*
X141605000Y-73660000D02*
X141605000Y-73025000D01*
X141605000Y-46990000D02*
X141605000Y-48260000D01*
X141605000Y-46355000D02*
X141605000Y-46990000D01*
X141605000Y-46990000D02*
X141605000Y-53340000D01*
X141605000Y-53340000D02*
X141605000Y-56515000D01*
X141605000Y-57785000D02*
X141605000Y-59055000D01*
X141605000Y-56515000D02*
X141605000Y-57785000D01*
X141605000Y-42545000D02*
X141605000Y-40005000D01*
X141605000Y-46355000D02*
X141605000Y-45085000D01*
X141605000Y-42545000D02*
X141605000Y-46355000D01*
X141605000Y-38100000D02*
X141605000Y-36830000D01*
X141605000Y-36830000D02*
X141605000Y-35560000D01*
X141605000Y-40005000D02*
X141605000Y-38100000D01*
X141605000Y-31750000D02*
X141605000Y-27940000D01*
X141605000Y-35560000D02*
X141605000Y-31750000D01*
X119380000Y-50165000D02*
X106680000Y-50165000D01*
X106680000Y-50165000D02*
X103505000Y-50165000D01*
X106045000Y-53975000D02*
X104727000Y-53975000D01*
X104727000Y-53975000D02*
X104600000Y-53848000D01*
X104140000Y-57150000D02*
X104140000Y-54308000D01*
X104140000Y-54308000D02*
X104600000Y-53848000D01*
X125909824Y-54862921D02*
X125909824Y-54438657D01*
X125909824Y-57960768D02*
X125909824Y-54862921D01*
X124815592Y-59055000D02*
X125909824Y-57960768D01*
X123305000Y-59055000D02*
X124815592Y-59055000D01*
X125909824Y-54454824D02*
X125909824Y-54438657D01*
X125960000Y-54505000D02*
X125909824Y-54454824D01*
X129540000Y-69850000D02*
X129540000Y-73660000D01*
X138430000Y-66040000D02*
X139700000Y-66040000D01*
X136525000Y-66040000D02*
X138430000Y-66040000D01*
X138430000Y-35560000D02*
X139700000Y-35560000D01*
X136525000Y-35560000D02*
X138430000Y-35560000D01*
X131445000Y-35560000D02*
X132715000Y-35560000D01*
X129540000Y-35560000D02*
X131445000Y-35560000D01*
X134620000Y-35560000D02*
X136525000Y-35560000D01*
X132715000Y-35560000D02*
X134620000Y-35560000D01*
X131445000Y-66040000D02*
X132715000Y-66040000D01*
X129540000Y-66040000D02*
X131445000Y-66040000D01*
X134620000Y-66040000D02*
X136525000Y-66040000D01*
X132715000Y-66040000D02*
X134620000Y-66040000D01*
X139700000Y-69850000D02*
X139700000Y-73025000D01*
X139700000Y-66040000D02*
X139700000Y-69850000D01*
X139700000Y-31750000D02*
X139700000Y-27940000D01*
X139700000Y-35560000D02*
X139700000Y-31750000D01*
X129540000Y-66040000D02*
X129540000Y-69850000D01*
X129540000Y-31750000D02*
X129540000Y-27940000D01*
X129540000Y-34290000D02*
X129540000Y-31750000D01*
X146050000Y-66040000D02*
X139700000Y-66040000D01*
X139700000Y-35560000D02*
X146050000Y-35560000D01*
X132080000Y-48260000D02*
X134620000Y-48260000D01*
X129540000Y-48260000D02*
X132080000Y-48260000D01*
X132080000Y-53340000D02*
X134620000Y-53340000D01*
X129540000Y-53340000D02*
X132080000Y-53340000D01*
X129540000Y-53340000D02*
X129540000Y-54610000D01*
X129540000Y-48260000D02*
X129540000Y-53340000D01*
X129540000Y-47625000D02*
X129540000Y-48260000D01*
X129540000Y-35560000D02*
X129540000Y-34290000D01*
X139700000Y-36830000D02*
X139700000Y-35560000D01*
X129540000Y-39370000D02*
X129540000Y-35560000D01*
X129540000Y-62230000D02*
X129540000Y-66040000D01*
X139700000Y-64135000D02*
X139700000Y-66040000D01*
X139700000Y-61595000D02*
X139700000Y-64135000D01*
X139700000Y-64135000D02*
X139700000Y-64770000D01*
X139700000Y-59055000D02*
X139700000Y-61595000D01*
X139700000Y-38100000D02*
X139700000Y-36830000D01*
X139700000Y-56515000D02*
X139700000Y-57785000D01*
X139700000Y-57785000D02*
X139700000Y-59055000D01*
X139700000Y-53340000D02*
X139700000Y-56515000D01*
X139700000Y-46990000D02*
X139700000Y-53340000D01*
X139700000Y-46355000D02*
X139700000Y-46990000D01*
X139700000Y-46990000D02*
X139700000Y-48260000D01*
X139700000Y-42545000D02*
X139700000Y-46355000D01*
X139700000Y-46355000D02*
X139700000Y-45085000D01*
X139700000Y-40005000D02*
X139700000Y-38100000D01*
X139700000Y-42545000D02*
X139700000Y-40005000D01*
X133975000Y-42545000D02*
X139065000Y-42545000D01*
X139065000Y-42545000D02*
X139700000Y-42545000D01*
X129540000Y-40005000D02*
X129540000Y-39370000D01*
X129540000Y-39370000D02*
X129540000Y-38100000D01*
X129540000Y-42545000D02*
X129540000Y-40005000D01*
X129540000Y-46355000D02*
X129540000Y-44450000D01*
X129540000Y-47625000D02*
X129540000Y-46355000D01*
X129540000Y-46355000D02*
X129540000Y-46990000D01*
X129540000Y-44450000D02*
X129540000Y-42545000D01*
X129540000Y-44450000D02*
X129540000Y-45085000D01*
X129540000Y-61595000D02*
X129540000Y-62230000D01*
X129540000Y-62230000D02*
X129540000Y-63500000D01*
X129540000Y-59055000D02*
X129540000Y-61595000D01*
X129540000Y-54610000D02*
X129540000Y-56515000D01*
X129540000Y-56515000D02*
X129540000Y-59055000D01*
X133975000Y-59055000D02*
X139700000Y-59055000D01*
X139700000Y-73660000D02*
X139700000Y-73025000D01*
X133975000Y-59055000D02*
X129540000Y-59055000D01*
X133975000Y-42545000D02*
X129540000Y-42545000D01*
X98425000Y-50165000D02*
X98425000Y-38735000D01*
X98425000Y-38735000D02*
X104140000Y-33020000D01*
X104140000Y-33020000D02*
X104140000Y-30710000D01*
X104140000Y-30710000D02*
X105005000Y-29845000D01*
X126045000Y-36110000D02*
X125960000Y-36195000D01*
D32*
X125824999Y-37859999D02*
X125960000Y-37995000D01*
X125824999Y-54369999D02*
X125960000Y-54505000D01*
D31*
X91440000Y-50165000D02*
X95250000Y-50165000D01*
X95250000Y-50165000D02*
X98425000Y-50165000D01*
X94906456Y-48410640D02*
X94906456Y-49910640D01*
X94906456Y-49910640D02*
X95160816Y-50165000D01*
X95160816Y-50165000D02*
X95250000Y-50165000D01*
X104116000Y-33044000D02*
X104140000Y-33020000D01*
X104021890Y-32762012D02*
X104251890Y-32992012D01*
X125960000Y-54505000D02*
X125960000Y-52705000D01*
X123305000Y-42545000D02*
X124570002Y-42545000D01*
X124570002Y-42545000D02*
X125960000Y-41155002D01*
X125960000Y-41155002D02*
X125960000Y-37995000D01*
X125960000Y-37995000D02*
X125960000Y-36195000D01*
D32*
X106680000Y-45196000D02*
X108078000Y-45196000D01*
X108078000Y-45196000D02*
X109286000Y-43988000D01*
X109286000Y-43988000D02*
X109286000Y-43688000D01*
X109286000Y-43688000D02*
X109286000Y-40657902D01*
X109286000Y-40657902D02*
X109331890Y-40612012D01*
X106680000Y-43196000D02*
X105805000Y-43196000D01*
X105805000Y-43196000D02*
X105412663Y-43588337D01*
X105412663Y-43588337D02*
X105412663Y-45742663D01*
X106614000Y-46944000D02*
X106614000Y-47244000D01*
X105412663Y-45742663D02*
X106614000Y-46944000D01*
X106680000Y-43196000D02*
X106680000Y-40640000D01*
X106680000Y-69580000D02*
X107951000Y-69580000D01*
X107951000Y-69580000D02*
X109286000Y-68245000D01*
X109286000Y-68245000D02*
X109286000Y-67945000D01*
X109220000Y-64770000D02*
X109220000Y-67879000D01*
X109220000Y-67879000D02*
X109286000Y-67945000D01*
X106680000Y-67580000D02*
X105805000Y-67580000D01*
X105410000Y-67975000D02*
X105410000Y-71405000D01*
X105805000Y-67580000D02*
X105410000Y-67975000D01*
X105410000Y-71405000D02*
X105760000Y-71755000D01*
X105760000Y-71755000D02*
X106360000Y-71755000D01*
X106680000Y-64770000D02*
X106680000Y-67580000D01*
D31*
X75919451Y-39182033D02*
X79375000Y-39182033D01*
X79375000Y-39182033D02*
X93064451Y-39182033D01*
X79470000Y-48260000D02*
X79470000Y-46360000D01*
X79470000Y-46360000D02*
X79375000Y-46265000D01*
X79375000Y-46265000D02*
X79375000Y-39182033D01*
X71088185Y-44990000D02*
X71088185Y-44013299D01*
X71088185Y-44013299D02*
X75919451Y-39182033D01*
D32*
X119210000Y-27940000D02*
X108585000Y-27940000D01*
X119380000Y-29210000D02*
X119380000Y-28110000D01*
X119380000Y-28110000D02*
X119210000Y-27940000D01*
X106680000Y-33020000D02*
X106680000Y-29845000D01*
X106680000Y-29845000D02*
X108570068Y-27954932D01*
X118108589Y-62703627D02*
X118108589Y-62279363D01*
X118280000Y-72390000D02*
X117475000Y-71585000D01*
X119380000Y-72390000D02*
X118280000Y-72390000D01*
X117475000Y-63337216D02*
X118108589Y-62703627D01*
X117475000Y-71585000D02*
X117475000Y-63337216D01*
X117848869Y-55514565D02*
X118148868Y-55814564D01*
X107479999Y-53175001D02*
X108272442Y-52382558D01*
X107479999Y-56350001D02*
X107479999Y-53175001D01*
X106680000Y-57150000D02*
X107479999Y-56350001D01*
X114716862Y-52382558D02*
X117848869Y-55514565D01*
X108272442Y-52382558D02*
X114716862Y-52382558D01*
D31*
X123305000Y-44245000D02*
X125525000Y-44245000D01*
X125525000Y-44245000D02*
X126365000Y-45085000D01*
D32*
X120396000Y-43688000D02*
X120953000Y-44245000D01*
X120953000Y-44245000D02*
X123305000Y-44245000D01*
X114742000Y-43688000D02*
X120396000Y-43688000D01*
X123256000Y-44196000D02*
X123227675Y-44167675D01*
D31*
X123256000Y-44196000D02*
X123305000Y-44245000D01*
X123227000Y-44323000D02*
X123305000Y-44245000D01*
D32*
X111186000Y-47244000D02*
X112536000Y-47244000D01*
X112536000Y-47244000D02*
X114742000Y-45038000D01*
X114742000Y-45038000D02*
X114742000Y-43688000D01*
X121975000Y-60755000D02*
X123305000Y-60755000D01*
X118633948Y-60755000D02*
X121975000Y-60755000D01*
X116974989Y-62413959D02*
X118633948Y-60755000D01*
X116974989Y-64812011D02*
X116974989Y-62413959D01*
X114742000Y-67045000D02*
X116974989Y-64812011D01*
X114742000Y-67945000D02*
X114742000Y-67045000D01*
X114808000Y-68311000D02*
X114808000Y-69483000D01*
X114808000Y-69483000D02*
X112536000Y-71755000D01*
X112536000Y-71755000D02*
X111186000Y-71755000D01*
X114742000Y-67945000D02*
X114742000Y-68245000D01*
X114742000Y-68245000D02*
X114808000Y-68311000D01*
D31*
X123305000Y-60755000D02*
X125300000Y-60755000D01*
X125300000Y-60755000D02*
X126365000Y-59690000D01*
D32*
X109220000Y-33020000D02*
X109220000Y-34151370D01*
X109220000Y-34151370D02*
X110494723Y-35426093D01*
X110494723Y-35426093D02*
X110494723Y-42096723D01*
X110494723Y-42096723D02*
X111186000Y-42788000D01*
X111186000Y-42788000D02*
X111186000Y-43688000D01*
X109286000Y-29845000D02*
X109286000Y-32954000D01*
X109286000Y-32954000D02*
X109220000Y-33020000D01*
X111186000Y-43688000D02*
X112842000Y-43688000D01*
X109331890Y-33131890D02*
X109331890Y-32992012D01*
X110490000Y-59551370D02*
X110490000Y-66349000D01*
X110490000Y-66349000D02*
X111186000Y-67045000D01*
X111186000Y-67045000D02*
X111186000Y-67945000D01*
X109220000Y-57150000D02*
X109220000Y-58281370D01*
X109220000Y-58281370D02*
X110490000Y-59551370D01*
X111186000Y-67945000D02*
X112842000Y-67945000D01*
X109286000Y-53848000D02*
X109286000Y-57084000D01*
X109286000Y-57084000D02*
X109220000Y-57150000D01*
X111760000Y-33020000D02*
X113792000Y-33020000D01*
X113792000Y-33020000D02*
X121617000Y-40845000D01*
X121617000Y-40845000D02*
X123305000Y-40845000D01*
X121975000Y-57355000D02*
X123305000Y-57355000D01*
X118881536Y-57150000D02*
X119086536Y-57355000D01*
X119086536Y-57355000D02*
X121975000Y-57355000D01*
X111760000Y-57150000D02*
X118881536Y-57150000D01*
D31*
X75470000Y-53340000D02*
X75470000Y-50800000D01*
X75470000Y-50800000D02*
X75470000Y-48260000D01*
X71088185Y-52733565D02*
X71088185Y-50800000D01*
X71088185Y-50800000D02*
X71088185Y-48990000D01*
X62484000Y-45800000D02*
X67484000Y-50800000D01*
X67484000Y-50800000D02*
X71088185Y-50800000D01*
D32*
X123210000Y-39050000D02*
X123305000Y-39145000D01*
D33*
G36*
X152162005Y-27725498D02*
X153575221Y-28669779D01*
X154519502Y-30082997D01*
X154813000Y-31558510D01*
X154813000Y-70041490D01*
X154519502Y-71517003D01*
X153575221Y-72930221D01*
X152162005Y-73874502D01*
X150686491Y-74168000D01*
X121412000Y-74168000D01*
X121412000Y-70573241D01*
X146842367Y-70573241D01*
X147397180Y-71915989D01*
X148423607Y-72944210D01*
X149765385Y-73501365D01*
X151218241Y-73502633D01*
X152560989Y-72947820D01*
X153589210Y-71921393D01*
X154146365Y-70579615D01*
X154147633Y-69126759D01*
X153592820Y-67784011D01*
X152566393Y-66755790D01*
X151224615Y-66198635D01*
X149771759Y-66197367D01*
X148429011Y-66752180D01*
X147400790Y-67778607D01*
X146843635Y-69120385D01*
X146842367Y-70573241D01*
X121412000Y-70573241D01*
X121412000Y-67437000D01*
X128905000Y-67437000D01*
X128954410Y-67426994D01*
X128996035Y-67398553D01*
X129023315Y-67356159D01*
X129032000Y-67310000D01*
X129032000Y-48260000D01*
X150250907Y-48260000D01*
X150363946Y-48828285D01*
X150685853Y-49310054D01*
X151015026Y-49530000D01*
X150685853Y-49749946D01*
X150363946Y-50231715D01*
X150250907Y-50800000D01*
X150363946Y-51368285D01*
X150685853Y-51850054D01*
X150727452Y-51877850D01*
X150679683Y-51886838D01*
X150463559Y-52025910D01*
X150318569Y-52238110D01*
X150267560Y-52490000D01*
X150267560Y-54190000D01*
X150311838Y-54425317D01*
X150450910Y-54641441D01*
X150663110Y-54786431D01*
X150915000Y-54837440D01*
X152615000Y-54837440D01*
X152850317Y-54793162D01*
X153066441Y-54654090D01*
X153211431Y-54441890D01*
X153262440Y-54190000D01*
X153262440Y-52490000D01*
X153218162Y-52254683D01*
X153079090Y-52038559D01*
X152866890Y-51893569D01*
X152799459Y-51879914D01*
X152844147Y-51850054D01*
X153166054Y-51368285D01*
X153279093Y-50800000D01*
X153166054Y-50231715D01*
X152844147Y-49749946D01*
X152514974Y-49530000D01*
X152844147Y-49310054D01*
X153166054Y-48828285D01*
X153279093Y-48260000D01*
X153166054Y-47691715D01*
X152844147Y-47209946D01*
X152362378Y-46888039D01*
X151794093Y-46775000D01*
X151735907Y-46775000D01*
X151167622Y-46888039D01*
X150685853Y-47209946D01*
X150363946Y-47691715D01*
X150250907Y-48260000D01*
X129032000Y-48260000D01*
X129032000Y-34290000D01*
X129021994Y-34240590D01*
X128993553Y-34198965D01*
X128951159Y-34171685D01*
X128905000Y-34163000D01*
X121412000Y-34163000D01*
X121412000Y-32473241D01*
X146842367Y-32473241D01*
X147397180Y-33815989D01*
X148423607Y-34844210D01*
X149765385Y-35401365D01*
X151218241Y-35402633D01*
X152560989Y-34847820D01*
X153589210Y-33821393D01*
X154146365Y-32479615D01*
X154147633Y-31026759D01*
X153592820Y-29684011D01*
X152566393Y-28655790D01*
X151224615Y-28098635D01*
X149771759Y-28097367D01*
X148429011Y-28652180D01*
X147400790Y-29678607D01*
X146843635Y-31020385D01*
X146842367Y-32473241D01*
X121412000Y-32473241D01*
X121412000Y-27432000D01*
X150686491Y-27432000D01*
X152162005Y-27725498D01*
X152162005Y-27725498D01*
G37*
X152162005Y-27725498D02*
X153575221Y-28669779D01*
X154519502Y-30082997D01*
X154813000Y-31558510D01*
X154813000Y-70041490D01*
X154519502Y-71517003D01*
X153575221Y-72930221D01*
X152162005Y-73874502D01*
X150686491Y-74168000D01*
X121412000Y-74168000D01*
X121412000Y-70573241D01*
X146842367Y-70573241D01*
X147397180Y-71915989D01*
X148423607Y-72944210D01*
X149765385Y-73501365D01*
X151218241Y-73502633D01*
X152560989Y-72947820D01*
X153589210Y-71921393D01*
X154146365Y-70579615D01*
X154147633Y-69126759D01*
X153592820Y-67784011D01*
X152566393Y-66755790D01*
X151224615Y-66198635D01*
X149771759Y-66197367D01*
X148429011Y-66752180D01*
X147400790Y-67778607D01*
X146843635Y-69120385D01*
X146842367Y-70573241D01*
X121412000Y-70573241D01*
X121412000Y-67437000D01*
X128905000Y-67437000D01*
X128954410Y-67426994D01*
X128996035Y-67398553D01*
X129023315Y-67356159D01*
X129032000Y-67310000D01*
X129032000Y-48260000D01*
X150250907Y-48260000D01*
X150363946Y-48828285D01*
X150685853Y-49310054D01*
X151015026Y-49530000D01*
X150685853Y-49749946D01*
X150363946Y-50231715D01*
X150250907Y-50800000D01*
X150363946Y-51368285D01*
X150685853Y-51850054D01*
X150727452Y-51877850D01*
X150679683Y-51886838D01*
X150463559Y-52025910D01*
X150318569Y-52238110D01*
X150267560Y-52490000D01*
X150267560Y-54190000D01*
X150311838Y-54425317D01*
X150450910Y-54641441D01*
X150663110Y-54786431D01*
X150915000Y-54837440D01*
X152615000Y-54837440D01*
X152850317Y-54793162D01*
X153066441Y-54654090D01*
X153211431Y-54441890D01*
X153262440Y-54190000D01*
X153262440Y-52490000D01*
X153218162Y-52254683D01*
X153079090Y-52038559D01*
X152866890Y-51893569D01*
X152799459Y-51879914D01*
X152844147Y-51850054D01*
X153166054Y-51368285D01*
X153279093Y-50800000D01*
X153166054Y-50231715D01*
X152844147Y-49749946D01*
X152514974Y-49530000D01*
X152844147Y-49310054D01*
X153166054Y-48828285D01*
X153279093Y-48260000D01*
X153166054Y-47691715D01*
X152844147Y-47209946D01*
X152362378Y-46888039D01*
X151794093Y-46775000D01*
X151735907Y-46775000D01*
X151167622Y-46888039D01*
X150685853Y-47209946D01*
X150363946Y-47691715D01*
X150250907Y-48260000D01*
X129032000Y-48260000D01*
X129032000Y-34290000D01*
X129021994Y-34240590D01*
X128993553Y-34198965D01*
X128951159Y-34171685D01*
X128905000Y-34163000D01*
X121412000Y-34163000D01*
X121412000Y-32473241D01*
X146842367Y-32473241D01*
X147397180Y-33815989D01*
X148423607Y-34844210D01*
X149765385Y-35401365D01*
X151218241Y-35402633D01*
X152560989Y-34847820D01*
X153589210Y-33821393D01*
X154146365Y-32479615D01*
X154147633Y-31026759D01*
X153592820Y-29684011D01*
X152566393Y-28655790D01*
X151224615Y-28098635D01*
X149771759Y-28097367D01*
X148429011Y-28652180D01*
X147400790Y-29678607D01*
X146843635Y-31020385D01*
X146842367Y-32473241D01*
X121412000Y-32473241D01*
X121412000Y-27432000D01*
X150686491Y-27432000D01*
X152162005Y-27725498D01*
D32*
G36*
X86235000Y-52486776D02*
X86235000Y-53244138D01*
X85851635Y-53031004D01*
X85728582Y-53006474D01*
X85473000Y-53124842D01*
X85473000Y-54735000D01*
X85493000Y-54735000D01*
X85493000Y-54993000D01*
X85473000Y-54993000D01*
X85473000Y-56603158D01*
X85728582Y-56721526D01*
X85851635Y-56696996D01*
X86235000Y-56483862D01*
X86235000Y-57420000D01*
X86244848Y-57468632D01*
X86271612Y-57508388D01*
X87271612Y-58508388D01*
X87312963Y-58535813D01*
X87360000Y-58545000D01*
X94198224Y-58545000D01*
X95125000Y-59471776D01*
X95125000Y-64353224D01*
X94198224Y-65280000D01*
X70901776Y-65280000D01*
X69975000Y-64353224D01*
X69975000Y-62449283D01*
X73366451Y-62449283D01*
X73366451Y-62937944D01*
X73462819Y-63170598D01*
X73640885Y-63348664D01*
X73873539Y-63445033D01*
X74362201Y-63445033D01*
X74520451Y-63286783D01*
X74520451Y-62291033D01*
X74778451Y-62291033D01*
X74778451Y-63286783D01*
X74936701Y-63445033D01*
X75425363Y-63445033D01*
X75658017Y-63348664D01*
X75836083Y-63170598D01*
X75932451Y-62937944D01*
X75932451Y-62449283D01*
X90511451Y-62449283D01*
X90511451Y-62937944D01*
X90607819Y-63170598D01*
X90785885Y-63348664D01*
X91018539Y-63445033D01*
X91507201Y-63445033D01*
X91665451Y-63286783D01*
X91665451Y-62291033D01*
X91923451Y-62291033D01*
X91923451Y-63286783D01*
X92081701Y-63445033D01*
X92570363Y-63445033D01*
X92803017Y-63348664D01*
X92981083Y-63170598D01*
X93077451Y-62937944D01*
X93077451Y-62449283D01*
X92919201Y-62291033D01*
X91923451Y-62291033D01*
X91665451Y-62291033D01*
X90669701Y-62291033D01*
X90511451Y-62449283D01*
X75932451Y-62449283D01*
X75774201Y-62291033D01*
X74778451Y-62291033D01*
X74520451Y-62291033D01*
X73524701Y-62291033D01*
X73366451Y-62449283D01*
X69975000Y-62449283D01*
X69975000Y-61386122D01*
X73366451Y-61386122D01*
X73366451Y-61874783D01*
X73524701Y-62033033D01*
X74520451Y-62033033D01*
X74520451Y-61037283D01*
X74778451Y-61037283D01*
X74778451Y-62033033D01*
X75774201Y-62033033D01*
X75932451Y-61874783D01*
X75932451Y-61386122D01*
X90511451Y-61386122D01*
X90511451Y-61874783D01*
X90669701Y-62033033D01*
X91665451Y-62033033D01*
X91665451Y-61037283D01*
X91923451Y-61037283D01*
X91923451Y-62033033D01*
X92919201Y-62033033D01*
X93077451Y-61874783D01*
X93077451Y-61386122D01*
X92981083Y-61153468D01*
X92803017Y-60975402D01*
X92570363Y-60879033D01*
X92081701Y-60879033D01*
X91923451Y-61037283D01*
X91665451Y-61037283D01*
X91507201Y-60879033D01*
X91018539Y-60879033D01*
X90785885Y-60975402D01*
X90607819Y-61153468D01*
X90511451Y-61386122D01*
X75932451Y-61386122D01*
X75836083Y-61153468D01*
X75658017Y-60975402D01*
X75425363Y-60879033D01*
X74936701Y-60879033D01*
X74778451Y-61037283D01*
X74520451Y-61037283D01*
X74362201Y-60879033D01*
X73873539Y-60879033D01*
X73640885Y-60975402D01*
X73462819Y-61153468D01*
X73366451Y-61386122D01*
X69975000Y-61386122D01*
X69975000Y-58580415D01*
X70062273Y-58616565D01*
X70800935Y-58616565D01*
X70959185Y-58458315D01*
X70959185Y-56862565D01*
X71217185Y-56862565D01*
X71217185Y-58458315D01*
X71375435Y-58616565D01*
X72114097Y-58616565D01*
X72346751Y-58520196D01*
X72524817Y-58342130D01*
X72621185Y-58109476D01*
X72621185Y-57020815D01*
X72462935Y-56862565D01*
X71217185Y-56862565D01*
X70959185Y-56862565D01*
X70939185Y-56862565D01*
X70939185Y-56604565D01*
X70959185Y-56604565D01*
X70959185Y-56584565D01*
X71217185Y-56584565D01*
X71217185Y-56604565D01*
X72462935Y-56604565D01*
X72621185Y-56446315D01*
X72621185Y-55370000D01*
X76470000Y-55370000D01*
X76518632Y-55360152D01*
X76558388Y-55333388D01*
X76638514Y-55253262D01*
X83690934Y-55253262D01*
X83868529Y-55875567D01*
X84270751Y-56382539D01*
X84836365Y-56696996D01*
X84959418Y-56721526D01*
X85215000Y-56603158D01*
X85215000Y-54993000D01*
X83848376Y-54993000D01*
X83690934Y-55253262D01*
X76638514Y-55253262D01*
X77558388Y-54333388D01*
X77585813Y-54292037D01*
X77587000Y-54285960D01*
X77587000Y-54365912D01*
X77683369Y-54598566D01*
X77861435Y-54776632D01*
X78094089Y-54873000D01*
X79182750Y-54873000D01*
X79341000Y-54714750D01*
X79341000Y-53469000D01*
X79599000Y-53469000D01*
X79599000Y-54714750D01*
X79757250Y-54873000D01*
X80845911Y-54873000D01*
X81078565Y-54776632D01*
X81256631Y-54598566D01*
X81307922Y-54474738D01*
X83690934Y-54474738D01*
X83848376Y-54735000D01*
X85215000Y-54735000D01*
X85215000Y-53124842D01*
X84959418Y-53006474D01*
X84836365Y-53031004D01*
X84270751Y-53345461D01*
X83868529Y-53852433D01*
X83690934Y-54474738D01*
X81307922Y-54474738D01*
X81353000Y-54365912D01*
X81353000Y-53627250D01*
X81194750Y-53469000D01*
X79599000Y-53469000D01*
X79341000Y-53469000D01*
X79321000Y-53469000D01*
X79321000Y-53211000D01*
X79341000Y-53211000D01*
X79341000Y-51965250D01*
X79599000Y-51965250D01*
X79599000Y-53211000D01*
X81194750Y-53211000D01*
X81353000Y-53052750D01*
X81353000Y-52314088D01*
X81256631Y-52081434D01*
X81078565Y-51903368D01*
X80845911Y-51807000D01*
X79757250Y-51807000D01*
X79599000Y-51965250D01*
X79341000Y-51965250D01*
X79182750Y-51807000D01*
X78274776Y-51807000D01*
X78521776Y-51560000D01*
X85308224Y-51560000D01*
X86235000Y-52486776D01*
X86235000Y-52486776D01*
G37*
X86235000Y-52486776D02*
X86235000Y-53244138D01*
X85851635Y-53031004D01*
X85728582Y-53006474D01*
X85473000Y-53124842D01*
X85473000Y-54735000D01*
X85493000Y-54735000D01*
X85493000Y-54993000D01*
X85473000Y-54993000D01*
X85473000Y-56603158D01*
X85728582Y-56721526D01*
X85851635Y-56696996D01*
X86235000Y-56483862D01*
X86235000Y-57420000D01*
X86244848Y-57468632D01*
X86271612Y-57508388D01*
X87271612Y-58508388D01*
X87312963Y-58535813D01*
X87360000Y-58545000D01*
X94198224Y-58545000D01*
X95125000Y-59471776D01*
X95125000Y-64353224D01*
X94198224Y-65280000D01*
X70901776Y-65280000D01*
X69975000Y-64353224D01*
X69975000Y-62449283D01*
X73366451Y-62449283D01*
X73366451Y-62937944D01*
X73462819Y-63170598D01*
X73640885Y-63348664D01*
X73873539Y-63445033D01*
X74362201Y-63445033D01*
X74520451Y-63286783D01*
X74520451Y-62291033D01*
X74778451Y-62291033D01*
X74778451Y-63286783D01*
X74936701Y-63445033D01*
X75425363Y-63445033D01*
X75658017Y-63348664D01*
X75836083Y-63170598D01*
X75932451Y-62937944D01*
X75932451Y-62449283D01*
X90511451Y-62449283D01*
X90511451Y-62937944D01*
X90607819Y-63170598D01*
X90785885Y-63348664D01*
X91018539Y-63445033D01*
X91507201Y-63445033D01*
X91665451Y-63286783D01*
X91665451Y-62291033D01*
X91923451Y-62291033D01*
X91923451Y-63286783D01*
X92081701Y-63445033D01*
X92570363Y-63445033D01*
X92803017Y-63348664D01*
X92981083Y-63170598D01*
X93077451Y-62937944D01*
X93077451Y-62449283D01*
X92919201Y-62291033D01*
X91923451Y-62291033D01*
X91665451Y-62291033D01*
X90669701Y-62291033D01*
X90511451Y-62449283D01*
X75932451Y-62449283D01*
X75774201Y-62291033D01*
X74778451Y-62291033D01*
X74520451Y-62291033D01*
X73524701Y-62291033D01*
X73366451Y-62449283D01*
X69975000Y-62449283D01*
X69975000Y-61386122D01*
X73366451Y-61386122D01*
X73366451Y-61874783D01*
X73524701Y-62033033D01*
X74520451Y-62033033D01*
X74520451Y-61037283D01*
X74778451Y-61037283D01*
X74778451Y-62033033D01*
X75774201Y-62033033D01*
X75932451Y-61874783D01*
X75932451Y-61386122D01*
X90511451Y-61386122D01*
X90511451Y-61874783D01*
X90669701Y-62033033D01*
X91665451Y-62033033D01*
X91665451Y-61037283D01*
X91923451Y-61037283D01*
X91923451Y-62033033D01*
X92919201Y-62033033D01*
X93077451Y-61874783D01*
X93077451Y-61386122D01*
X92981083Y-61153468D01*
X92803017Y-60975402D01*
X92570363Y-60879033D01*
X92081701Y-60879033D01*
X91923451Y-61037283D01*
X91665451Y-61037283D01*
X91507201Y-60879033D01*
X91018539Y-60879033D01*
X90785885Y-60975402D01*
X90607819Y-61153468D01*
X90511451Y-61386122D01*
X75932451Y-61386122D01*
X75836083Y-61153468D01*
X75658017Y-60975402D01*
X75425363Y-60879033D01*
X74936701Y-60879033D01*
X74778451Y-61037283D01*
X74520451Y-61037283D01*
X74362201Y-60879033D01*
X73873539Y-60879033D01*
X73640885Y-60975402D01*
X73462819Y-61153468D01*
X73366451Y-61386122D01*
X69975000Y-61386122D01*
X69975000Y-58580415D01*
X70062273Y-58616565D01*
X70800935Y-58616565D01*
X70959185Y-58458315D01*
X70959185Y-56862565D01*
X71217185Y-56862565D01*
X71217185Y-58458315D01*
X71375435Y-58616565D01*
X72114097Y-58616565D01*
X72346751Y-58520196D01*
X72524817Y-58342130D01*
X72621185Y-58109476D01*
X72621185Y-57020815D01*
X72462935Y-56862565D01*
X71217185Y-56862565D01*
X70959185Y-56862565D01*
X70939185Y-56862565D01*
X70939185Y-56604565D01*
X70959185Y-56604565D01*
X70959185Y-56584565D01*
X71217185Y-56584565D01*
X71217185Y-56604565D01*
X72462935Y-56604565D01*
X72621185Y-56446315D01*
X72621185Y-55370000D01*
X76470000Y-55370000D01*
X76518632Y-55360152D01*
X76558388Y-55333388D01*
X76638514Y-55253262D01*
X83690934Y-55253262D01*
X83868529Y-55875567D01*
X84270751Y-56382539D01*
X84836365Y-56696996D01*
X84959418Y-56721526D01*
X85215000Y-56603158D01*
X85215000Y-54993000D01*
X83848376Y-54993000D01*
X83690934Y-55253262D01*
X76638514Y-55253262D01*
X77558388Y-54333388D01*
X77585813Y-54292037D01*
X77587000Y-54285960D01*
X77587000Y-54365912D01*
X77683369Y-54598566D01*
X77861435Y-54776632D01*
X78094089Y-54873000D01*
X79182750Y-54873000D01*
X79341000Y-54714750D01*
X79341000Y-53469000D01*
X79599000Y-53469000D01*
X79599000Y-54714750D01*
X79757250Y-54873000D01*
X80845911Y-54873000D01*
X81078565Y-54776632D01*
X81256631Y-54598566D01*
X81307922Y-54474738D01*
X83690934Y-54474738D01*
X83848376Y-54735000D01*
X85215000Y-54735000D01*
X85215000Y-53124842D01*
X84959418Y-53006474D01*
X84836365Y-53031004D01*
X84270751Y-53345461D01*
X83868529Y-53852433D01*
X83690934Y-54474738D01*
X81307922Y-54474738D01*
X81353000Y-54365912D01*
X81353000Y-53627250D01*
X81194750Y-53469000D01*
X79599000Y-53469000D01*
X79341000Y-53469000D01*
X79321000Y-53469000D01*
X79321000Y-53211000D01*
X79341000Y-53211000D01*
X79341000Y-51965250D01*
X79599000Y-51965250D01*
X79599000Y-53211000D01*
X81194750Y-53211000D01*
X81353000Y-53052750D01*
X81353000Y-52314088D01*
X81256631Y-52081434D01*
X81078565Y-51903368D01*
X80845911Y-51807000D01*
X79757250Y-51807000D01*
X79599000Y-51965250D01*
X79341000Y-51965250D01*
X79182750Y-51807000D01*
X78274776Y-51807000D01*
X78521776Y-51560000D01*
X85308224Y-51560000D01*
X86235000Y-52486776D01*
G36*
X95125000Y-37246776D02*
X95125000Y-42128224D01*
X94198224Y-43055000D01*
X89900000Y-43055000D01*
X89851368Y-43064848D01*
X89811612Y-43091612D01*
X88811612Y-44091612D01*
X88784187Y-44132963D01*
X88775000Y-44180000D01*
X88775000Y-45116138D01*
X88391635Y-44903004D01*
X88268582Y-44878474D01*
X88013000Y-44996842D01*
X88013000Y-46607000D01*
X88033000Y-46607000D01*
X88033000Y-46865000D01*
X88013000Y-46865000D01*
X88013000Y-48475158D01*
X88268582Y-48593526D01*
X88391635Y-48568996D01*
X88775000Y-48355862D01*
X88775000Y-49113224D01*
X87848224Y-50040000D01*
X78521776Y-50040000D01*
X78274776Y-49793000D01*
X79182750Y-49793000D01*
X79341000Y-49634750D01*
X79341000Y-48389000D01*
X79599000Y-48389000D01*
X79599000Y-49634750D01*
X79757250Y-49793000D01*
X80845911Y-49793000D01*
X81078565Y-49696632D01*
X81256631Y-49518566D01*
X81353000Y-49285912D01*
X81353000Y-48547250D01*
X81194750Y-48389000D01*
X79599000Y-48389000D01*
X79341000Y-48389000D01*
X79321000Y-48389000D01*
X79321000Y-48131000D01*
X79341000Y-48131000D01*
X79341000Y-46885250D01*
X79599000Y-46885250D01*
X79599000Y-48131000D01*
X81194750Y-48131000D01*
X81353000Y-47972750D01*
X81353000Y-47234088D01*
X81256631Y-47001434D01*
X81078565Y-46823368D01*
X80845911Y-46727000D01*
X79757250Y-46727000D01*
X79599000Y-46885250D01*
X79341000Y-46885250D01*
X79182750Y-46727000D01*
X78094089Y-46727000D01*
X77861435Y-46823368D01*
X77683369Y-47001434D01*
X77587000Y-47234088D01*
X77587000Y-47315494D01*
X77585152Y-47306368D01*
X77558388Y-47266612D01*
X76736651Y-46444875D01*
X83703000Y-46444875D01*
X83703000Y-47027125D01*
X83827914Y-47655109D01*
X84183638Y-48187487D01*
X84716016Y-48543211D01*
X85344000Y-48668125D01*
X85971984Y-48543211D01*
X86504362Y-48187487D01*
X86620113Y-48014254D01*
X86810751Y-48254539D01*
X87376365Y-48568996D01*
X87499418Y-48593526D01*
X87755000Y-48475158D01*
X87755000Y-46865000D01*
X87735000Y-46865000D01*
X87735000Y-46607000D01*
X87755000Y-46607000D01*
X87755000Y-44996842D01*
X87499418Y-44878474D01*
X87376365Y-44903004D01*
X86810751Y-45217461D01*
X86620113Y-45457746D01*
X86504362Y-45284513D01*
X85971984Y-44928789D01*
X85344000Y-44803875D01*
X84716016Y-44928789D01*
X84183638Y-45284513D01*
X83827914Y-45816891D01*
X83703000Y-46444875D01*
X76736651Y-46444875D01*
X76558388Y-46266612D01*
X76517037Y-46239187D01*
X76470000Y-46230000D01*
X72621185Y-46230000D01*
X72621185Y-45277250D01*
X72462935Y-45119000D01*
X71217185Y-45119000D01*
X71217185Y-45139000D01*
X70959185Y-45139000D01*
X70959185Y-45119000D01*
X70939185Y-45119000D01*
X70939185Y-44861000D01*
X70959185Y-44861000D01*
X70959185Y-43265250D01*
X71217185Y-43265250D01*
X71217185Y-44861000D01*
X72462935Y-44861000D01*
X72621185Y-44702750D01*
X72621185Y-43614089D01*
X72524817Y-43381435D01*
X72346751Y-43203369D01*
X72114097Y-43107000D01*
X71375435Y-43107000D01*
X71217185Y-43265250D01*
X70959185Y-43265250D01*
X70800935Y-43107000D01*
X70062273Y-43107000D01*
X69975000Y-43143150D01*
X69975000Y-40081208D01*
X73932709Y-40081208D01*
X73988660Y-40311003D01*
X74470998Y-40477938D01*
X74980503Y-40447584D01*
X75310242Y-40311003D01*
X75366193Y-40081208D01*
X91077709Y-40081208D01*
X91133660Y-40311003D01*
X91615998Y-40477938D01*
X92125503Y-40447584D01*
X92455242Y-40311003D01*
X92511193Y-40081208D01*
X91794451Y-39364467D01*
X91077709Y-40081208D01*
X75366193Y-40081208D01*
X74649451Y-39364467D01*
X73932709Y-40081208D01*
X69975000Y-40081208D01*
X69975000Y-39003580D01*
X73353546Y-39003580D01*
X73383900Y-39513085D01*
X73520481Y-39842824D01*
X73750276Y-39898775D01*
X74467017Y-39182033D01*
X74831885Y-39182033D01*
X75548626Y-39898775D01*
X75778421Y-39842824D01*
X75945356Y-39360486D01*
X75924094Y-39003580D01*
X90498546Y-39003580D01*
X90528900Y-39513085D01*
X90665481Y-39842824D01*
X90895276Y-39898775D01*
X91612017Y-39182033D01*
X91976885Y-39182033D01*
X92693626Y-39898775D01*
X92923421Y-39842824D01*
X93090356Y-39360486D01*
X93060002Y-38850981D01*
X92923421Y-38521242D01*
X92693626Y-38465291D01*
X91976885Y-39182033D01*
X91612017Y-39182033D01*
X90895276Y-38465291D01*
X90665481Y-38521242D01*
X90498546Y-39003580D01*
X75924094Y-39003580D01*
X75915002Y-38850981D01*
X75778421Y-38521242D01*
X75548626Y-38465291D01*
X74831885Y-39182033D01*
X74467017Y-39182033D01*
X73750276Y-38465291D01*
X73520481Y-38521242D01*
X73353546Y-39003580D01*
X69975000Y-39003580D01*
X69975000Y-38282858D01*
X73932709Y-38282858D01*
X74649451Y-38999599D01*
X75366193Y-38282858D01*
X91077709Y-38282858D01*
X91794451Y-38999599D01*
X92511193Y-38282858D01*
X92455242Y-38053063D01*
X91972904Y-37886128D01*
X91463399Y-37916482D01*
X91133660Y-38053063D01*
X91077709Y-38282858D01*
X75366193Y-38282858D01*
X75310242Y-38053063D01*
X74827904Y-37886128D01*
X74318399Y-37916482D01*
X73988660Y-38053063D01*
X73932709Y-38282858D01*
X69975000Y-38282858D01*
X69975000Y-37246776D01*
X70901776Y-36320000D01*
X94198224Y-36320000D01*
X95125000Y-37246776D01*
X95125000Y-37246776D01*
G37*
X95125000Y-37246776D02*
X95125000Y-42128224D01*
X94198224Y-43055000D01*
X89900000Y-43055000D01*
X89851368Y-43064848D01*
X89811612Y-43091612D01*
X88811612Y-44091612D01*
X88784187Y-44132963D01*
X88775000Y-44180000D01*
X88775000Y-45116138D01*
X88391635Y-44903004D01*
X88268582Y-44878474D01*
X88013000Y-44996842D01*
X88013000Y-46607000D01*
X88033000Y-46607000D01*
X88033000Y-46865000D01*
X88013000Y-46865000D01*
X88013000Y-48475158D01*
X88268582Y-48593526D01*
X88391635Y-48568996D01*
X88775000Y-48355862D01*
X88775000Y-49113224D01*
X87848224Y-50040000D01*
X78521776Y-50040000D01*
X78274776Y-49793000D01*
X79182750Y-49793000D01*
X79341000Y-49634750D01*
X79341000Y-48389000D01*
X79599000Y-48389000D01*
X79599000Y-49634750D01*
X79757250Y-49793000D01*
X80845911Y-49793000D01*
X81078565Y-49696632D01*
X81256631Y-49518566D01*
X81353000Y-49285912D01*
X81353000Y-48547250D01*
X81194750Y-48389000D01*
X79599000Y-48389000D01*
X79341000Y-48389000D01*
X79321000Y-48389000D01*
X79321000Y-48131000D01*
X79341000Y-48131000D01*
X79341000Y-46885250D01*
X79599000Y-46885250D01*
X79599000Y-48131000D01*
X81194750Y-48131000D01*
X81353000Y-47972750D01*
X81353000Y-47234088D01*
X81256631Y-47001434D01*
X81078565Y-46823368D01*
X80845911Y-46727000D01*
X79757250Y-46727000D01*
X79599000Y-46885250D01*
X79341000Y-46885250D01*
X79182750Y-46727000D01*
X78094089Y-46727000D01*
X77861435Y-46823368D01*
X77683369Y-47001434D01*
X77587000Y-47234088D01*
X77587000Y-47315494D01*
X77585152Y-47306368D01*
X77558388Y-47266612D01*
X76736651Y-46444875D01*
X83703000Y-46444875D01*
X83703000Y-47027125D01*
X83827914Y-47655109D01*
X84183638Y-48187487D01*
X84716016Y-48543211D01*
X85344000Y-48668125D01*
X85971984Y-48543211D01*
X86504362Y-48187487D01*
X86620113Y-48014254D01*
X86810751Y-48254539D01*
X87376365Y-48568996D01*
X87499418Y-48593526D01*
X87755000Y-48475158D01*
X87755000Y-46865000D01*
X87735000Y-46865000D01*
X87735000Y-46607000D01*
X87755000Y-46607000D01*
X87755000Y-44996842D01*
X87499418Y-44878474D01*
X87376365Y-44903004D01*
X86810751Y-45217461D01*
X86620113Y-45457746D01*
X86504362Y-45284513D01*
X85971984Y-44928789D01*
X85344000Y-44803875D01*
X84716016Y-44928789D01*
X84183638Y-45284513D01*
X83827914Y-45816891D01*
X83703000Y-46444875D01*
X76736651Y-46444875D01*
X76558388Y-46266612D01*
X76517037Y-46239187D01*
X76470000Y-46230000D01*
X72621185Y-46230000D01*
X72621185Y-45277250D01*
X72462935Y-45119000D01*
X71217185Y-45119000D01*
X71217185Y-45139000D01*
X70959185Y-45139000D01*
X70959185Y-45119000D01*
X70939185Y-45119000D01*
X70939185Y-44861000D01*
X70959185Y-44861000D01*
X70959185Y-43265250D01*
X71217185Y-43265250D01*
X71217185Y-44861000D01*
X72462935Y-44861000D01*
X72621185Y-44702750D01*
X72621185Y-43614089D01*
X72524817Y-43381435D01*
X72346751Y-43203369D01*
X72114097Y-43107000D01*
X71375435Y-43107000D01*
X71217185Y-43265250D01*
X70959185Y-43265250D01*
X70800935Y-43107000D01*
X70062273Y-43107000D01*
X69975000Y-43143150D01*
X69975000Y-40081208D01*
X73932709Y-40081208D01*
X73988660Y-40311003D01*
X74470998Y-40477938D01*
X74980503Y-40447584D01*
X75310242Y-40311003D01*
X75366193Y-40081208D01*
X91077709Y-40081208D01*
X91133660Y-40311003D01*
X91615998Y-40477938D01*
X92125503Y-40447584D01*
X92455242Y-40311003D01*
X92511193Y-40081208D01*
X91794451Y-39364467D01*
X91077709Y-40081208D01*
X75366193Y-40081208D01*
X74649451Y-39364467D01*
X73932709Y-40081208D01*
X69975000Y-40081208D01*
X69975000Y-39003580D01*
X73353546Y-39003580D01*
X73383900Y-39513085D01*
X73520481Y-39842824D01*
X73750276Y-39898775D01*
X74467017Y-39182033D01*
X74831885Y-39182033D01*
X75548626Y-39898775D01*
X75778421Y-39842824D01*
X75945356Y-39360486D01*
X75924094Y-39003580D01*
X90498546Y-39003580D01*
X90528900Y-39513085D01*
X90665481Y-39842824D01*
X90895276Y-39898775D01*
X91612017Y-39182033D01*
X91976885Y-39182033D01*
X92693626Y-39898775D01*
X92923421Y-39842824D01*
X93090356Y-39360486D01*
X93060002Y-38850981D01*
X92923421Y-38521242D01*
X92693626Y-38465291D01*
X91976885Y-39182033D01*
X91612017Y-39182033D01*
X90895276Y-38465291D01*
X90665481Y-38521242D01*
X90498546Y-39003580D01*
X75924094Y-39003580D01*
X75915002Y-38850981D01*
X75778421Y-38521242D01*
X75548626Y-38465291D01*
X74831885Y-39182033D01*
X74467017Y-39182033D01*
X73750276Y-38465291D01*
X73520481Y-38521242D01*
X73353546Y-39003580D01*
X69975000Y-39003580D01*
X69975000Y-38282858D01*
X73932709Y-38282858D01*
X74649451Y-38999599D01*
X75366193Y-38282858D01*
X91077709Y-38282858D01*
X91794451Y-38999599D01*
X92511193Y-38282858D01*
X92455242Y-38053063D01*
X91972904Y-37886128D01*
X91463399Y-37916482D01*
X91133660Y-38053063D01*
X91077709Y-38282858D01*
X75366193Y-38282858D01*
X75310242Y-38053063D01*
X74827904Y-37886128D01*
X74318399Y-37916482D01*
X73988660Y-38053063D01*
X73932709Y-38282858D01*
X69975000Y-38282858D01*
X69975000Y-37246776D01*
X70901776Y-36320000D01*
X94198224Y-36320000D01*
X95125000Y-37246776D01*
M02*
