G04 #@! TF.FileFunction,Legend,Top*
%FSLAX46Y46*%
G04 Gerber Fmt 4.6, Leading zero omitted, Abs format (unit mm)*
G04 Created by KiCad (PCBNEW 4.0.5-e0-6337~49~ubuntu15.04.1) date Thu Oct 26 21:35:40 2017*
%MOMM*%
%LPD*%
G01*
G04 APERTURE LIST*
%ADD10C,0.100000*%
%ADD11C,0.300000*%
%ADD12C,0.120000*%
%ADD13C,0.150000*%
%ADD14C,0.010000*%
G04 APERTURE END LIST*
D10*
D11*
X147998571Y-62121428D02*
X146498571Y-62121428D01*
X147212857Y-62121428D02*
X147212857Y-61264285D01*
X147998571Y-61264285D02*
X146498571Y-61264285D01*
X147927143Y-59978571D02*
X147998571Y-60121428D01*
X147998571Y-60407142D01*
X147927143Y-60549999D01*
X147784286Y-60621428D01*
X147212857Y-60621428D01*
X147070000Y-60549999D01*
X146998571Y-60407142D01*
X146998571Y-60121428D01*
X147070000Y-59978571D01*
X147212857Y-59907142D01*
X147355714Y-59907142D01*
X147498571Y-60621428D01*
X147998571Y-58621428D02*
X147212857Y-58621428D01*
X147070000Y-58692857D01*
X146998571Y-58835714D01*
X146998571Y-59121428D01*
X147070000Y-59264285D01*
X147927143Y-58621428D02*
X147998571Y-58764285D01*
X147998571Y-59121428D01*
X147927143Y-59264285D01*
X147784286Y-59335714D01*
X147641429Y-59335714D01*
X147498571Y-59264285D01*
X147427143Y-59121428D01*
X147427143Y-58764285D01*
X147355714Y-58621428D01*
X147998571Y-57264285D02*
X146498571Y-57264285D01*
X147927143Y-57264285D02*
X147998571Y-57407142D01*
X147998571Y-57692856D01*
X147927143Y-57835714D01*
X147855714Y-57907142D01*
X147712857Y-57978571D01*
X147284286Y-57978571D01*
X147141429Y-57907142D01*
X147070000Y-57835714D01*
X146998571Y-57692856D01*
X146998571Y-57407142D01*
X147070000Y-57264285D01*
X146998571Y-56549999D02*
X148498571Y-56549999D01*
X147070000Y-56549999D02*
X146998571Y-56407142D01*
X146998571Y-56121428D01*
X147070000Y-55978571D01*
X147141429Y-55907142D01*
X147284286Y-55835713D01*
X147712857Y-55835713D01*
X147855714Y-55907142D01*
X147927143Y-55978571D01*
X147998571Y-56121428D01*
X147998571Y-56407142D01*
X147927143Y-56549999D01*
X147998571Y-55192856D02*
X146498571Y-55192856D01*
X147998571Y-54549999D02*
X147212857Y-54549999D01*
X147070000Y-54621428D01*
X146998571Y-54764285D01*
X146998571Y-54978570D01*
X147070000Y-55121428D01*
X147141429Y-55192856D01*
X147998571Y-53621427D02*
X147927143Y-53764285D01*
X147855714Y-53835713D01*
X147712857Y-53907142D01*
X147284286Y-53907142D01*
X147141429Y-53835713D01*
X147070000Y-53764285D01*
X146998571Y-53621427D01*
X146998571Y-53407142D01*
X147070000Y-53264285D01*
X147141429Y-53192856D01*
X147284286Y-53121427D01*
X147712857Y-53121427D01*
X147855714Y-53192856D01*
X147927143Y-53264285D01*
X147998571Y-53407142D01*
X147998571Y-53621427D01*
X146998571Y-52478570D02*
X147998571Y-52478570D01*
X147141429Y-52478570D02*
X147070000Y-52407142D01*
X146998571Y-52264284D01*
X146998571Y-52049999D01*
X147070000Y-51907142D01*
X147212857Y-51835713D01*
X147998571Y-51835713D01*
X147927143Y-50549999D02*
X147998571Y-50692856D01*
X147998571Y-50978570D01*
X147927143Y-51121427D01*
X147784286Y-51192856D01*
X147212857Y-51192856D01*
X147070000Y-51121427D01*
X146998571Y-50978570D01*
X146998571Y-50692856D01*
X147070000Y-50549999D01*
X147212857Y-50478570D01*
X147355714Y-50478570D01*
X147498571Y-51192856D01*
X147570000Y-48764285D02*
X147570000Y-48049999D01*
X147998571Y-48907142D02*
X146498571Y-48407142D01*
X147998571Y-47907142D01*
X147998571Y-47407142D02*
X146998571Y-47407142D01*
X147141429Y-47407142D02*
X147070000Y-47335714D01*
X146998571Y-47192856D01*
X146998571Y-46978571D01*
X147070000Y-46835714D01*
X147212857Y-46764285D01*
X147998571Y-46764285D01*
X147212857Y-46764285D02*
X147070000Y-46692856D01*
X146998571Y-46549999D01*
X146998571Y-46335714D01*
X147070000Y-46192856D01*
X147212857Y-46121428D01*
X147998571Y-46121428D01*
X146998571Y-45407142D02*
X148498571Y-45407142D01*
X147070000Y-45407142D02*
X146998571Y-45264285D01*
X146998571Y-44978571D01*
X147070000Y-44835714D01*
X147141429Y-44764285D01*
X147284286Y-44692856D01*
X147712857Y-44692856D01*
X147855714Y-44764285D01*
X147927143Y-44835714D01*
X147998571Y-44978571D01*
X147998571Y-45264285D01*
X147927143Y-45407142D01*
X147998571Y-43835713D02*
X147927143Y-43978571D01*
X147784286Y-44049999D01*
X146498571Y-44049999D01*
X147998571Y-43264285D02*
X146998571Y-43264285D01*
X146498571Y-43264285D02*
X146570000Y-43335714D01*
X146641429Y-43264285D01*
X146570000Y-43192857D01*
X146498571Y-43264285D01*
X146641429Y-43264285D01*
X146998571Y-42764285D02*
X146998571Y-42192856D01*
X147998571Y-42549999D02*
X146712857Y-42549999D01*
X146570000Y-42478571D01*
X146498571Y-42335713D01*
X146498571Y-42192856D01*
X147998571Y-41692856D02*
X146998571Y-41692856D01*
X146498571Y-41692856D02*
X146570000Y-41764285D01*
X146641429Y-41692856D01*
X146570000Y-41621428D01*
X146498571Y-41692856D01*
X146641429Y-41692856D01*
X147927143Y-40407142D02*
X147998571Y-40549999D01*
X147998571Y-40835713D01*
X147927143Y-40978570D01*
X147784286Y-41049999D01*
X147212857Y-41049999D01*
X147070000Y-40978570D01*
X146998571Y-40835713D01*
X146998571Y-40549999D01*
X147070000Y-40407142D01*
X147212857Y-40335713D01*
X147355714Y-40335713D01*
X147498571Y-41049999D01*
X147998571Y-39692856D02*
X146998571Y-39692856D01*
X147284286Y-39692856D02*
X147141429Y-39621428D01*
X147070000Y-39549999D01*
X146998571Y-39407142D01*
X146998571Y-39264285D01*
X151150000Y-56328571D02*
X151435714Y-56328571D01*
X151578572Y-56400000D01*
X151721429Y-56542857D01*
X151792857Y-56828571D01*
X151792857Y-57328571D01*
X151721429Y-57614286D01*
X151578572Y-57757143D01*
X151435714Y-57828571D01*
X151150000Y-57828571D01*
X151007143Y-57757143D01*
X150864286Y-57614286D01*
X150792857Y-57328571D01*
X150792857Y-56828571D01*
X150864286Y-56542857D01*
X151007143Y-56400000D01*
X151150000Y-56328571D01*
X153078572Y-56828571D02*
X153078572Y-57828571D01*
X152435715Y-56828571D02*
X152435715Y-57614286D01*
X152507143Y-57757143D01*
X152650001Y-57828571D01*
X152864286Y-57828571D01*
X153007143Y-57757143D01*
X153078572Y-57685714D01*
X153578572Y-56828571D02*
X154150001Y-56828571D01*
X153792858Y-56328571D02*
X153792858Y-57614286D01*
X153864286Y-57757143D01*
X154007144Y-57828571D01*
X154150001Y-57828571D01*
X125039286Y-73068571D02*
X124539286Y-72354286D01*
X124182143Y-73068571D02*
X124182143Y-71568571D01*
X124753571Y-71568571D01*
X124896429Y-71640000D01*
X124967857Y-71711429D01*
X125039286Y-71854286D01*
X125039286Y-72068571D01*
X124967857Y-72211429D01*
X124896429Y-72282857D01*
X124753571Y-72354286D01*
X124182143Y-72354286D01*
X126825000Y-73068571D02*
X126825000Y-71568571D01*
X127539286Y-72068571D02*
X127539286Y-73068571D01*
X127539286Y-72211429D02*
X127610714Y-72140000D01*
X127753572Y-72068571D01*
X127967857Y-72068571D01*
X128110714Y-72140000D01*
X128182143Y-72282857D01*
X128182143Y-73068571D01*
X124896429Y-29888571D02*
X124182143Y-29888571D01*
X124182143Y-28388571D01*
X126539286Y-29888571D02*
X126539286Y-28388571D01*
X127253572Y-28888571D02*
X127253572Y-29888571D01*
X127253572Y-29031429D02*
X127325000Y-28960000D01*
X127467858Y-28888571D01*
X127682143Y-28888571D01*
X127825000Y-28960000D01*
X127896429Y-29102857D01*
X127896429Y-29888571D01*
X60408572Y-59797143D02*
X60480001Y-59725714D01*
X60622858Y-59654286D01*
X60908572Y-59797143D01*
X61051429Y-59725714D01*
X61122858Y-59654286D01*
X62480001Y-60368571D02*
X61622858Y-60368571D01*
X62051430Y-60368571D02*
X62051430Y-58868571D01*
X61908573Y-59082857D01*
X61765715Y-59225714D01*
X61622858Y-59297143D01*
X63051429Y-59011429D02*
X63122858Y-58940000D01*
X63265715Y-58868571D01*
X63622858Y-58868571D01*
X63765715Y-58940000D01*
X63837144Y-59011429D01*
X63908572Y-59154286D01*
X63908572Y-59297143D01*
X63837144Y-59511429D01*
X62980001Y-60368571D01*
X63908572Y-60368571D01*
X59765715Y-42017143D02*
X59837144Y-41945714D01*
X59980001Y-41874286D01*
X60265715Y-42017143D01*
X60408572Y-41945714D01*
X60480001Y-41874286D01*
X61837144Y-42588571D02*
X60980001Y-42588571D01*
X61408573Y-42588571D02*
X61408573Y-41088571D01*
X61265716Y-41302857D01*
X61122858Y-41445714D01*
X60980001Y-41517143D01*
X62408572Y-41231429D02*
X62480001Y-41160000D01*
X62622858Y-41088571D01*
X62980001Y-41088571D01*
X63122858Y-41160000D01*
X63194287Y-41231429D01*
X63265715Y-41374286D01*
X63265715Y-41517143D01*
X63194287Y-41731429D01*
X62337144Y-42588571D01*
X63265715Y-42588571D01*
X63694286Y-41088571D02*
X64194286Y-42588571D01*
X64694286Y-41088571D01*
D12*
X153730000Y-46930000D02*
X151070000Y-46930000D01*
X153730000Y-52070000D02*
X153730000Y-46930000D01*
X151070000Y-52070000D02*
X151070000Y-46930000D01*
X153730000Y-52070000D02*
X151070000Y-52070000D01*
X153730000Y-53340000D02*
X153730000Y-54670000D01*
X153730000Y-54670000D02*
X152400000Y-54670000D01*
X125460000Y-64385000D02*
X123460000Y-64385000D01*
X123460000Y-66425000D02*
X125460000Y-66425000D01*
X113090000Y-61960000D02*
G75*
G02X113090000Y-59960000I0J1000000D01*
G01*
X113090000Y-59960000D02*
X113090000Y-58310000D01*
X113090000Y-58310000D02*
X102810000Y-58310000D01*
X102810000Y-58310000D02*
X102810000Y-63610000D01*
X102810000Y-63610000D02*
X113090000Y-63610000D01*
X113090000Y-63610000D02*
X113090000Y-61960000D01*
X113150000Y-55820000D02*
X102750000Y-55820000D01*
X102750000Y-55820000D02*
X102750000Y-66100000D01*
X102750000Y-66100000D02*
X113150000Y-66100000D01*
X113150000Y-66100000D02*
X113150000Y-55820000D01*
D13*
X104505000Y-28820000D02*
X102505000Y-28820000D01*
X102505000Y-30870000D02*
X104505000Y-30870000D01*
X116087000Y-64270000D02*
X116087000Y-62270000D01*
X114037000Y-62270000D02*
X114037000Y-64270000D01*
X104100000Y-52823000D02*
X102100000Y-52823000D01*
X102100000Y-54873000D02*
X104100000Y-54873000D01*
X82649451Y-65987033D02*
X66649451Y-65987033D01*
X82646451Y-66127033D02*
X66652451Y-66127033D01*
X82641451Y-66267033D02*
X66657451Y-66267033D01*
X82634451Y-66407033D02*
X66664451Y-66407033D01*
X82624451Y-66547033D02*
X66674451Y-66547033D01*
X82611451Y-66687033D02*
X66687451Y-66687033D01*
X82597451Y-66827033D02*
X66701451Y-66827033D01*
X82579451Y-66967033D02*
X66719451Y-66967033D01*
X82559451Y-67107033D02*
X66739451Y-67107033D01*
X82537451Y-67247033D02*
X66761451Y-67247033D01*
X82512451Y-67387033D02*
X66786451Y-67387033D01*
X82484451Y-67527033D02*
X66814451Y-67527033D01*
X82454451Y-67667033D02*
X66844451Y-67667033D01*
X82421451Y-67807033D02*
X66877451Y-67807033D01*
X82386451Y-67947033D02*
X66912451Y-67947033D01*
X82348451Y-68087033D02*
X66950451Y-68087033D01*
X82307451Y-68227033D02*
X66991451Y-68227033D01*
X82263451Y-68367033D02*
X67035451Y-68367033D01*
X82216451Y-68507033D02*
X67082451Y-68507033D01*
X82167451Y-68647033D02*
X67131451Y-68647033D01*
X82115451Y-68787033D02*
X75133451Y-68787033D01*
X74165451Y-68787033D02*
X67183451Y-68787033D01*
X82059451Y-68927033D02*
X75327451Y-68927033D01*
X73971451Y-68927033D02*
X67239451Y-68927033D01*
X82001451Y-69067033D02*
X75453451Y-69067033D01*
X73845451Y-69067033D02*
X67297451Y-69067033D01*
X81939451Y-69207033D02*
X75539451Y-69207033D01*
X73759451Y-69207033D02*
X67359451Y-69207033D01*
X81874451Y-69347033D02*
X75598451Y-69347033D01*
X73700451Y-69347033D02*
X67424451Y-69347033D01*
X81806451Y-69487033D02*
X75634451Y-69487033D01*
X73664451Y-69487033D02*
X67492451Y-69487033D01*
X81734451Y-69627033D02*
X75648451Y-69627033D01*
X73650451Y-69627033D02*
X67564451Y-69627033D01*
X81659451Y-69767033D02*
X75643451Y-69767033D01*
X73655451Y-69767033D02*
X67639451Y-69767033D01*
X81580451Y-69907033D02*
X75619451Y-69907033D01*
X73679451Y-69907033D02*
X67718451Y-69907033D01*
X81497451Y-70047033D02*
X75572451Y-70047033D01*
X73726451Y-70047033D02*
X67801451Y-70047033D01*
X81411451Y-70187033D02*
X75500451Y-70187033D01*
X73798451Y-70187033D02*
X67887451Y-70187033D01*
X81320451Y-70327033D02*
X75396451Y-70327033D01*
X73902451Y-70327033D02*
X67978451Y-70327033D01*
X81226451Y-70467033D02*
X75242451Y-70467033D01*
X74056451Y-70467033D02*
X68072451Y-70467033D01*
X81126451Y-70607033D02*
X74976451Y-70607033D01*
X74322451Y-70607033D02*
X68172451Y-70607033D01*
X81023451Y-70747033D02*
X68275451Y-70747033D01*
X80914451Y-70887033D02*
X68384451Y-70887033D01*
X80800451Y-71027033D02*
X68498451Y-71027033D01*
X80681451Y-71167033D02*
X68617451Y-71167033D01*
X80556451Y-71307033D02*
X68742451Y-71307033D01*
X80425451Y-71447033D02*
X68873451Y-71447033D01*
X80288451Y-71587033D02*
X69010451Y-71587033D01*
X80143451Y-71727033D02*
X69155451Y-71727033D01*
X79991451Y-71867033D02*
X69307451Y-71867033D01*
X79831451Y-72007033D02*
X69467451Y-72007033D01*
X79661451Y-72147033D02*
X69637451Y-72147033D01*
X79482451Y-72287033D02*
X69816451Y-72287033D01*
X79292451Y-72427033D02*
X70006451Y-72427033D01*
X79089451Y-72567033D02*
X70209451Y-72567033D01*
X78871451Y-72707033D02*
X70427451Y-72707033D01*
X78637451Y-72847033D02*
X70661451Y-72847033D01*
X78383451Y-72987033D02*
X70915451Y-72987033D01*
X78105451Y-73127033D02*
X71193451Y-73127033D01*
X77796451Y-73267033D02*
X71502451Y-73267033D01*
X77446451Y-73407033D02*
X71852451Y-73407033D01*
X77038451Y-73547033D02*
X72260451Y-73547033D01*
X76533451Y-73687033D02*
X72765451Y-73687033D01*
X75812451Y-73827033D02*
X73486451Y-73827033D01*
X75649451Y-69662033D02*
G75*
G03X75649451Y-69662033I-1000000J0D01*
G01*
X82686951Y-65912033D02*
G75*
G03X82686951Y-65912033I-8037500J0D01*
G01*
X99794451Y-35507033D02*
X83794451Y-35507033D01*
X99791451Y-35647033D02*
X83797451Y-35647033D01*
X99786451Y-35787033D02*
X83802451Y-35787033D01*
X99779451Y-35927033D02*
X83809451Y-35927033D01*
X99769451Y-36067033D02*
X83819451Y-36067033D01*
X99756451Y-36207033D02*
X83832451Y-36207033D01*
X99742451Y-36347033D02*
X83846451Y-36347033D01*
X99724451Y-36487033D02*
X83864451Y-36487033D01*
X99704451Y-36627033D02*
X83884451Y-36627033D01*
X99682451Y-36767033D02*
X83906451Y-36767033D01*
X99657451Y-36907033D02*
X83931451Y-36907033D01*
X99629451Y-37047033D02*
X83959451Y-37047033D01*
X99599451Y-37187033D02*
X83989451Y-37187033D01*
X99566451Y-37327033D02*
X84022451Y-37327033D01*
X99531451Y-37467033D02*
X84057451Y-37467033D01*
X99493451Y-37607033D02*
X84095451Y-37607033D01*
X99452451Y-37747033D02*
X84136451Y-37747033D01*
X99408451Y-37887033D02*
X84180451Y-37887033D01*
X99361451Y-38027033D02*
X84227451Y-38027033D01*
X99312451Y-38167033D02*
X84276451Y-38167033D01*
X99260451Y-38307033D02*
X92278451Y-38307033D01*
X91310451Y-38307033D02*
X84328451Y-38307033D01*
X99204451Y-38447033D02*
X92472451Y-38447033D01*
X91116451Y-38447033D02*
X84384451Y-38447033D01*
X99146451Y-38587033D02*
X92598451Y-38587033D01*
X90990451Y-38587033D02*
X84442451Y-38587033D01*
X99084451Y-38727033D02*
X92684451Y-38727033D01*
X90904451Y-38727033D02*
X84504451Y-38727033D01*
X99019451Y-38867033D02*
X92743451Y-38867033D01*
X90845451Y-38867033D02*
X84569451Y-38867033D01*
X98951451Y-39007033D02*
X92779451Y-39007033D01*
X90809451Y-39007033D02*
X84637451Y-39007033D01*
X98879451Y-39147033D02*
X92793451Y-39147033D01*
X90795451Y-39147033D02*
X84709451Y-39147033D01*
X98804451Y-39287033D02*
X92788451Y-39287033D01*
X90800451Y-39287033D02*
X84784451Y-39287033D01*
X98725451Y-39427033D02*
X92764451Y-39427033D01*
X90824451Y-39427033D02*
X84863451Y-39427033D01*
X98642451Y-39567033D02*
X92717451Y-39567033D01*
X90871451Y-39567033D02*
X84946451Y-39567033D01*
X98556451Y-39707033D02*
X92645451Y-39707033D01*
X90943451Y-39707033D02*
X85032451Y-39707033D01*
X98465451Y-39847033D02*
X92541451Y-39847033D01*
X91047451Y-39847033D02*
X85123451Y-39847033D01*
X98371451Y-39987033D02*
X92387451Y-39987033D01*
X91201451Y-39987033D02*
X85217451Y-39987033D01*
X98271451Y-40127033D02*
X92121451Y-40127033D01*
X91467451Y-40127033D02*
X85317451Y-40127033D01*
X98168451Y-40267033D02*
X85420451Y-40267033D01*
X98059451Y-40407033D02*
X85529451Y-40407033D01*
X97945451Y-40547033D02*
X85643451Y-40547033D01*
X97826451Y-40687033D02*
X85762451Y-40687033D01*
X97701451Y-40827033D02*
X85887451Y-40827033D01*
X97570451Y-40967033D02*
X86018451Y-40967033D01*
X97433451Y-41107033D02*
X86155451Y-41107033D01*
X97288451Y-41247033D02*
X86300451Y-41247033D01*
X97136451Y-41387033D02*
X86452451Y-41387033D01*
X96976451Y-41527033D02*
X86612451Y-41527033D01*
X96806451Y-41667033D02*
X86782451Y-41667033D01*
X96627451Y-41807033D02*
X86961451Y-41807033D01*
X96437451Y-41947033D02*
X87151451Y-41947033D01*
X96234451Y-42087033D02*
X87354451Y-42087033D01*
X96016451Y-42227033D02*
X87572451Y-42227033D01*
X95782451Y-42367033D02*
X87806451Y-42367033D01*
X95528451Y-42507033D02*
X88060451Y-42507033D01*
X95250451Y-42647033D02*
X88338451Y-42647033D01*
X94941451Y-42787033D02*
X88647451Y-42787033D01*
X94591451Y-42927033D02*
X88997451Y-42927033D01*
X94183451Y-43067033D02*
X89405451Y-43067033D01*
X93678451Y-43207033D02*
X89910451Y-43207033D01*
X92957451Y-43347033D02*
X90631451Y-43347033D01*
X92794451Y-39182033D02*
G75*
G03X92794451Y-39182033I-1000000J0D01*
G01*
X99831951Y-35432033D02*
G75*
G03X99831951Y-35432033I-8037500J0D01*
G01*
X99794451Y-65987033D02*
X83794451Y-65987033D01*
X99791451Y-66127033D02*
X83797451Y-66127033D01*
X99786451Y-66267033D02*
X83802451Y-66267033D01*
X99779451Y-66407033D02*
X83809451Y-66407033D01*
X99769451Y-66547033D02*
X83819451Y-66547033D01*
X99756451Y-66687033D02*
X83832451Y-66687033D01*
X99742451Y-66827033D02*
X83846451Y-66827033D01*
X99724451Y-66967033D02*
X83864451Y-66967033D01*
X99704451Y-67107033D02*
X83884451Y-67107033D01*
X99682451Y-67247033D02*
X83906451Y-67247033D01*
X99657451Y-67387033D02*
X83931451Y-67387033D01*
X99629451Y-67527033D02*
X83959451Y-67527033D01*
X99599451Y-67667033D02*
X83989451Y-67667033D01*
X99566451Y-67807033D02*
X84022451Y-67807033D01*
X99531451Y-67947033D02*
X84057451Y-67947033D01*
X99493451Y-68087033D02*
X84095451Y-68087033D01*
X99452451Y-68227033D02*
X84136451Y-68227033D01*
X99408451Y-68367033D02*
X84180451Y-68367033D01*
X99361451Y-68507033D02*
X84227451Y-68507033D01*
X99312451Y-68647033D02*
X84276451Y-68647033D01*
X99260451Y-68787033D02*
X92278451Y-68787033D01*
X91310451Y-68787033D02*
X84328451Y-68787033D01*
X99204451Y-68927033D02*
X92472451Y-68927033D01*
X91116451Y-68927033D02*
X84384451Y-68927033D01*
X99146451Y-69067033D02*
X92598451Y-69067033D01*
X90990451Y-69067033D02*
X84442451Y-69067033D01*
X99084451Y-69207033D02*
X92684451Y-69207033D01*
X90904451Y-69207033D02*
X84504451Y-69207033D01*
X99019451Y-69347033D02*
X92743451Y-69347033D01*
X90845451Y-69347033D02*
X84569451Y-69347033D01*
X98951451Y-69487033D02*
X92779451Y-69487033D01*
X90809451Y-69487033D02*
X84637451Y-69487033D01*
X98879451Y-69627033D02*
X92793451Y-69627033D01*
X90795451Y-69627033D02*
X84709451Y-69627033D01*
X98804451Y-69767033D02*
X92788451Y-69767033D01*
X90800451Y-69767033D02*
X84784451Y-69767033D01*
X98725451Y-69907033D02*
X92764451Y-69907033D01*
X90824451Y-69907033D02*
X84863451Y-69907033D01*
X98642451Y-70047033D02*
X92717451Y-70047033D01*
X90871451Y-70047033D02*
X84946451Y-70047033D01*
X98556451Y-70187033D02*
X92645451Y-70187033D01*
X90943451Y-70187033D02*
X85032451Y-70187033D01*
X98465451Y-70327033D02*
X92541451Y-70327033D01*
X91047451Y-70327033D02*
X85123451Y-70327033D01*
X98371451Y-70467033D02*
X92387451Y-70467033D01*
X91201451Y-70467033D02*
X85217451Y-70467033D01*
X98271451Y-70607033D02*
X92121451Y-70607033D01*
X91467451Y-70607033D02*
X85317451Y-70607033D01*
X98168451Y-70747033D02*
X85420451Y-70747033D01*
X98059451Y-70887033D02*
X85529451Y-70887033D01*
X97945451Y-71027033D02*
X85643451Y-71027033D01*
X97826451Y-71167033D02*
X85762451Y-71167033D01*
X97701451Y-71307033D02*
X85887451Y-71307033D01*
X97570451Y-71447033D02*
X86018451Y-71447033D01*
X97433451Y-71587033D02*
X86155451Y-71587033D01*
X97288451Y-71727033D02*
X86300451Y-71727033D01*
X97136451Y-71867033D02*
X86452451Y-71867033D01*
X96976451Y-72007033D02*
X86612451Y-72007033D01*
X96806451Y-72147033D02*
X86782451Y-72147033D01*
X96627451Y-72287033D02*
X86961451Y-72287033D01*
X96437451Y-72427033D02*
X87151451Y-72427033D01*
X96234451Y-72567033D02*
X87354451Y-72567033D01*
X96016451Y-72707033D02*
X87572451Y-72707033D01*
X95782451Y-72847033D02*
X87806451Y-72847033D01*
X95528451Y-72987033D02*
X88060451Y-72987033D01*
X95250451Y-73127033D02*
X88338451Y-73127033D01*
X94941451Y-73267033D02*
X88647451Y-73267033D01*
X94591451Y-73407033D02*
X88997451Y-73407033D01*
X94183451Y-73547033D02*
X89405451Y-73547033D01*
X93678451Y-73687033D02*
X89910451Y-73687033D01*
X92957451Y-73827033D02*
X90631451Y-73827033D01*
X92794451Y-69662033D02*
G75*
G03X92794451Y-69662033I-1000000J0D01*
G01*
X99831951Y-65912033D02*
G75*
G03X99831951Y-65912033I-8037500J0D01*
G01*
X82649451Y-35507033D02*
X66649451Y-35507033D01*
X82646451Y-35647033D02*
X66652451Y-35647033D01*
X82641451Y-35787033D02*
X66657451Y-35787033D01*
X82634451Y-35927033D02*
X66664451Y-35927033D01*
X82624451Y-36067033D02*
X66674451Y-36067033D01*
X82611451Y-36207033D02*
X66687451Y-36207033D01*
X82597451Y-36347033D02*
X66701451Y-36347033D01*
X82579451Y-36487033D02*
X66719451Y-36487033D01*
X82559451Y-36627033D02*
X66739451Y-36627033D01*
X82537451Y-36767033D02*
X66761451Y-36767033D01*
X82512451Y-36907033D02*
X66786451Y-36907033D01*
X82484451Y-37047033D02*
X66814451Y-37047033D01*
X82454451Y-37187033D02*
X66844451Y-37187033D01*
X82421451Y-37327033D02*
X66877451Y-37327033D01*
X82386451Y-37467033D02*
X66912451Y-37467033D01*
X82348451Y-37607033D02*
X66950451Y-37607033D01*
X82307451Y-37747033D02*
X66991451Y-37747033D01*
X82263451Y-37887033D02*
X67035451Y-37887033D01*
X82216451Y-38027033D02*
X67082451Y-38027033D01*
X82167451Y-38167033D02*
X67131451Y-38167033D01*
X82115451Y-38307033D02*
X75133451Y-38307033D01*
X74165451Y-38307033D02*
X67183451Y-38307033D01*
X82059451Y-38447033D02*
X75327451Y-38447033D01*
X73971451Y-38447033D02*
X67239451Y-38447033D01*
X82001451Y-38587033D02*
X75453451Y-38587033D01*
X73845451Y-38587033D02*
X67297451Y-38587033D01*
X81939451Y-38727033D02*
X75539451Y-38727033D01*
X73759451Y-38727033D02*
X67359451Y-38727033D01*
X81874451Y-38867033D02*
X75598451Y-38867033D01*
X73700451Y-38867033D02*
X67424451Y-38867033D01*
X81806451Y-39007033D02*
X75634451Y-39007033D01*
X73664451Y-39007033D02*
X67492451Y-39007033D01*
X81734451Y-39147033D02*
X75648451Y-39147033D01*
X73650451Y-39147033D02*
X67564451Y-39147033D01*
X81659451Y-39287033D02*
X75643451Y-39287033D01*
X73655451Y-39287033D02*
X67639451Y-39287033D01*
X81580451Y-39427033D02*
X75619451Y-39427033D01*
X73679451Y-39427033D02*
X67718451Y-39427033D01*
X81497451Y-39567033D02*
X75572451Y-39567033D01*
X73726451Y-39567033D02*
X67801451Y-39567033D01*
X81411451Y-39707033D02*
X75500451Y-39707033D01*
X73798451Y-39707033D02*
X67887451Y-39707033D01*
X81320451Y-39847033D02*
X75396451Y-39847033D01*
X73902451Y-39847033D02*
X67978451Y-39847033D01*
X81226451Y-39987033D02*
X75242451Y-39987033D01*
X74056451Y-39987033D02*
X68072451Y-39987033D01*
X81126451Y-40127033D02*
X74976451Y-40127033D01*
X74322451Y-40127033D02*
X68172451Y-40127033D01*
X81023451Y-40267033D02*
X68275451Y-40267033D01*
X80914451Y-40407033D02*
X68384451Y-40407033D01*
X80800451Y-40547033D02*
X68498451Y-40547033D01*
X80681451Y-40687033D02*
X68617451Y-40687033D01*
X80556451Y-40827033D02*
X68742451Y-40827033D01*
X80425451Y-40967033D02*
X68873451Y-40967033D01*
X80288451Y-41107033D02*
X69010451Y-41107033D01*
X80143451Y-41247033D02*
X69155451Y-41247033D01*
X79991451Y-41387033D02*
X69307451Y-41387033D01*
X79831451Y-41527033D02*
X69467451Y-41527033D01*
X79661451Y-41667033D02*
X69637451Y-41667033D01*
X79482451Y-41807033D02*
X69816451Y-41807033D01*
X79292451Y-41947033D02*
X70006451Y-41947033D01*
X79089451Y-42087033D02*
X70209451Y-42087033D01*
X78871451Y-42227033D02*
X70427451Y-42227033D01*
X78637451Y-42367033D02*
X70661451Y-42367033D01*
X78383451Y-42507033D02*
X70915451Y-42507033D01*
X78105451Y-42647033D02*
X71193451Y-42647033D01*
X77796451Y-42787033D02*
X71502451Y-42787033D01*
X77446451Y-42927033D02*
X71852451Y-42927033D01*
X77038451Y-43067033D02*
X72260451Y-43067033D01*
X76533451Y-43207033D02*
X72765451Y-43207033D01*
X75812451Y-43347033D02*
X73486451Y-43347033D01*
X75649451Y-39182033D02*
G75*
G03X75649451Y-39182033I-1000000J0D01*
G01*
X82686951Y-35432033D02*
G75*
G03X82686951Y-35432033I-8037500J0D01*
G01*
X95756456Y-54514640D02*
X95756456Y-53514640D01*
X94056456Y-53514640D02*
X94056456Y-54514640D01*
X95756456Y-47910640D02*
X95756456Y-46910640D01*
X94056456Y-46910640D02*
X94056456Y-47910640D01*
X110836000Y-30720000D02*
X109636000Y-30720000D01*
X109636000Y-28970000D02*
X110836000Y-28970000D01*
X105064000Y-46369000D02*
X106264000Y-46369000D01*
X106264000Y-48119000D02*
X105064000Y-48119000D01*
X110836000Y-54723000D02*
X109636000Y-54723000D01*
X109636000Y-52973000D02*
X110836000Y-52973000D01*
X104810000Y-70880000D02*
X106010000Y-70880000D01*
X106010000Y-72630000D02*
X104810000Y-72630000D01*
X109636000Y-46369000D02*
X110836000Y-46369000D01*
X110836000Y-48119000D02*
X109636000Y-48119000D01*
X109636000Y-70880000D02*
X110836000Y-70880000D01*
X110836000Y-72630000D02*
X109636000Y-72630000D01*
X109636000Y-42813000D02*
X110836000Y-42813000D01*
X110836000Y-44563000D02*
X109636000Y-44563000D01*
X109636000Y-67070000D02*
X110836000Y-67070000D01*
X110836000Y-68820000D02*
X109636000Y-68820000D01*
X113192000Y-42813000D02*
X114392000Y-42813000D01*
X114392000Y-44563000D02*
X113192000Y-44563000D01*
X113192000Y-67070000D02*
X114392000Y-67070000D01*
X114392000Y-68820000D02*
X113192000Y-68820000D01*
D10*
X121805000Y-47045000D02*
X127805000Y-47045000D01*
X121805000Y-38045000D02*
X127805000Y-38045000D01*
X127805000Y-36795000D02*
X127805000Y-48295000D01*
X137805000Y-36795000D02*
X137805000Y-48295000D01*
X127805000Y-36795000D02*
X137805000Y-36795000D01*
X121805000Y-47045000D02*
X121805000Y-38045000D01*
X137805000Y-48295000D02*
X127805000Y-48295000D01*
X121805000Y-63555000D02*
X127805000Y-63555000D01*
X121805000Y-54555000D02*
X127805000Y-54555000D01*
X127805000Y-53305000D02*
X127805000Y-64805000D01*
X137805000Y-53305000D02*
X137805000Y-64805000D01*
X127805000Y-53305000D02*
X137805000Y-53305000D01*
X121805000Y-63555000D02*
X121805000Y-54555000D01*
X137805000Y-64805000D02*
X127805000Y-64805000D01*
D13*
X92710000Y-53213000D02*
X92710000Y-56642000D01*
X83058000Y-53213000D02*
X83058000Y-56642000D01*
X93218000Y-52070000D02*
X82550000Y-52070000D01*
X89662000Y-53086000D02*
X89662000Y-51816000D01*
X86106000Y-53086000D02*
X86106000Y-51816000D01*
X82550000Y-53213000D02*
X93218000Y-53213000D01*
X93218000Y-56642000D02*
X82550000Y-56642000D01*
X82550000Y-51816000D02*
X82550000Y-56642000D01*
X93218000Y-51816000D02*
X93218000Y-56642000D01*
X93218000Y-51816000D02*
X82550000Y-51816000D01*
X83058000Y-48387000D02*
X83058000Y-44958000D01*
X92710000Y-48387000D02*
X92710000Y-44958000D01*
X82550000Y-49530000D02*
X93218000Y-49530000D01*
X86106000Y-48514000D02*
X86106000Y-49784000D01*
X89662000Y-48514000D02*
X89662000Y-49784000D01*
X93218000Y-48387000D02*
X82550000Y-48387000D01*
X82550000Y-44958000D02*
X93218000Y-44958000D01*
X93218000Y-49784000D02*
X93218000Y-44958000D01*
X82550000Y-49784000D02*
X82550000Y-44958000D01*
X82550000Y-49784000D02*
X93218000Y-49784000D01*
X64584000Y-45800000D02*
G75*
G03X64584000Y-45800000I-2000000J0D01*
G01*
X66584000Y-48300000D02*
X67084000Y-48300000D01*
X66584000Y-53300000D02*
X67084000Y-53300000D01*
X64584000Y-50800000D02*
G75*
G03X64584000Y-50800000I-2000000J0D01*
G01*
X64584000Y-55800000D02*
G75*
G03X64584000Y-55800000I-2000000J0D01*
G01*
X65084000Y-58300000D02*
X65084000Y-43300000D01*
X60184000Y-58300000D02*
X60184000Y-43300000D01*
X66584000Y-58300000D02*
X66584000Y-43300000D01*
X67084000Y-58300000D02*
X67084000Y-43300000D01*
X67084000Y-43300000D02*
X57284000Y-43300000D01*
X57284000Y-43300000D02*
X57284000Y-58300000D01*
X57284000Y-58300000D02*
X67084000Y-58300000D01*
D12*
X113090000Y-37830000D02*
G75*
G02X113090000Y-35830000I0J1000000D01*
G01*
X113090000Y-35830000D02*
X113090000Y-34180000D01*
X113090000Y-34180000D02*
X102810000Y-34180000D01*
X102810000Y-34180000D02*
X102810000Y-39480000D01*
X102810000Y-39480000D02*
X113090000Y-39480000D01*
X113090000Y-39480000D02*
X113090000Y-37830000D01*
X113150000Y-31690000D02*
X102750000Y-31690000D01*
X102750000Y-31690000D02*
X102750000Y-41970000D01*
X102750000Y-41970000D02*
X113150000Y-41970000D01*
X113150000Y-41970000D02*
X113150000Y-31690000D01*
X69438185Y-50390000D02*
X72738185Y-50390000D01*
X72738185Y-50390000D02*
X72738185Y-44990000D01*
X69438185Y-50390000D02*
X69438185Y-44990000D01*
X69438185Y-58133565D02*
X72738185Y-58133565D01*
X72738185Y-58133565D02*
X72738185Y-52733565D01*
X69438185Y-58133565D02*
X69438185Y-52733565D01*
X74070000Y-46610000D02*
X74070000Y-49910000D01*
X74070000Y-49910000D02*
X79470000Y-49910000D01*
X74070000Y-46610000D02*
X79470000Y-46610000D01*
X80870000Y-54990000D02*
X80870000Y-51690000D01*
X80870000Y-51690000D02*
X75470000Y-51690000D01*
X80870000Y-54990000D02*
X75470000Y-54990000D01*
X116066890Y-40116000D02*
X116066890Y-38116000D01*
X114026890Y-38116000D02*
X114026890Y-40116000D01*
X125460000Y-47748000D02*
X123460000Y-47748000D01*
X123460000Y-49788000D02*
X125460000Y-49788000D01*
X125460000Y-35175000D02*
X123460000Y-35175000D01*
X123460000Y-37215000D02*
X125460000Y-37215000D01*
X125460000Y-51812000D02*
X123460000Y-51812000D01*
X123460000Y-53852000D02*
X125460000Y-53852000D01*
X103290000Y-43696000D02*
X103290000Y-44696000D01*
X104990000Y-44696000D02*
X104990000Y-43696000D01*
X103290000Y-68080000D02*
X103290000Y-69080000D01*
X104990000Y-69080000D02*
X104990000Y-68080000D01*
X105830000Y-68080000D02*
X105830000Y-69080000D01*
X107530000Y-69080000D02*
X107530000Y-68080000D01*
X105830000Y-43696000D02*
X105830000Y-44696000D01*
X107530000Y-44696000D02*
X107530000Y-43696000D01*
X118050000Y-33080000D02*
X120710000Y-33080000D01*
X118050000Y-30480000D02*
X118050000Y-33080000D01*
X120710000Y-30480000D02*
X120710000Y-33080000D01*
X118050000Y-30480000D02*
X120710000Y-30480000D01*
X118050000Y-29210000D02*
X118050000Y-27880000D01*
X118050000Y-27880000D02*
X119380000Y-27880000D01*
X120710000Y-68520000D02*
X118050000Y-68520000D01*
X120710000Y-71120000D02*
X120710000Y-68520000D01*
X118050000Y-71120000D02*
X118050000Y-68520000D01*
X120710000Y-71120000D02*
X118050000Y-71120000D01*
X120710000Y-72390000D02*
X120710000Y-73720000D01*
X120710000Y-73720000D02*
X119380000Y-73720000D01*
D14*
G36*
X149999744Y-43067918D02*
X150055201Y-43095568D01*
X150104148Y-43146480D01*
X150117629Y-43165338D01*
X150132314Y-43190015D01*
X150141842Y-43216816D01*
X150147293Y-43252587D01*
X150149747Y-43304169D01*
X150150286Y-43372267D01*
X150147852Y-43465588D01*
X150139394Y-43535657D01*
X150123174Y-43587931D01*
X150097454Y-43627869D01*
X150060497Y-43660929D01*
X150057782Y-43662886D01*
X150021360Y-43682908D01*
X149977502Y-43692815D01*
X149921724Y-43695257D01*
X149831048Y-43695257D01*
X149831010Y-43783283D01*
X149830166Y-43832308D01*
X149825024Y-43861065D01*
X149811587Y-43878311D01*
X149785858Y-43892808D01*
X149779679Y-43895769D01*
X149750764Y-43909648D01*
X149728376Y-43918414D01*
X149711729Y-43919171D01*
X149700036Y-43909023D01*
X149692510Y-43885073D01*
X149688366Y-43844426D01*
X149686815Y-43784186D01*
X149687071Y-43701455D01*
X149688349Y-43593339D01*
X149688748Y-43561000D01*
X149690185Y-43449524D01*
X149691472Y-43376603D01*
X149830971Y-43376603D01*
X149831755Y-43438499D01*
X149835240Y-43478997D01*
X149843124Y-43505708D01*
X149857105Y-43526244D01*
X149866597Y-43536260D01*
X149905404Y-43565567D01*
X149939763Y-43567952D01*
X149975216Y-43543750D01*
X149976114Y-43542857D01*
X149990539Y-43524153D01*
X149999313Y-43498732D01*
X150003739Y-43459584D01*
X150005118Y-43399697D01*
X150005143Y-43386430D01*
X150001812Y-43303901D01*
X149990969Y-43246691D01*
X149971340Y-43211766D01*
X149941650Y-43196094D01*
X149924491Y-43194514D01*
X149883766Y-43201926D01*
X149855832Y-43226330D01*
X149839017Y-43270980D01*
X149831650Y-43339130D01*
X149830971Y-43376603D01*
X149691472Y-43376603D01*
X149691708Y-43363245D01*
X149693677Y-43298333D01*
X149696450Y-43250958D01*
X149700388Y-43217290D01*
X149705849Y-43193498D01*
X149713192Y-43175753D01*
X149722777Y-43160224D01*
X149726887Y-43154381D01*
X149781405Y-43099185D01*
X149850336Y-43067890D01*
X149930072Y-43059165D01*
X149999744Y-43067918D01*
X149999744Y-43067918D01*
G37*
X149999744Y-43067918D02*
X150055201Y-43095568D01*
X150104148Y-43146480D01*
X150117629Y-43165338D01*
X150132314Y-43190015D01*
X150141842Y-43216816D01*
X150147293Y-43252587D01*
X150149747Y-43304169D01*
X150150286Y-43372267D01*
X150147852Y-43465588D01*
X150139394Y-43535657D01*
X150123174Y-43587931D01*
X150097454Y-43627869D01*
X150060497Y-43660929D01*
X150057782Y-43662886D01*
X150021360Y-43682908D01*
X149977502Y-43692815D01*
X149921724Y-43695257D01*
X149831048Y-43695257D01*
X149831010Y-43783283D01*
X149830166Y-43832308D01*
X149825024Y-43861065D01*
X149811587Y-43878311D01*
X149785858Y-43892808D01*
X149779679Y-43895769D01*
X149750764Y-43909648D01*
X149728376Y-43918414D01*
X149711729Y-43919171D01*
X149700036Y-43909023D01*
X149692510Y-43885073D01*
X149688366Y-43844426D01*
X149686815Y-43784186D01*
X149687071Y-43701455D01*
X149688349Y-43593339D01*
X149688748Y-43561000D01*
X149690185Y-43449524D01*
X149691472Y-43376603D01*
X149830971Y-43376603D01*
X149831755Y-43438499D01*
X149835240Y-43478997D01*
X149843124Y-43505708D01*
X149857105Y-43526244D01*
X149866597Y-43536260D01*
X149905404Y-43565567D01*
X149939763Y-43567952D01*
X149975216Y-43543750D01*
X149976114Y-43542857D01*
X149990539Y-43524153D01*
X149999313Y-43498732D01*
X150003739Y-43459584D01*
X150005118Y-43399697D01*
X150005143Y-43386430D01*
X150001812Y-43303901D01*
X149990969Y-43246691D01*
X149971340Y-43211766D01*
X149941650Y-43196094D01*
X149924491Y-43194514D01*
X149883766Y-43201926D01*
X149855832Y-43226330D01*
X149839017Y-43270980D01*
X149831650Y-43339130D01*
X149830971Y-43376603D01*
X149691472Y-43376603D01*
X149691708Y-43363245D01*
X149693677Y-43298333D01*
X149696450Y-43250958D01*
X149700388Y-43217290D01*
X149705849Y-43193498D01*
X149713192Y-43175753D01*
X149722777Y-43160224D01*
X149726887Y-43154381D01*
X149781405Y-43099185D01*
X149850336Y-43067890D01*
X149930072Y-43059165D01*
X149999744Y-43067918D01*
G36*
X151116093Y-43075780D02*
X151162672Y-43102723D01*
X151195057Y-43129466D01*
X151218742Y-43157484D01*
X151235059Y-43191748D01*
X151245339Y-43237227D01*
X151250914Y-43298892D01*
X151253116Y-43381711D01*
X151253371Y-43441246D01*
X151253371Y-43660391D01*
X151191686Y-43688044D01*
X151130000Y-43715697D01*
X151122743Y-43475670D01*
X151119744Y-43386028D01*
X151116598Y-43320962D01*
X151112701Y-43276026D01*
X151107447Y-43246770D01*
X151100231Y-43228748D01*
X151090450Y-43217511D01*
X151087312Y-43215079D01*
X151039761Y-43196083D01*
X150991697Y-43203600D01*
X150963086Y-43223543D01*
X150951447Y-43237675D01*
X150943391Y-43256220D01*
X150938271Y-43284334D01*
X150935441Y-43327173D01*
X150934256Y-43389895D01*
X150934057Y-43455261D01*
X150934018Y-43537268D01*
X150932614Y-43595316D01*
X150927914Y-43634465D01*
X150917987Y-43659780D01*
X150900903Y-43676323D01*
X150874732Y-43689156D01*
X150839775Y-43702491D01*
X150801596Y-43717007D01*
X150806141Y-43459389D01*
X150807971Y-43366519D01*
X150810112Y-43297889D01*
X150813181Y-43248711D01*
X150817794Y-43214198D01*
X150824568Y-43189562D01*
X150834119Y-43170016D01*
X150845634Y-43152770D01*
X150901190Y-43097680D01*
X150968980Y-43065822D01*
X151042713Y-43058191D01*
X151116093Y-43075780D01*
X151116093Y-43075780D01*
G37*
X151116093Y-43075780D02*
X151162672Y-43102723D01*
X151195057Y-43129466D01*
X151218742Y-43157484D01*
X151235059Y-43191748D01*
X151245339Y-43237227D01*
X151250914Y-43298892D01*
X151253116Y-43381711D01*
X151253371Y-43441246D01*
X151253371Y-43660391D01*
X151191686Y-43688044D01*
X151130000Y-43715697D01*
X151122743Y-43475670D01*
X151119744Y-43386028D01*
X151116598Y-43320962D01*
X151112701Y-43276026D01*
X151107447Y-43246770D01*
X151100231Y-43228748D01*
X151090450Y-43217511D01*
X151087312Y-43215079D01*
X151039761Y-43196083D01*
X150991697Y-43203600D01*
X150963086Y-43223543D01*
X150951447Y-43237675D01*
X150943391Y-43256220D01*
X150938271Y-43284334D01*
X150935441Y-43327173D01*
X150934256Y-43389895D01*
X150934057Y-43455261D01*
X150934018Y-43537268D01*
X150932614Y-43595316D01*
X150927914Y-43634465D01*
X150917987Y-43659780D01*
X150900903Y-43676323D01*
X150874732Y-43689156D01*
X150839775Y-43702491D01*
X150801596Y-43717007D01*
X150806141Y-43459389D01*
X150807971Y-43366519D01*
X150810112Y-43297889D01*
X150813181Y-43248711D01*
X150817794Y-43214198D01*
X150824568Y-43189562D01*
X150834119Y-43170016D01*
X150845634Y-43152770D01*
X150901190Y-43097680D01*
X150968980Y-43065822D01*
X151042713Y-43058191D01*
X151116093Y-43075780D01*
G36*
X149441115Y-43069962D02*
X149509145Y-43105733D01*
X149559351Y-43163301D01*
X149577185Y-43200312D01*
X149591063Y-43255882D01*
X149598167Y-43326096D01*
X149598840Y-43402727D01*
X149593427Y-43477552D01*
X149582270Y-43542342D01*
X149565714Y-43588873D01*
X149560626Y-43596887D01*
X149500355Y-43656707D01*
X149428769Y-43692535D01*
X149351092Y-43703020D01*
X149272548Y-43686810D01*
X149250689Y-43677092D01*
X149208122Y-43647143D01*
X149170763Y-43607433D01*
X149167232Y-43602397D01*
X149152881Y-43578124D01*
X149143394Y-43552178D01*
X149137790Y-43518022D01*
X149135086Y-43469119D01*
X149134299Y-43398935D01*
X149134286Y-43383200D01*
X149134322Y-43378192D01*
X149279429Y-43378192D01*
X149280273Y-43444430D01*
X149283596Y-43488386D01*
X149290583Y-43516779D01*
X149302416Y-43536325D01*
X149308457Y-43542857D01*
X149343186Y-43567680D01*
X149376903Y-43566548D01*
X149410995Y-43545016D01*
X149431329Y-43522029D01*
X149443371Y-43488478D01*
X149450134Y-43435569D01*
X149450598Y-43429399D01*
X149451752Y-43333513D01*
X149439688Y-43262299D01*
X149414570Y-43216194D01*
X149376560Y-43195635D01*
X149362992Y-43194514D01*
X149327364Y-43200152D01*
X149302994Y-43219686D01*
X149288093Y-43257042D01*
X149280875Y-43316150D01*
X149279429Y-43378192D01*
X149134322Y-43378192D01*
X149134826Y-43308413D01*
X149137096Y-43256159D01*
X149142068Y-43219949D01*
X149150713Y-43193299D01*
X149164005Y-43169722D01*
X149166943Y-43165338D01*
X149216313Y-43106249D01*
X149270109Y-43071947D01*
X149335602Y-43058331D01*
X149357842Y-43057665D01*
X149441115Y-43069962D01*
X149441115Y-43069962D01*
G37*
X149441115Y-43069962D02*
X149509145Y-43105733D01*
X149559351Y-43163301D01*
X149577185Y-43200312D01*
X149591063Y-43255882D01*
X149598167Y-43326096D01*
X149598840Y-43402727D01*
X149593427Y-43477552D01*
X149582270Y-43542342D01*
X149565714Y-43588873D01*
X149560626Y-43596887D01*
X149500355Y-43656707D01*
X149428769Y-43692535D01*
X149351092Y-43703020D01*
X149272548Y-43686810D01*
X149250689Y-43677092D01*
X149208122Y-43647143D01*
X149170763Y-43607433D01*
X149167232Y-43602397D01*
X149152881Y-43578124D01*
X149143394Y-43552178D01*
X149137790Y-43518022D01*
X149135086Y-43469119D01*
X149134299Y-43398935D01*
X149134286Y-43383200D01*
X149134322Y-43378192D01*
X149279429Y-43378192D01*
X149280273Y-43444430D01*
X149283596Y-43488386D01*
X149290583Y-43516779D01*
X149302416Y-43536325D01*
X149308457Y-43542857D01*
X149343186Y-43567680D01*
X149376903Y-43566548D01*
X149410995Y-43545016D01*
X149431329Y-43522029D01*
X149443371Y-43488478D01*
X149450134Y-43435569D01*
X149450598Y-43429399D01*
X149451752Y-43333513D01*
X149439688Y-43262299D01*
X149414570Y-43216194D01*
X149376560Y-43195635D01*
X149362992Y-43194514D01*
X149327364Y-43200152D01*
X149302994Y-43219686D01*
X149288093Y-43257042D01*
X149280875Y-43316150D01*
X149279429Y-43378192D01*
X149134322Y-43378192D01*
X149134826Y-43308413D01*
X149137096Y-43256159D01*
X149142068Y-43219949D01*
X149150713Y-43193299D01*
X149164005Y-43169722D01*
X149166943Y-43165338D01*
X149216313Y-43106249D01*
X149270109Y-43071947D01*
X149335602Y-43058331D01*
X149357842Y-43057665D01*
X149441115Y-43069962D01*
G36*
X150568303Y-43079239D02*
X150625527Y-43117735D01*
X150669749Y-43173335D01*
X150696167Y-43244086D01*
X150701510Y-43296162D01*
X150700903Y-43317893D01*
X150695822Y-43334531D01*
X150681855Y-43349437D01*
X150654589Y-43365973D01*
X150609612Y-43387498D01*
X150542511Y-43417374D01*
X150542171Y-43417524D01*
X150480407Y-43445813D01*
X150429759Y-43470933D01*
X150395404Y-43490179D01*
X150382518Y-43500848D01*
X150382514Y-43500934D01*
X150393872Y-43524166D01*
X150420431Y-43549774D01*
X150450923Y-43568221D01*
X150466370Y-43571886D01*
X150508515Y-43559212D01*
X150544808Y-43527471D01*
X150562517Y-43492572D01*
X150579552Y-43466845D01*
X150612922Y-43437546D01*
X150652149Y-43412235D01*
X150686756Y-43398471D01*
X150693993Y-43397714D01*
X150702139Y-43410160D01*
X150702630Y-43441972D01*
X150696643Y-43484866D01*
X150685357Y-43530558D01*
X150669950Y-43570761D01*
X150669171Y-43572322D01*
X150622804Y-43637062D01*
X150562711Y-43681097D01*
X150494465Y-43702711D01*
X150423638Y-43700185D01*
X150355804Y-43671804D01*
X150352788Y-43669808D01*
X150299427Y-43621448D01*
X150264340Y-43558352D01*
X150244922Y-43475387D01*
X150242316Y-43452078D01*
X150237701Y-43342055D01*
X150243233Y-43290748D01*
X150382514Y-43290748D01*
X150384324Y-43322753D01*
X150394222Y-43332093D01*
X150418898Y-43325105D01*
X150457795Y-43308587D01*
X150501275Y-43287881D01*
X150502356Y-43287333D01*
X150539209Y-43267949D01*
X150554000Y-43255013D01*
X150550353Y-43241451D01*
X150534995Y-43223632D01*
X150495923Y-43197845D01*
X150453846Y-43195950D01*
X150416103Y-43214717D01*
X150390034Y-43250915D01*
X150382514Y-43290748D01*
X150243233Y-43290748D01*
X150247194Y-43254027D01*
X150271550Y-43184212D01*
X150305456Y-43135302D01*
X150366653Y-43085878D01*
X150434063Y-43061359D01*
X150502880Y-43059797D01*
X150568303Y-43079239D01*
X150568303Y-43079239D01*
G37*
X150568303Y-43079239D02*
X150625527Y-43117735D01*
X150669749Y-43173335D01*
X150696167Y-43244086D01*
X150701510Y-43296162D01*
X150700903Y-43317893D01*
X150695822Y-43334531D01*
X150681855Y-43349437D01*
X150654589Y-43365973D01*
X150609612Y-43387498D01*
X150542511Y-43417374D01*
X150542171Y-43417524D01*
X150480407Y-43445813D01*
X150429759Y-43470933D01*
X150395404Y-43490179D01*
X150382518Y-43500848D01*
X150382514Y-43500934D01*
X150393872Y-43524166D01*
X150420431Y-43549774D01*
X150450923Y-43568221D01*
X150466370Y-43571886D01*
X150508515Y-43559212D01*
X150544808Y-43527471D01*
X150562517Y-43492572D01*
X150579552Y-43466845D01*
X150612922Y-43437546D01*
X150652149Y-43412235D01*
X150686756Y-43398471D01*
X150693993Y-43397714D01*
X150702139Y-43410160D01*
X150702630Y-43441972D01*
X150696643Y-43484866D01*
X150685357Y-43530558D01*
X150669950Y-43570761D01*
X150669171Y-43572322D01*
X150622804Y-43637062D01*
X150562711Y-43681097D01*
X150494465Y-43702711D01*
X150423638Y-43700185D01*
X150355804Y-43671804D01*
X150352788Y-43669808D01*
X150299427Y-43621448D01*
X150264340Y-43558352D01*
X150244922Y-43475387D01*
X150242316Y-43452078D01*
X150237701Y-43342055D01*
X150243233Y-43290748D01*
X150382514Y-43290748D01*
X150384324Y-43322753D01*
X150394222Y-43332093D01*
X150418898Y-43325105D01*
X150457795Y-43308587D01*
X150501275Y-43287881D01*
X150502356Y-43287333D01*
X150539209Y-43267949D01*
X150554000Y-43255013D01*
X150550353Y-43241451D01*
X150534995Y-43223632D01*
X150495923Y-43197845D01*
X150453846Y-43195950D01*
X150416103Y-43214717D01*
X150390034Y-43250915D01*
X150382514Y-43290748D01*
X150243233Y-43290748D01*
X150247194Y-43254027D01*
X150271550Y-43184212D01*
X150305456Y-43135302D01*
X150366653Y-43085878D01*
X150434063Y-43061359D01*
X150502880Y-43059797D01*
X150568303Y-43079239D01*
G36*
X151775886Y-42999289D02*
X151780139Y-43058613D01*
X151785025Y-43093572D01*
X151791795Y-43108820D01*
X151801702Y-43109015D01*
X151804914Y-43107195D01*
X151847644Y-43094015D01*
X151903227Y-43094785D01*
X151959737Y-43108333D01*
X151995082Y-43125861D01*
X152031321Y-43153861D01*
X152057813Y-43185549D01*
X152075999Y-43225813D01*
X152087322Y-43279543D01*
X152093222Y-43351626D01*
X152095143Y-43446951D01*
X152095177Y-43465237D01*
X152095200Y-43670646D01*
X152049491Y-43686580D01*
X152017027Y-43697420D01*
X151999215Y-43702468D01*
X151998691Y-43702514D01*
X151996937Y-43688828D01*
X151995444Y-43651076D01*
X151994326Y-43594224D01*
X151993697Y-43523234D01*
X151993600Y-43480073D01*
X151993398Y-43394973D01*
X151992358Y-43333981D01*
X151989831Y-43292177D01*
X151985164Y-43264642D01*
X151977707Y-43246456D01*
X151966811Y-43232698D01*
X151960007Y-43226073D01*
X151913272Y-43199375D01*
X151862272Y-43197375D01*
X151816001Y-43219955D01*
X151807444Y-43228107D01*
X151794893Y-43243436D01*
X151786188Y-43261618D01*
X151780631Y-43287909D01*
X151777526Y-43327562D01*
X151776176Y-43385832D01*
X151775886Y-43466173D01*
X151775886Y-43670646D01*
X151730177Y-43686580D01*
X151697713Y-43697420D01*
X151679901Y-43702468D01*
X151679377Y-43702514D01*
X151678037Y-43688623D01*
X151676828Y-43649439D01*
X151675801Y-43588700D01*
X151675002Y-43510141D01*
X151674481Y-43417498D01*
X151674286Y-43314509D01*
X151674286Y-42917342D01*
X151721457Y-42897444D01*
X151768629Y-42877547D01*
X151775886Y-42999289D01*
X151775886Y-42999289D01*
G37*
X151775886Y-42999289D02*
X151780139Y-43058613D01*
X151785025Y-43093572D01*
X151791795Y-43108820D01*
X151801702Y-43109015D01*
X151804914Y-43107195D01*
X151847644Y-43094015D01*
X151903227Y-43094785D01*
X151959737Y-43108333D01*
X151995082Y-43125861D01*
X152031321Y-43153861D01*
X152057813Y-43185549D01*
X152075999Y-43225813D01*
X152087322Y-43279543D01*
X152093222Y-43351626D01*
X152095143Y-43446951D01*
X152095177Y-43465237D01*
X152095200Y-43670646D01*
X152049491Y-43686580D01*
X152017027Y-43697420D01*
X151999215Y-43702468D01*
X151998691Y-43702514D01*
X151996937Y-43688828D01*
X151995444Y-43651076D01*
X151994326Y-43594224D01*
X151993697Y-43523234D01*
X151993600Y-43480073D01*
X151993398Y-43394973D01*
X151992358Y-43333981D01*
X151989831Y-43292177D01*
X151985164Y-43264642D01*
X151977707Y-43246456D01*
X151966811Y-43232698D01*
X151960007Y-43226073D01*
X151913272Y-43199375D01*
X151862272Y-43197375D01*
X151816001Y-43219955D01*
X151807444Y-43228107D01*
X151794893Y-43243436D01*
X151786188Y-43261618D01*
X151780631Y-43287909D01*
X151777526Y-43327562D01*
X151776176Y-43385832D01*
X151775886Y-43466173D01*
X151775886Y-43670646D01*
X151730177Y-43686580D01*
X151697713Y-43697420D01*
X151679901Y-43702468D01*
X151679377Y-43702514D01*
X151678037Y-43688623D01*
X151676828Y-43649439D01*
X151675801Y-43588700D01*
X151675002Y-43510141D01*
X151674481Y-43417498D01*
X151674286Y-43314509D01*
X151674286Y-42917342D01*
X151721457Y-42897444D01*
X151768629Y-42877547D01*
X151775886Y-42999289D01*
G36*
X152439744Y-43098968D02*
X152496616Y-43120087D01*
X152497267Y-43120493D01*
X152532440Y-43146380D01*
X152558407Y-43176633D01*
X152576670Y-43216058D01*
X152588732Y-43269462D01*
X152596096Y-43341651D01*
X152600264Y-43437432D01*
X152600629Y-43451078D01*
X152605876Y-43656842D01*
X152561716Y-43679678D01*
X152529763Y-43695110D01*
X152510470Y-43702423D01*
X152509578Y-43702514D01*
X152506239Y-43689022D01*
X152503587Y-43652626D01*
X152501956Y-43599452D01*
X152501600Y-43556393D01*
X152501592Y-43486641D01*
X152498403Y-43442837D01*
X152487288Y-43421944D01*
X152463501Y-43420925D01*
X152422296Y-43436741D01*
X152360086Y-43465815D01*
X152314341Y-43489963D01*
X152290813Y-43510913D01*
X152283896Y-43533747D01*
X152283886Y-43534877D01*
X152295299Y-43574212D01*
X152329092Y-43595462D01*
X152380809Y-43598539D01*
X152418061Y-43598006D01*
X152437703Y-43608735D01*
X152449952Y-43634505D01*
X152457002Y-43667337D01*
X152446842Y-43685966D01*
X152443017Y-43688632D01*
X152407001Y-43699340D01*
X152356566Y-43700856D01*
X152304626Y-43693759D01*
X152267822Y-43680788D01*
X152216938Y-43637585D01*
X152188014Y-43577446D01*
X152182286Y-43530462D01*
X152186657Y-43488082D01*
X152202475Y-43453488D01*
X152233797Y-43422763D01*
X152284678Y-43391990D01*
X152359176Y-43357252D01*
X152363714Y-43355288D01*
X152430821Y-43324287D01*
X152472232Y-43298862D01*
X152489981Y-43276014D01*
X152486107Y-43252745D01*
X152462643Y-43226056D01*
X152455627Y-43219914D01*
X152408630Y-43196100D01*
X152359933Y-43197103D01*
X152317522Y-43220451D01*
X152289384Y-43263675D01*
X152286769Y-43272160D01*
X152261308Y-43313308D01*
X152229001Y-43333128D01*
X152182286Y-43352770D01*
X152182286Y-43301950D01*
X152196496Y-43228082D01*
X152238675Y-43160327D01*
X152260624Y-43137661D01*
X152310517Y-43108569D01*
X152373967Y-43095400D01*
X152439744Y-43098968D01*
X152439744Y-43098968D01*
G37*
X152439744Y-43098968D02*
X152496616Y-43120087D01*
X152497267Y-43120493D01*
X152532440Y-43146380D01*
X152558407Y-43176633D01*
X152576670Y-43216058D01*
X152588732Y-43269462D01*
X152596096Y-43341651D01*
X152600264Y-43437432D01*
X152600629Y-43451078D01*
X152605876Y-43656842D01*
X152561716Y-43679678D01*
X152529763Y-43695110D01*
X152510470Y-43702423D01*
X152509578Y-43702514D01*
X152506239Y-43689022D01*
X152503587Y-43652626D01*
X152501956Y-43599452D01*
X152501600Y-43556393D01*
X152501592Y-43486641D01*
X152498403Y-43442837D01*
X152487288Y-43421944D01*
X152463501Y-43420925D01*
X152422296Y-43436741D01*
X152360086Y-43465815D01*
X152314341Y-43489963D01*
X152290813Y-43510913D01*
X152283896Y-43533747D01*
X152283886Y-43534877D01*
X152295299Y-43574212D01*
X152329092Y-43595462D01*
X152380809Y-43598539D01*
X152418061Y-43598006D01*
X152437703Y-43608735D01*
X152449952Y-43634505D01*
X152457002Y-43667337D01*
X152446842Y-43685966D01*
X152443017Y-43688632D01*
X152407001Y-43699340D01*
X152356566Y-43700856D01*
X152304626Y-43693759D01*
X152267822Y-43680788D01*
X152216938Y-43637585D01*
X152188014Y-43577446D01*
X152182286Y-43530462D01*
X152186657Y-43488082D01*
X152202475Y-43453488D01*
X152233797Y-43422763D01*
X152284678Y-43391990D01*
X152359176Y-43357252D01*
X152363714Y-43355288D01*
X152430821Y-43324287D01*
X152472232Y-43298862D01*
X152489981Y-43276014D01*
X152486107Y-43252745D01*
X152462643Y-43226056D01*
X152455627Y-43219914D01*
X152408630Y-43196100D01*
X152359933Y-43197103D01*
X152317522Y-43220451D01*
X152289384Y-43263675D01*
X152286769Y-43272160D01*
X152261308Y-43313308D01*
X152229001Y-43333128D01*
X152182286Y-43352770D01*
X152182286Y-43301950D01*
X152196496Y-43228082D01*
X152238675Y-43160327D01*
X152260624Y-43137661D01*
X152310517Y-43108569D01*
X152373967Y-43095400D01*
X152439744Y-43098968D01*
G36*
X152929926Y-43097755D02*
X152995858Y-43122084D01*
X153049273Y-43165117D01*
X153070164Y-43195409D01*
X153092939Y-43250994D01*
X153092466Y-43291186D01*
X153068562Y-43318217D01*
X153059717Y-43322813D01*
X153021530Y-43337144D01*
X153002028Y-43333472D01*
X152995422Y-43309407D01*
X152995086Y-43296114D01*
X152982992Y-43247210D01*
X152951471Y-43212999D01*
X152907659Y-43196476D01*
X152858695Y-43200634D01*
X152818894Y-43222227D01*
X152805450Y-43234544D01*
X152795921Y-43249487D01*
X152789485Y-43272075D01*
X152785317Y-43307328D01*
X152782597Y-43360266D01*
X152780502Y-43435907D01*
X152779960Y-43459857D01*
X152777981Y-43541790D01*
X152775731Y-43599455D01*
X152772357Y-43637608D01*
X152767006Y-43661004D01*
X152758824Y-43674398D01*
X152746959Y-43682545D01*
X152739362Y-43686144D01*
X152707102Y-43698452D01*
X152688111Y-43702514D01*
X152681836Y-43688948D01*
X152678006Y-43647934D01*
X152676600Y-43578999D01*
X152677598Y-43481669D01*
X152677908Y-43466657D01*
X152680101Y-43377859D01*
X152682693Y-43313019D01*
X152686382Y-43267067D01*
X152691864Y-43234935D01*
X152699835Y-43211553D01*
X152710993Y-43191852D01*
X152716830Y-43183410D01*
X152750296Y-43146057D01*
X152787727Y-43117003D01*
X152792309Y-43114467D01*
X152859426Y-43094443D01*
X152929926Y-43097755D01*
X152929926Y-43097755D01*
G37*
X152929926Y-43097755D02*
X152995858Y-43122084D01*
X153049273Y-43165117D01*
X153070164Y-43195409D01*
X153092939Y-43250994D01*
X153092466Y-43291186D01*
X153068562Y-43318217D01*
X153059717Y-43322813D01*
X153021530Y-43337144D01*
X153002028Y-43333472D01*
X152995422Y-43309407D01*
X152995086Y-43296114D01*
X152982992Y-43247210D01*
X152951471Y-43212999D01*
X152907659Y-43196476D01*
X152858695Y-43200634D01*
X152818894Y-43222227D01*
X152805450Y-43234544D01*
X152795921Y-43249487D01*
X152789485Y-43272075D01*
X152785317Y-43307328D01*
X152782597Y-43360266D01*
X152780502Y-43435907D01*
X152779960Y-43459857D01*
X152777981Y-43541790D01*
X152775731Y-43599455D01*
X152772357Y-43637608D01*
X152767006Y-43661004D01*
X152758824Y-43674398D01*
X152746959Y-43682545D01*
X152739362Y-43686144D01*
X152707102Y-43698452D01*
X152688111Y-43702514D01*
X152681836Y-43688948D01*
X152678006Y-43647934D01*
X152676600Y-43578999D01*
X152677598Y-43481669D01*
X152677908Y-43466657D01*
X152680101Y-43377859D01*
X152682693Y-43313019D01*
X152686382Y-43267067D01*
X152691864Y-43234935D01*
X152699835Y-43211553D01*
X152710993Y-43191852D01*
X152716830Y-43183410D01*
X152750296Y-43146057D01*
X152787727Y-43117003D01*
X152792309Y-43114467D01*
X152859426Y-43094443D01*
X152929926Y-43097755D01*
G36*
X153590117Y-43213358D02*
X153589933Y-43321837D01*
X153589219Y-43405287D01*
X153587675Y-43467704D01*
X153585001Y-43513085D01*
X153580894Y-43545429D01*
X153575055Y-43568733D01*
X153567182Y-43586995D01*
X153561221Y-43597418D01*
X153511855Y-43653945D01*
X153449264Y-43689377D01*
X153380013Y-43702090D01*
X153310668Y-43690463D01*
X153269375Y-43669568D01*
X153226025Y-43633422D01*
X153196481Y-43589276D01*
X153178655Y-43531462D01*
X153170463Y-43454313D01*
X153169302Y-43397714D01*
X153169458Y-43393647D01*
X153270857Y-43393647D01*
X153271476Y-43458550D01*
X153274314Y-43501514D01*
X153280840Y-43529622D01*
X153292523Y-43549953D01*
X153306483Y-43565288D01*
X153353365Y-43594890D01*
X153403701Y-43597419D01*
X153451276Y-43572705D01*
X153454979Y-43569356D01*
X153470783Y-43551935D01*
X153480693Y-43531209D01*
X153486058Y-43500362D01*
X153488228Y-43452577D01*
X153488571Y-43399748D01*
X153487827Y-43333381D01*
X153484748Y-43289106D01*
X153478061Y-43260009D01*
X153466496Y-43239173D01*
X153457013Y-43228107D01*
X153412960Y-43200198D01*
X153362224Y-43196843D01*
X153313796Y-43218159D01*
X153304450Y-43226073D01*
X153288540Y-43243647D01*
X153278610Y-43264587D01*
X153273278Y-43295782D01*
X153271163Y-43344122D01*
X153270857Y-43393647D01*
X153169458Y-43393647D01*
X153172810Y-43306568D01*
X153184726Y-43238086D01*
X153207135Y-43186600D01*
X153242124Y-43146443D01*
X153269375Y-43125861D01*
X153318907Y-43103625D01*
X153376316Y-43093304D01*
X153429682Y-43096067D01*
X153459543Y-43107212D01*
X153471261Y-43110383D01*
X153479037Y-43098557D01*
X153484465Y-43066866D01*
X153488571Y-43018593D01*
X153493067Y-42964829D01*
X153499313Y-42932482D01*
X153510676Y-42913985D01*
X153530528Y-42901770D01*
X153543000Y-42896362D01*
X153590171Y-42876601D01*
X153590117Y-43213358D01*
X153590117Y-43213358D01*
G37*
X153590117Y-43213358D02*
X153589933Y-43321837D01*
X153589219Y-43405287D01*
X153587675Y-43467704D01*
X153585001Y-43513085D01*
X153580894Y-43545429D01*
X153575055Y-43568733D01*
X153567182Y-43586995D01*
X153561221Y-43597418D01*
X153511855Y-43653945D01*
X153449264Y-43689377D01*
X153380013Y-43702090D01*
X153310668Y-43690463D01*
X153269375Y-43669568D01*
X153226025Y-43633422D01*
X153196481Y-43589276D01*
X153178655Y-43531462D01*
X153170463Y-43454313D01*
X153169302Y-43397714D01*
X153169458Y-43393647D01*
X153270857Y-43393647D01*
X153271476Y-43458550D01*
X153274314Y-43501514D01*
X153280840Y-43529622D01*
X153292523Y-43549953D01*
X153306483Y-43565288D01*
X153353365Y-43594890D01*
X153403701Y-43597419D01*
X153451276Y-43572705D01*
X153454979Y-43569356D01*
X153470783Y-43551935D01*
X153480693Y-43531209D01*
X153486058Y-43500362D01*
X153488228Y-43452577D01*
X153488571Y-43399748D01*
X153487827Y-43333381D01*
X153484748Y-43289106D01*
X153478061Y-43260009D01*
X153466496Y-43239173D01*
X153457013Y-43228107D01*
X153412960Y-43200198D01*
X153362224Y-43196843D01*
X153313796Y-43218159D01*
X153304450Y-43226073D01*
X153288540Y-43243647D01*
X153278610Y-43264587D01*
X153273278Y-43295782D01*
X153271163Y-43344122D01*
X153270857Y-43393647D01*
X153169458Y-43393647D01*
X153172810Y-43306568D01*
X153184726Y-43238086D01*
X153207135Y-43186600D01*
X153242124Y-43146443D01*
X153269375Y-43125861D01*
X153318907Y-43103625D01*
X153376316Y-43093304D01*
X153429682Y-43096067D01*
X153459543Y-43107212D01*
X153471261Y-43110383D01*
X153479037Y-43098557D01*
X153484465Y-43066866D01*
X153488571Y-43018593D01*
X153493067Y-42964829D01*
X153499313Y-42932482D01*
X153510676Y-42913985D01*
X153530528Y-42901770D01*
X153543000Y-42896362D01*
X153590171Y-42876601D01*
X153590117Y-43213358D01*
G36*
X154179833Y-43106663D02*
X154182048Y-43144850D01*
X154183784Y-43202886D01*
X154184899Y-43276180D01*
X154185257Y-43353055D01*
X154185257Y-43613196D01*
X154139326Y-43659127D01*
X154107675Y-43687429D01*
X154079890Y-43698893D01*
X154041915Y-43698168D01*
X154026840Y-43696321D01*
X153979726Y-43690948D01*
X153940756Y-43687869D01*
X153931257Y-43687585D01*
X153899233Y-43689445D01*
X153853432Y-43694114D01*
X153835674Y-43696321D01*
X153792057Y-43699735D01*
X153762745Y-43692320D01*
X153733680Y-43669427D01*
X153723188Y-43659127D01*
X153677257Y-43613196D01*
X153677257Y-43126602D01*
X153714226Y-43109758D01*
X153746059Y-43097282D01*
X153764683Y-43092914D01*
X153769458Y-43106718D01*
X153773921Y-43145286D01*
X153777775Y-43204356D01*
X153780722Y-43279663D01*
X153782143Y-43343286D01*
X153786114Y-43593657D01*
X153820759Y-43598556D01*
X153852268Y-43595131D01*
X153867708Y-43584041D01*
X153872023Y-43563308D01*
X153875708Y-43519145D01*
X153878469Y-43457146D01*
X153880012Y-43382909D01*
X153880235Y-43344706D01*
X153880457Y-43124783D01*
X153926166Y-43108849D01*
X153958518Y-43098015D01*
X153976115Y-43092962D01*
X153976623Y-43092914D01*
X153978388Y-43106648D01*
X153980329Y-43144730D01*
X153982282Y-43202482D01*
X153984084Y-43275227D01*
X153985343Y-43343286D01*
X153989314Y-43593657D01*
X154076400Y-43593657D01*
X154080396Y-43365240D01*
X154084392Y-43136822D01*
X154126847Y-43114868D01*
X154158192Y-43099793D01*
X154176744Y-43092951D01*
X154177279Y-43092914D01*
X154179833Y-43106663D01*
X154179833Y-43106663D01*
G37*
X154179833Y-43106663D02*
X154182048Y-43144850D01*
X154183784Y-43202886D01*
X154184899Y-43276180D01*
X154185257Y-43353055D01*
X154185257Y-43613196D01*
X154139326Y-43659127D01*
X154107675Y-43687429D01*
X154079890Y-43698893D01*
X154041915Y-43698168D01*
X154026840Y-43696321D01*
X153979726Y-43690948D01*
X153940756Y-43687869D01*
X153931257Y-43687585D01*
X153899233Y-43689445D01*
X153853432Y-43694114D01*
X153835674Y-43696321D01*
X153792057Y-43699735D01*
X153762745Y-43692320D01*
X153733680Y-43669427D01*
X153723188Y-43659127D01*
X153677257Y-43613196D01*
X153677257Y-43126602D01*
X153714226Y-43109758D01*
X153746059Y-43097282D01*
X153764683Y-43092914D01*
X153769458Y-43106718D01*
X153773921Y-43145286D01*
X153777775Y-43204356D01*
X153780722Y-43279663D01*
X153782143Y-43343286D01*
X153786114Y-43593657D01*
X153820759Y-43598556D01*
X153852268Y-43595131D01*
X153867708Y-43584041D01*
X153872023Y-43563308D01*
X153875708Y-43519145D01*
X153878469Y-43457146D01*
X153880012Y-43382909D01*
X153880235Y-43344706D01*
X153880457Y-43124783D01*
X153926166Y-43108849D01*
X153958518Y-43098015D01*
X153976115Y-43092962D01*
X153976623Y-43092914D01*
X153978388Y-43106648D01*
X153980329Y-43144730D01*
X153982282Y-43202482D01*
X153984084Y-43275227D01*
X153985343Y-43343286D01*
X153989314Y-43593657D01*
X154076400Y-43593657D01*
X154080396Y-43365240D01*
X154084392Y-43136822D01*
X154126847Y-43114868D01*
X154158192Y-43099793D01*
X154176744Y-43092951D01*
X154177279Y-43092914D01*
X154179833Y-43106663D01*
G36*
X154544876Y-43104335D02*
X154586667Y-43123344D01*
X154619469Y-43146378D01*
X154643503Y-43172133D01*
X154660097Y-43205358D01*
X154670577Y-43250800D01*
X154676271Y-43313207D01*
X154678507Y-43397327D01*
X154678743Y-43452721D01*
X154678743Y-43668826D01*
X154641774Y-43685670D01*
X154612656Y-43697981D01*
X154598231Y-43702514D01*
X154595472Y-43689025D01*
X154593282Y-43652653D01*
X154591942Y-43599542D01*
X154591657Y-43557372D01*
X154590434Y-43496447D01*
X154587136Y-43448115D01*
X154582321Y-43418518D01*
X154578496Y-43412229D01*
X154552783Y-43418652D01*
X154512418Y-43435125D01*
X154465679Y-43457458D01*
X154420845Y-43481457D01*
X154386193Y-43502930D01*
X154370002Y-43517685D01*
X154369938Y-43517845D01*
X154371330Y-43545152D01*
X154383818Y-43571219D01*
X154405743Y-43592392D01*
X154437743Y-43599474D01*
X154465092Y-43598649D01*
X154503826Y-43598042D01*
X154524158Y-43607116D01*
X154536369Y-43631092D01*
X154537909Y-43635613D01*
X154543203Y-43669806D01*
X154529047Y-43690568D01*
X154492148Y-43700462D01*
X154452289Y-43702292D01*
X154380562Y-43688727D01*
X154343432Y-43669355D01*
X154297576Y-43623845D01*
X154273256Y-43567983D01*
X154271073Y-43508957D01*
X154291629Y-43453953D01*
X154322549Y-43419486D01*
X154353420Y-43400189D01*
X154401942Y-43375759D01*
X154458485Y-43350985D01*
X154467910Y-43347199D01*
X154530019Y-43319791D01*
X154565822Y-43295634D01*
X154577337Y-43271619D01*
X154566580Y-43244635D01*
X154548114Y-43223543D01*
X154504469Y-43197572D01*
X154456446Y-43195624D01*
X154412406Y-43215637D01*
X154380709Y-43255551D01*
X154376549Y-43265848D01*
X154352327Y-43303724D01*
X154316965Y-43331842D01*
X154272343Y-43354917D01*
X154272343Y-43289485D01*
X154274969Y-43249506D01*
X154286230Y-43217997D01*
X154311199Y-43184378D01*
X154335169Y-43158484D01*
X154372441Y-43121817D01*
X154401401Y-43102121D01*
X154432505Y-43094220D01*
X154467713Y-43092914D01*
X154544876Y-43104335D01*
X154544876Y-43104335D01*
G37*
X154544876Y-43104335D02*
X154586667Y-43123344D01*
X154619469Y-43146378D01*
X154643503Y-43172133D01*
X154660097Y-43205358D01*
X154670577Y-43250800D01*
X154676271Y-43313207D01*
X154678507Y-43397327D01*
X154678743Y-43452721D01*
X154678743Y-43668826D01*
X154641774Y-43685670D01*
X154612656Y-43697981D01*
X154598231Y-43702514D01*
X154595472Y-43689025D01*
X154593282Y-43652653D01*
X154591942Y-43599542D01*
X154591657Y-43557372D01*
X154590434Y-43496447D01*
X154587136Y-43448115D01*
X154582321Y-43418518D01*
X154578496Y-43412229D01*
X154552783Y-43418652D01*
X154512418Y-43435125D01*
X154465679Y-43457458D01*
X154420845Y-43481457D01*
X154386193Y-43502930D01*
X154370002Y-43517685D01*
X154369938Y-43517845D01*
X154371330Y-43545152D01*
X154383818Y-43571219D01*
X154405743Y-43592392D01*
X154437743Y-43599474D01*
X154465092Y-43598649D01*
X154503826Y-43598042D01*
X154524158Y-43607116D01*
X154536369Y-43631092D01*
X154537909Y-43635613D01*
X154543203Y-43669806D01*
X154529047Y-43690568D01*
X154492148Y-43700462D01*
X154452289Y-43702292D01*
X154380562Y-43688727D01*
X154343432Y-43669355D01*
X154297576Y-43623845D01*
X154273256Y-43567983D01*
X154271073Y-43508957D01*
X154291629Y-43453953D01*
X154322549Y-43419486D01*
X154353420Y-43400189D01*
X154401942Y-43375759D01*
X154458485Y-43350985D01*
X154467910Y-43347199D01*
X154530019Y-43319791D01*
X154565822Y-43295634D01*
X154577337Y-43271619D01*
X154566580Y-43244635D01*
X154548114Y-43223543D01*
X154504469Y-43197572D01*
X154456446Y-43195624D01*
X154412406Y-43215637D01*
X154380709Y-43255551D01*
X154376549Y-43265848D01*
X154352327Y-43303724D01*
X154316965Y-43331842D01*
X154272343Y-43354917D01*
X154272343Y-43289485D01*
X154274969Y-43249506D01*
X154286230Y-43217997D01*
X154311199Y-43184378D01*
X154335169Y-43158484D01*
X154372441Y-43121817D01*
X154401401Y-43102121D01*
X154432505Y-43094220D01*
X154467713Y-43092914D01*
X154544876Y-43104335D01*
G36*
X155052600Y-43106752D02*
X155069948Y-43114334D01*
X155111356Y-43147128D01*
X155146765Y-43194547D01*
X155168664Y-43245151D01*
X155172229Y-43270098D01*
X155160279Y-43304927D01*
X155134067Y-43323357D01*
X155105964Y-43334516D01*
X155093095Y-43336572D01*
X155086829Y-43321649D01*
X155074456Y-43289175D01*
X155069028Y-43274502D01*
X155038590Y-43223744D01*
X154994520Y-43198427D01*
X154938010Y-43199206D01*
X154933825Y-43200203D01*
X154903655Y-43214507D01*
X154881476Y-43242393D01*
X154866327Y-43287287D01*
X154857250Y-43352615D01*
X154853286Y-43441804D01*
X154852914Y-43489261D01*
X154852730Y-43564071D01*
X154851522Y-43615069D01*
X154848309Y-43647471D01*
X154842109Y-43666495D01*
X154831940Y-43677356D01*
X154816819Y-43685272D01*
X154815946Y-43685670D01*
X154786828Y-43697981D01*
X154772403Y-43702514D01*
X154770186Y-43688809D01*
X154768289Y-43650925D01*
X154766847Y-43593715D01*
X154765998Y-43522027D01*
X154765829Y-43469565D01*
X154766692Y-43368047D01*
X154770070Y-43291032D01*
X154777142Y-43234023D01*
X154789088Y-43192526D01*
X154807090Y-43162043D01*
X154832327Y-43138080D01*
X154857247Y-43121355D01*
X154917171Y-43099097D01*
X154986911Y-43094076D01*
X155052600Y-43106752D01*
X155052600Y-43106752D01*
G37*
X155052600Y-43106752D02*
X155069948Y-43114334D01*
X155111356Y-43147128D01*
X155146765Y-43194547D01*
X155168664Y-43245151D01*
X155172229Y-43270098D01*
X155160279Y-43304927D01*
X155134067Y-43323357D01*
X155105964Y-43334516D01*
X155093095Y-43336572D01*
X155086829Y-43321649D01*
X155074456Y-43289175D01*
X155069028Y-43274502D01*
X155038590Y-43223744D01*
X154994520Y-43198427D01*
X154938010Y-43199206D01*
X154933825Y-43200203D01*
X154903655Y-43214507D01*
X154881476Y-43242393D01*
X154866327Y-43287287D01*
X154857250Y-43352615D01*
X154853286Y-43441804D01*
X154852914Y-43489261D01*
X154852730Y-43564071D01*
X154851522Y-43615069D01*
X154848309Y-43647471D01*
X154842109Y-43666495D01*
X154831940Y-43677356D01*
X154816819Y-43685272D01*
X154815946Y-43685670D01*
X154786828Y-43697981D01*
X154772403Y-43702514D01*
X154770186Y-43688809D01*
X154768289Y-43650925D01*
X154766847Y-43593715D01*
X154765998Y-43522027D01*
X154765829Y-43469565D01*
X154766692Y-43368047D01*
X154770070Y-43291032D01*
X154777142Y-43234023D01*
X154789088Y-43192526D01*
X154807090Y-43162043D01*
X154832327Y-43138080D01*
X154857247Y-43121355D01*
X154917171Y-43099097D01*
X154986911Y-43094076D01*
X155052600Y-43106752D01*
G36*
X155553595Y-43114966D02*
X155611021Y-43152497D01*
X155638719Y-43186096D01*
X155660662Y-43247064D01*
X155662405Y-43295308D01*
X155658457Y-43359816D01*
X155509686Y-43424934D01*
X155437349Y-43458202D01*
X155390084Y-43484964D01*
X155365507Y-43508144D01*
X155361237Y-43530667D01*
X155374889Y-43555455D01*
X155389943Y-43571886D01*
X155433746Y-43598235D01*
X155481389Y-43600081D01*
X155525145Y-43579546D01*
X155557289Y-43538752D01*
X155563038Y-43524347D01*
X155590576Y-43479356D01*
X155622258Y-43460182D01*
X155665714Y-43443779D01*
X155665714Y-43505966D01*
X155661872Y-43548283D01*
X155646823Y-43583969D01*
X155615280Y-43624943D01*
X155610592Y-43630267D01*
X155575506Y-43666720D01*
X155545347Y-43686283D01*
X155507615Y-43695283D01*
X155476335Y-43698230D01*
X155420385Y-43698965D01*
X155380555Y-43689660D01*
X155355708Y-43675846D01*
X155316656Y-43645467D01*
X155289625Y-43612613D01*
X155272517Y-43571294D01*
X155263238Y-43515521D01*
X155259693Y-43439305D01*
X155259410Y-43400622D01*
X155260372Y-43354247D01*
X155348007Y-43354247D01*
X155349023Y-43379126D01*
X155351556Y-43383200D01*
X155368274Y-43377665D01*
X155404249Y-43363017D01*
X155452331Y-43342190D01*
X155462386Y-43337714D01*
X155523152Y-43306814D01*
X155556632Y-43279657D01*
X155563990Y-43254220D01*
X155546391Y-43228481D01*
X155531856Y-43217109D01*
X155479410Y-43194364D01*
X155430322Y-43198122D01*
X155389227Y-43225884D01*
X155360758Y-43275152D01*
X155351631Y-43314257D01*
X155348007Y-43354247D01*
X155260372Y-43354247D01*
X155261285Y-43310249D01*
X155268196Y-43243384D01*
X155281884Y-43194695D01*
X155304096Y-43158849D01*
X155336574Y-43130513D01*
X155350733Y-43121355D01*
X155415053Y-43097507D01*
X155485473Y-43096006D01*
X155553595Y-43114966D01*
X155553595Y-43114966D01*
G37*
X155553595Y-43114966D02*
X155611021Y-43152497D01*
X155638719Y-43186096D01*
X155660662Y-43247064D01*
X155662405Y-43295308D01*
X155658457Y-43359816D01*
X155509686Y-43424934D01*
X155437349Y-43458202D01*
X155390084Y-43484964D01*
X155365507Y-43508144D01*
X155361237Y-43530667D01*
X155374889Y-43555455D01*
X155389943Y-43571886D01*
X155433746Y-43598235D01*
X155481389Y-43600081D01*
X155525145Y-43579546D01*
X155557289Y-43538752D01*
X155563038Y-43524347D01*
X155590576Y-43479356D01*
X155622258Y-43460182D01*
X155665714Y-43443779D01*
X155665714Y-43505966D01*
X155661872Y-43548283D01*
X155646823Y-43583969D01*
X155615280Y-43624943D01*
X155610592Y-43630267D01*
X155575506Y-43666720D01*
X155545347Y-43686283D01*
X155507615Y-43695283D01*
X155476335Y-43698230D01*
X155420385Y-43698965D01*
X155380555Y-43689660D01*
X155355708Y-43675846D01*
X155316656Y-43645467D01*
X155289625Y-43612613D01*
X155272517Y-43571294D01*
X155263238Y-43515521D01*
X155259693Y-43439305D01*
X155259410Y-43400622D01*
X155260372Y-43354247D01*
X155348007Y-43354247D01*
X155349023Y-43379126D01*
X155351556Y-43383200D01*
X155368274Y-43377665D01*
X155404249Y-43363017D01*
X155452331Y-43342190D01*
X155462386Y-43337714D01*
X155523152Y-43306814D01*
X155556632Y-43279657D01*
X155563990Y-43254220D01*
X155546391Y-43228481D01*
X155531856Y-43217109D01*
X155479410Y-43194364D01*
X155430322Y-43198122D01*
X155389227Y-43225884D01*
X155360758Y-43275152D01*
X155351631Y-43314257D01*
X155348007Y-43354247D01*
X155260372Y-43354247D01*
X155261285Y-43310249D01*
X155268196Y-43243384D01*
X155281884Y-43194695D01*
X155304096Y-43158849D01*
X155336574Y-43130513D01*
X155350733Y-43121355D01*
X155415053Y-43097507D01*
X155485473Y-43096006D01*
X155553595Y-43114966D01*
G36*
X152503910Y-38390348D02*
X152582454Y-38390778D01*
X152639298Y-38391942D01*
X152678105Y-38394207D01*
X152702538Y-38397940D01*
X152716262Y-38403506D01*
X152722940Y-38411273D01*
X152726236Y-38421605D01*
X152726556Y-38422943D01*
X152731562Y-38447079D01*
X152740829Y-38494701D01*
X152753392Y-38560741D01*
X152768287Y-38640128D01*
X152784551Y-38727796D01*
X152785119Y-38730875D01*
X152801410Y-38816789D01*
X152816652Y-38892696D01*
X152829861Y-38954045D01*
X152840054Y-38996282D01*
X152846248Y-39014855D01*
X152846543Y-39015184D01*
X152864788Y-39024253D01*
X152902405Y-39039367D01*
X152951271Y-39057262D01*
X152951543Y-39057358D01*
X153013093Y-39080493D01*
X153085657Y-39109965D01*
X153154057Y-39139597D01*
X153157294Y-39141062D01*
X153268702Y-39191626D01*
X153515399Y-39023160D01*
X153591077Y-38971803D01*
X153659631Y-38925889D01*
X153717088Y-38888030D01*
X153759476Y-38860837D01*
X153782825Y-38846921D01*
X153785042Y-38845889D01*
X153802010Y-38850484D01*
X153833701Y-38872655D01*
X153881352Y-38913447D01*
X153946198Y-38973905D01*
X154012397Y-39038227D01*
X154076214Y-39101612D01*
X154133329Y-39159451D01*
X154180305Y-39208175D01*
X154213703Y-39244210D01*
X154230085Y-39263984D01*
X154230694Y-39265002D01*
X154232505Y-39278572D01*
X154225683Y-39300733D01*
X154208540Y-39334478D01*
X154179393Y-39382800D01*
X154136555Y-39448692D01*
X154079448Y-39533517D01*
X154028766Y-39608177D01*
X153983461Y-39675140D01*
X153946150Y-39730516D01*
X153919452Y-39770420D01*
X153905985Y-39790962D01*
X153905137Y-39792356D01*
X153906781Y-39812038D01*
X153919245Y-39850293D01*
X153940048Y-39899889D01*
X153947462Y-39915728D01*
X153979814Y-39986290D01*
X154014328Y-40066353D01*
X154042365Y-40135629D01*
X154062568Y-40187045D01*
X154078615Y-40226119D01*
X154087888Y-40246541D01*
X154089041Y-40248114D01*
X154106096Y-40250721D01*
X154146298Y-40257863D01*
X154204302Y-40268523D01*
X154274763Y-40281685D01*
X154352335Y-40296333D01*
X154431672Y-40311449D01*
X154507431Y-40326018D01*
X154574264Y-40339022D01*
X154626828Y-40349445D01*
X154659776Y-40356270D01*
X154667857Y-40358199D01*
X154676205Y-40362962D01*
X154682506Y-40373718D01*
X154687045Y-40394098D01*
X154690104Y-40427734D01*
X154691967Y-40478255D01*
X154692918Y-40549292D01*
X154693240Y-40644476D01*
X154693257Y-40683492D01*
X154693257Y-41000799D01*
X154617057Y-41015839D01*
X154574663Y-41023995D01*
X154511400Y-41035899D01*
X154434962Y-41050116D01*
X154353043Y-41065210D01*
X154330400Y-41069355D01*
X154254806Y-41084053D01*
X154188953Y-41098505D01*
X154138366Y-41111375D01*
X154108574Y-41121322D01*
X154103612Y-41124287D01*
X154091426Y-41145283D01*
X154073953Y-41185967D01*
X154054577Y-41238322D01*
X154050734Y-41249600D01*
X154025339Y-41319523D01*
X153993817Y-41398418D01*
X153962969Y-41469266D01*
X153962817Y-41469595D01*
X153911447Y-41580733D01*
X154080399Y-41829253D01*
X154249352Y-42077772D01*
X154032429Y-42295058D01*
X153966819Y-42359726D01*
X153906979Y-42416733D01*
X153856267Y-42463033D01*
X153818046Y-42495584D01*
X153795675Y-42511343D01*
X153792466Y-42512343D01*
X153773626Y-42504469D01*
X153735180Y-42482578D01*
X153681330Y-42449267D01*
X153616276Y-42407131D01*
X153545940Y-42359943D01*
X153474555Y-42311810D01*
X153410908Y-42269928D01*
X153359041Y-42236871D01*
X153322995Y-42215218D01*
X153306867Y-42207543D01*
X153287189Y-42214037D01*
X153249875Y-42231150D01*
X153202621Y-42255326D01*
X153197612Y-42258013D01*
X153133977Y-42289927D01*
X153090341Y-42305579D01*
X153063202Y-42305745D01*
X153049057Y-42291204D01*
X153048975Y-42291000D01*
X153041905Y-42273779D01*
X153025042Y-42232899D01*
X152999695Y-42171525D01*
X152967171Y-42092819D01*
X152928778Y-41999947D01*
X152885822Y-41896072D01*
X152844222Y-41795502D01*
X152798504Y-41684516D01*
X152756526Y-41581703D01*
X152719548Y-41490215D01*
X152688827Y-41413201D01*
X152665622Y-41353815D01*
X152651190Y-41315209D01*
X152646743Y-41300800D01*
X152657896Y-41284272D01*
X152687069Y-41257930D01*
X152725971Y-41228887D01*
X152836757Y-41137039D01*
X152923351Y-41031759D01*
X152984716Y-40915266D01*
X153019815Y-40789776D01*
X153027608Y-40657507D01*
X153021943Y-40596457D01*
X152991078Y-40469795D01*
X152937920Y-40357941D01*
X152865767Y-40262001D01*
X152777917Y-40183076D01*
X152677665Y-40122270D01*
X152568310Y-40080687D01*
X152453147Y-40059428D01*
X152335475Y-40059599D01*
X152218590Y-40082301D01*
X152105789Y-40128638D01*
X152000369Y-40199713D01*
X151956368Y-40239911D01*
X151871979Y-40343129D01*
X151813222Y-40455925D01*
X151779704Y-40575010D01*
X151771035Y-40697095D01*
X151786823Y-40818893D01*
X151826678Y-40937116D01*
X151890207Y-41048475D01*
X151977021Y-41149684D01*
X152074029Y-41228887D01*
X152114437Y-41259162D01*
X152142982Y-41285219D01*
X152153257Y-41300825D01*
X152147877Y-41317843D01*
X152132575Y-41358500D01*
X152108612Y-41419642D01*
X152077244Y-41498119D01*
X152039732Y-41590780D01*
X151997333Y-41694472D01*
X151955663Y-41795526D01*
X151909690Y-41906607D01*
X151867107Y-42009541D01*
X151829221Y-42101165D01*
X151797340Y-42178316D01*
X151772771Y-42237831D01*
X151756820Y-42276544D01*
X151750910Y-42291000D01*
X151736948Y-42305685D01*
X151709940Y-42305642D01*
X151666413Y-42290099D01*
X151602890Y-42258284D01*
X151602388Y-42258013D01*
X151554560Y-42233323D01*
X151515897Y-42215338D01*
X151494095Y-42207614D01*
X151493133Y-42207543D01*
X151476721Y-42215378D01*
X151440487Y-42237165D01*
X151388474Y-42270328D01*
X151324725Y-42312291D01*
X151254060Y-42359943D01*
X151182116Y-42408191D01*
X151117274Y-42450151D01*
X151063735Y-42483227D01*
X151025697Y-42504821D01*
X151007533Y-42512343D01*
X150990808Y-42502457D01*
X150957180Y-42474826D01*
X150910010Y-42432495D01*
X150852658Y-42378505D01*
X150788484Y-42315899D01*
X150767497Y-42294983D01*
X150550499Y-42077623D01*
X150715668Y-41835220D01*
X150765864Y-41760781D01*
X150809919Y-41693972D01*
X150845362Y-41638665D01*
X150869719Y-41598729D01*
X150880522Y-41578036D01*
X150880838Y-41576563D01*
X150875143Y-41557058D01*
X150859826Y-41517822D01*
X150837537Y-41465430D01*
X150821893Y-41430355D01*
X150792641Y-41363201D01*
X150765094Y-41295358D01*
X150743737Y-41238034D01*
X150737935Y-41220572D01*
X150721452Y-41173938D01*
X150705340Y-41137905D01*
X150696490Y-41124287D01*
X150676960Y-41115952D01*
X150634334Y-41104137D01*
X150574145Y-41090181D01*
X150501922Y-41075422D01*
X150469600Y-41069355D01*
X150387522Y-41054273D01*
X150308795Y-41039669D01*
X150241109Y-41026980D01*
X150192160Y-41017642D01*
X150182943Y-41015839D01*
X150106743Y-41000799D01*
X150106743Y-40683492D01*
X150106914Y-40579154D01*
X150107616Y-40500213D01*
X150109134Y-40443038D01*
X150111749Y-40403999D01*
X150115746Y-40379465D01*
X150121409Y-40365805D01*
X150129020Y-40359389D01*
X150132143Y-40358199D01*
X150150978Y-40353980D01*
X150192588Y-40345562D01*
X150251630Y-40333961D01*
X150322757Y-40320195D01*
X150400625Y-40305280D01*
X150479887Y-40290232D01*
X150555198Y-40276069D01*
X150621213Y-40263806D01*
X150672587Y-40254461D01*
X150703975Y-40249050D01*
X150710959Y-40248114D01*
X150717285Y-40235596D01*
X150731290Y-40202246D01*
X150750355Y-40154377D01*
X150757634Y-40135629D01*
X150786996Y-40063195D01*
X150821571Y-39983170D01*
X150852537Y-39915728D01*
X150875323Y-39864159D01*
X150890482Y-39821785D01*
X150895542Y-39795834D01*
X150894736Y-39792356D01*
X150884041Y-39775936D01*
X150859620Y-39739417D01*
X150824095Y-39686687D01*
X150780087Y-39621635D01*
X150730217Y-39548151D01*
X150720356Y-39533645D01*
X150662492Y-39447704D01*
X150619956Y-39382261D01*
X150591054Y-39334304D01*
X150574090Y-39300820D01*
X150567367Y-39278795D01*
X150569190Y-39265217D01*
X150569236Y-39265131D01*
X150583586Y-39247297D01*
X150615323Y-39212817D01*
X150661010Y-39165268D01*
X150717204Y-39108222D01*
X150780468Y-39045255D01*
X150787602Y-39038227D01*
X150867330Y-38961020D01*
X150928857Y-38904330D01*
X150973421Y-38867110D01*
X151002257Y-38848315D01*
X151014958Y-38845889D01*
X151033494Y-38856471D01*
X151071961Y-38880916D01*
X151126386Y-38916612D01*
X151192798Y-38960947D01*
X151267225Y-39011311D01*
X151284601Y-39023160D01*
X151531297Y-39191626D01*
X151642706Y-39141062D01*
X151710457Y-39111595D01*
X151783183Y-39081959D01*
X151845703Y-39058330D01*
X151848457Y-39057358D01*
X151897360Y-39039457D01*
X151935057Y-39024320D01*
X151953425Y-39015210D01*
X151953456Y-39015184D01*
X151959285Y-38998717D01*
X151969192Y-38958219D01*
X151982195Y-38898242D01*
X151997309Y-38823340D01*
X152013552Y-38738064D01*
X152014881Y-38730875D01*
X152031175Y-38643014D01*
X152046133Y-38563260D01*
X152058791Y-38496681D01*
X152068186Y-38448347D01*
X152073354Y-38423325D01*
X152073444Y-38422943D01*
X152076589Y-38412299D01*
X152082704Y-38404262D01*
X152095453Y-38398467D01*
X152118500Y-38394547D01*
X152155509Y-38392135D01*
X152210144Y-38390865D01*
X152286067Y-38390371D01*
X152386944Y-38390286D01*
X152400000Y-38390286D01*
X152503910Y-38390348D01*
X152503910Y-38390348D01*
G37*
X152503910Y-38390348D02*
X152582454Y-38390778D01*
X152639298Y-38391942D01*
X152678105Y-38394207D01*
X152702538Y-38397940D01*
X152716262Y-38403506D01*
X152722940Y-38411273D01*
X152726236Y-38421605D01*
X152726556Y-38422943D01*
X152731562Y-38447079D01*
X152740829Y-38494701D01*
X152753392Y-38560741D01*
X152768287Y-38640128D01*
X152784551Y-38727796D01*
X152785119Y-38730875D01*
X152801410Y-38816789D01*
X152816652Y-38892696D01*
X152829861Y-38954045D01*
X152840054Y-38996282D01*
X152846248Y-39014855D01*
X152846543Y-39015184D01*
X152864788Y-39024253D01*
X152902405Y-39039367D01*
X152951271Y-39057262D01*
X152951543Y-39057358D01*
X153013093Y-39080493D01*
X153085657Y-39109965D01*
X153154057Y-39139597D01*
X153157294Y-39141062D01*
X153268702Y-39191626D01*
X153515399Y-39023160D01*
X153591077Y-38971803D01*
X153659631Y-38925889D01*
X153717088Y-38888030D01*
X153759476Y-38860837D01*
X153782825Y-38846921D01*
X153785042Y-38845889D01*
X153802010Y-38850484D01*
X153833701Y-38872655D01*
X153881352Y-38913447D01*
X153946198Y-38973905D01*
X154012397Y-39038227D01*
X154076214Y-39101612D01*
X154133329Y-39159451D01*
X154180305Y-39208175D01*
X154213703Y-39244210D01*
X154230085Y-39263984D01*
X154230694Y-39265002D01*
X154232505Y-39278572D01*
X154225683Y-39300733D01*
X154208540Y-39334478D01*
X154179393Y-39382800D01*
X154136555Y-39448692D01*
X154079448Y-39533517D01*
X154028766Y-39608177D01*
X153983461Y-39675140D01*
X153946150Y-39730516D01*
X153919452Y-39770420D01*
X153905985Y-39790962D01*
X153905137Y-39792356D01*
X153906781Y-39812038D01*
X153919245Y-39850293D01*
X153940048Y-39899889D01*
X153947462Y-39915728D01*
X153979814Y-39986290D01*
X154014328Y-40066353D01*
X154042365Y-40135629D01*
X154062568Y-40187045D01*
X154078615Y-40226119D01*
X154087888Y-40246541D01*
X154089041Y-40248114D01*
X154106096Y-40250721D01*
X154146298Y-40257863D01*
X154204302Y-40268523D01*
X154274763Y-40281685D01*
X154352335Y-40296333D01*
X154431672Y-40311449D01*
X154507431Y-40326018D01*
X154574264Y-40339022D01*
X154626828Y-40349445D01*
X154659776Y-40356270D01*
X154667857Y-40358199D01*
X154676205Y-40362962D01*
X154682506Y-40373718D01*
X154687045Y-40394098D01*
X154690104Y-40427734D01*
X154691967Y-40478255D01*
X154692918Y-40549292D01*
X154693240Y-40644476D01*
X154693257Y-40683492D01*
X154693257Y-41000799D01*
X154617057Y-41015839D01*
X154574663Y-41023995D01*
X154511400Y-41035899D01*
X154434962Y-41050116D01*
X154353043Y-41065210D01*
X154330400Y-41069355D01*
X154254806Y-41084053D01*
X154188953Y-41098505D01*
X154138366Y-41111375D01*
X154108574Y-41121322D01*
X154103612Y-41124287D01*
X154091426Y-41145283D01*
X154073953Y-41185967D01*
X154054577Y-41238322D01*
X154050734Y-41249600D01*
X154025339Y-41319523D01*
X153993817Y-41398418D01*
X153962969Y-41469266D01*
X153962817Y-41469595D01*
X153911447Y-41580733D01*
X154080399Y-41829253D01*
X154249352Y-42077772D01*
X154032429Y-42295058D01*
X153966819Y-42359726D01*
X153906979Y-42416733D01*
X153856267Y-42463033D01*
X153818046Y-42495584D01*
X153795675Y-42511343D01*
X153792466Y-42512343D01*
X153773626Y-42504469D01*
X153735180Y-42482578D01*
X153681330Y-42449267D01*
X153616276Y-42407131D01*
X153545940Y-42359943D01*
X153474555Y-42311810D01*
X153410908Y-42269928D01*
X153359041Y-42236871D01*
X153322995Y-42215218D01*
X153306867Y-42207543D01*
X153287189Y-42214037D01*
X153249875Y-42231150D01*
X153202621Y-42255326D01*
X153197612Y-42258013D01*
X153133977Y-42289927D01*
X153090341Y-42305579D01*
X153063202Y-42305745D01*
X153049057Y-42291204D01*
X153048975Y-42291000D01*
X153041905Y-42273779D01*
X153025042Y-42232899D01*
X152999695Y-42171525D01*
X152967171Y-42092819D01*
X152928778Y-41999947D01*
X152885822Y-41896072D01*
X152844222Y-41795502D01*
X152798504Y-41684516D01*
X152756526Y-41581703D01*
X152719548Y-41490215D01*
X152688827Y-41413201D01*
X152665622Y-41353815D01*
X152651190Y-41315209D01*
X152646743Y-41300800D01*
X152657896Y-41284272D01*
X152687069Y-41257930D01*
X152725971Y-41228887D01*
X152836757Y-41137039D01*
X152923351Y-41031759D01*
X152984716Y-40915266D01*
X153019815Y-40789776D01*
X153027608Y-40657507D01*
X153021943Y-40596457D01*
X152991078Y-40469795D01*
X152937920Y-40357941D01*
X152865767Y-40262001D01*
X152777917Y-40183076D01*
X152677665Y-40122270D01*
X152568310Y-40080687D01*
X152453147Y-40059428D01*
X152335475Y-40059599D01*
X152218590Y-40082301D01*
X152105789Y-40128638D01*
X152000369Y-40199713D01*
X151956368Y-40239911D01*
X151871979Y-40343129D01*
X151813222Y-40455925D01*
X151779704Y-40575010D01*
X151771035Y-40697095D01*
X151786823Y-40818893D01*
X151826678Y-40937116D01*
X151890207Y-41048475D01*
X151977021Y-41149684D01*
X152074029Y-41228887D01*
X152114437Y-41259162D01*
X152142982Y-41285219D01*
X152153257Y-41300825D01*
X152147877Y-41317843D01*
X152132575Y-41358500D01*
X152108612Y-41419642D01*
X152077244Y-41498119D01*
X152039732Y-41590780D01*
X151997333Y-41694472D01*
X151955663Y-41795526D01*
X151909690Y-41906607D01*
X151867107Y-42009541D01*
X151829221Y-42101165D01*
X151797340Y-42178316D01*
X151772771Y-42237831D01*
X151756820Y-42276544D01*
X151750910Y-42291000D01*
X151736948Y-42305685D01*
X151709940Y-42305642D01*
X151666413Y-42290099D01*
X151602890Y-42258284D01*
X151602388Y-42258013D01*
X151554560Y-42233323D01*
X151515897Y-42215338D01*
X151494095Y-42207614D01*
X151493133Y-42207543D01*
X151476721Y-42215378D01*
X151440487Y-42237165D01*
X151388474Y-42270328D01*
X151324725Y-42312291D01*
X151254060Y-42359943D01*
X151182116Y-42408191D01*
X151117274Y-42450151D01*
X151063735Y-42483227D01*
X151025697Y-42504821D01*
X151007533Y-42512343D01*
X150990808Y-42502457D01*
X150957180Y-42474826D01*
X150910010Y-42432495D01*
X150852658Y-42378505D01*
X150788484Y-42315899D01*
X150767497Y-42294983D01*
X150550499Y-42077623D01*
X150715668Y-41835220D01*
X150765864Y-41760781D01*
X150809919Y-41693972D01*
X150845362Y-41638665D01*
X150869719Y-41598729D01*
X150880522Y-41578036D01*
X150880838Y-41576563D01*
X150875143Y-41557058D01*
X150859826Y-41517822D01*
X150837537Y-41465430D01*
X150821893Y-41430355D01*
X150792641Y-41363201D01*
X150765094Y-41295358D01*
X150743737Y-41238034D01*
X150737935Y-41220572D01*
X150721452Y-41173938D01*
X150705340Y-41137905D01*
X150696490Y-41124287D01*
X150676960Y-41115952D01*
X150634334Y-41104137D01*
X150574145Y-41090181D01*
X150501922Y-41075422D01*
X150469600Y-41069355D01*
X150387522Y-41054273D01*
X150308795Y-41039669D01*
X150241109Y-41026980D01*
X150192160Y-41017642D01*
X150182943Y-41015839D01*
X150106743Y-41000799D01*
X150106743Y-40683492D01*
X150106914Y-40579154D01*
X150107616Y-40500213D01*
X150109134Y-40443038D01*
X150111749Y-40403999D01*
X150115746Y-40379465D01*
X150121409Y-40365805D01*
X150129020Y-40359389D01*
X150132143Y-40358199D01*
X150150978Y-40353980D01*
X150192588Y-40345562D01*
X150251630Y-40333961D01*
X150322757Y-40320195D01*
X150400625Y-40305280D01*
X150479887Y-40290232D01*
X150555198Y-40276069D01*
X150621213Y-40263806D01*
X150672587Y-40254461D01*
X150703975Y-40249050D01*
X150710959Y-40248114D01*
X150717285Y-40235596D01*
X150731290Y-40202246D01*
X150750355Y-40154377D01*
X150757634Y-40135629D01*
X150786996Y-40063195D01*
X150821571Y-39983170D01*
X150852537Y-39915728D01*
X150875323Y-39864159D01*
X150890482Y-39821785D01*
X150895542Y-39795834D01*
X150894736Y-39792356D01*
X150884041Y-39775936D01*
X150859620Y-39739417D01*
X150824095Y-39686687D01*
X150780087Y-39621635D01*
X150730217Y-39548151D01*
X150720356Y-39533645D01*
X150662492Y-39447704D01*
X150619956Y-39382261D01*
X150591054Y-39334304D01*
X150574090Y-39300820D01*
X150567367Y-39278795D01*
X150569190Y-39265217D01*
X150569236Y-39265131D01*
X150583586Y-39247297D01*
X150615323Y-39212817D01*
X150661010Y-39165268D01*
X150717204Y-39108222D01*
X150780468Y-39045255D01*
X150787602Y-39038227D01*
X150867330Y-38961020D01*
X150928857Y-38904330D01*
X150973421Y-38867110D01*
X151002257Y-38848315D01*
X151014958Y-38845889D01*
X151033494Y-38856471D01*
X151071961Y-38880916D01*
X151126386Y-38916612D01*
X151192798Y-38960947D01*
X151267225Y-39011311D01*
X151284601Y-39023160D01*
X151531297Y-39191626D01*
X151642706Y-39141062D01*
X151710457Y-39111595D01*
X151783183Y-39081959D01*
X151845703Y-39058330D01*
X151848457Y-39057358D01*
X151897360Y-39039457D01*
X151935057Y-39024320D01*
X151953425Y-39015210D01*
X151953456Y-39015184D01*
X151959285Y-38998717D01*
X151969192Y-38958219D01*
X151982195Y-38898242D01*
X151997309Y-38823340D01*
X152013552Y-38738064D01*
X152014881Y-38730875D01*
X152031175Y-38643014D01*
X152046133Y-38563260D01*
X152058791Y-38496681D01*
X152068186Y-38448347D01*
X152073354Y-38423325D01*
X152073444Y-38422943D01*
X152076589Y-38412299D01*
X152082704Y-38404262D01*
X152095453Y-38398467D01*
X152118500Y-38394547D01*
X152155509Y-38392135D01*
X152210144Y-38390865D01*
X152286067Y-38390371D01*
X152386944Y-38390286D01*
X152400000Y-38390286D01*
X152503910Y-38390348D01*
D13*
X121515143Y-65920857D02*
X121562762Y-65968476D01*
X121610381Y-66111333D01*
X121610381Y-66206571D01*
X121562762Y-66349429D01*
X121467524Y-66444667D01*
X121372286Y-66492286D01*
X121181810Y-66539905D01*
X121038952Y-66539905D01*
X120848476Y-66492286D01*
X120753238Y-66444667D01*
X120658000Y-66349429D01*
X120610381Y-66206571D01*
X120610381Y-66111333D01*
X120658000Y-65968476D01*
X120705619Y-65920857D01*
X121610381Y-64968476D02*
X121610381Y-65539905D01*
X121610381Y-65254191D02*
X120610381Y-65254191D01*
X120753238Y-65349429D01*
X120848476Y-65444667D01*
X120896095Y-65539905D01*
X121610381Y-64016095D02*
X121610381Y-64587524D01*
X121610381Y-64301810D02*
X120610381Y-64301810D01*
X120753238Y-64397048D01*
X120848476Y-64492286D01*
X120896095Y-64587524D01*
X107188095Y-60412381D02*
X107188095Y-61221905D01*
X107235714Y-61317143D01*
X107283333Y-61364762D01*
X107378571Y-61412381D01*
X107569048Y-61412381D01*
X107664286Y-61364762D01*
X107711905Y-61317143D01*
X107759524Y-61221905D01*
X107759524Y-60412381D01*
X108188095Y-60507619D02*
X108235714Y-60460000D01*
X108330952Y-60412381D01*
X108569048Y-60412381D01*
X108664286Y-60460000D01*
X108711905Y-60507619D01*
X108759524Y-60602857D01*
X108759524Y-60698095D01*
X108711905Y-60840952D01*
X108140476Y-61412381D01*
X108759524Y-61412381D01*
X103338334Y-28297143D02*
X103290715Y-28344762D01*
X103147858Y-28392381D01*
X103052620Y-28392381D01*
X102909762Y-28344762D01*
X102814524Y-28249524D01*
X102766905Y-28154286D01*
X102719286Y-27963810D01*
X102719286Y-27820952D01*
X102766905Y-27630476D01*
X102814524Y-27535238D01*
X102909762Y-27440000D01*
X103052620Y-27392381D01*
X103147858Y-27392381D01*
X103290715Y-27440000D01*
X103338334Y-27487619D01*
X104195477Y-27725714D02*
X104195477Y-28392381D01*
X103957381Y-27344762D02*
X103719286Y-28059048D01*
X104338334Y-28059048D01*
X117451143Y-63412666D02*
X117498762Y-63460285D01*
X117546381Y-63603142D01*
X117546381Y-63698380D01*
X117498762Y-63841238D01*
X117403524Y-63936476D01*
X117308286Y-63984095D01*
X117117810Y-64031714D01*
X116974952Y-64031714D01*
X116784476Y-63984095D01*
X116689238Y-63936476D01*
X116594000Y-63841238D01*
X116546381Y-63698380D01*
X116546381Y-63603142D01*
X116594000Y-63460285D01*
X116641619Y-63412666D01*
X116546381Y-62507904D02*
X116546381Y-62984095D01*
X117022571Y-63031714D01*
X116974952Y-62984095D01*
X116927333Y-62888857D01*
X116927333Y-62650761D01*
X116974952Y-62555523D01*
X117022571Y-62507904D01*
X117117810Y-62460285D01*
X117355905Y-62460285D01*
X117451143Y-62507904D01*
X117498762Y-62555523D01*
X117546381Y-62650761D01*
X117546381Y-62888857D01*
X117498762Y-62984095D01*
X117451143Y-63031714D01*
X102957334Y-52427143D02*
X102909715Y-52474762D01*
X102766858Y-52522381D01*
X102671620Y-52522381D01*
X102528762Y-52474762D01*
X102433524Y-52379524D01*
X102385905Y-52284286D01*
X102338286Y-52093810D01*
X102338286Y-51950952D01*
X102385905Y-51760476D01*
X102433524Y-51665238D01*
X102528762Y-51570000D01*
X102671620Y-51522381D01*
X102766858Y-51522381D01*
X102909715Y-51570000D01*
X102957334Y-51617619D01*
X103814477Y-51522381D02*
X103624000Y-51522381D01*
X103528762Y-51570000D01*
X103481143Y-51617619D01*
X103385905Y-51760476D01*
X103338286Y-51950952D01*
X103338286Y-52331905D01*
X103385905Y-52427143D01*
X103433524Y-52474762D01*
X103528762Y-52522381D01*
X103719239Y-52522381D01*
X103814477Y-52474762D01*
X103862096Y-52427143D01*
X103909715Y-52331905D01*
X103909715Y-52093810D01*
X103862096Y-51998571D01*
X103814477Y-51950952D01*
X103719239Y-51903333D01*
X103528762Y-51903333D01*
X103433524Y-51950952D01*
X103385905Y-51998571D01*
X103338286Y-52093810D01*
X74287143Y-65127143D02*
X74239524Y-65174762D01*
X74096667Y-65222381D01*
X74001429Y-65222381D01*
X73858571Y-65174762D01*
X73763333Y-65079524D01*
X73715714Y-64984286D01*
X73668095Y-64793810D01*
X73668095Y-64650952D01*
X73715714Y-64460476D01*
X73763333Y-64365238D01*
X73858571Y-64270000D01*
X74001429Y-64222381D01*
X74096667Y-64222381D01*
X74239524Y-64270000D01*
X74287143Y-64317619D01*
X75239524Y-65222381D02*
X74668095Y-65222381D01*
X74953809Y-65222381D02*
X74953809Y-64222381D01*
X74858571Y-64365238D01*
X74763333Y-64460476D01*
X74668095Y-64508095D01*
X75572857Y-64222381D02*
X76239524Y-64222381D01*
X75810952Y-65222381D01*
X91432143Y-34647143D02*
X91384524Y-34694762D01*
X91241667Y-34742381D01*
X91146429Y-34742381D01*
X91003571Y-34694762D01*
X90908333Y-34599524D01*
X90860714Y-34504286D01*
X90813095Y-34313810D01*
X90813095Y-34170952D01*
X90860714Y-33980476D01*
X90908333Y-33885238D01*
X91003571Y-33790000D01*
X91146429Y-33742381D01*
X91241667Y-33742381D01*
X91384524Y-33790000D01*
X91432143Y-33837619D01*
X92384524Y-34742381D02*
X91813095Y-34742381D01*
X92098809Y-34742381D02*
X92098809Y-33742381D01*
X92003571Y-33885238D01*
X91908333Y-33980476D01*
X91813095Y-34028095D01*
X92955952Y-34170952D02*
X92860714Y-34123333D01*
X92813095Y-34075714D01*
X92765476Y-33980476D01*
X92765476Y-33932857D01*
X92813095Y-33837619D01*
X92860714Y-33790000D01*
X92955952Y-33742381D01*
X93146429Y-33742381D01*
X93241667Y-33790000D01*
X93289286Y-33837619D01*
X93336905Y-33932857D01*
X93336905Y-33980476D01*
X93289286Y-34075714D01*
X93241667Y-34123333D01*
X93146429Y-34170952D01*
X92955952Y-34170952D01*
X92860714Y-34218571D01*
X92813095Y-34266190D01*
X92765476Y-34361429D01*
X92765476Y-34551905D01*
X92813095Y-34647143D01*
X92860714Y-34694762D01*
X92955952Y-34742381D01*
X93146429Y-34742381D01*
X93241667Y-34694762D01*
X93289286Y-34647143D01*
X93336905Y-34551905D01*
X93336905Y-34361429D01*
X93289286Y-34266190D01*
X93241667Y-34218571D01*
X93146429Y-34170952D01*
X91432143Y-65127143D02*
X91384524Y-65174762D01*
X91241667Y-65222381D01*
X91146429Y-65222381D01*
X91003571Y-65174762D01*
X90908333Y-65079524D01*
X90860714Y-64984286D01*
X90813095Y-64793810D01*
X90813095Y-64650952D01*
X90860714Y-64460476D01*
X90908333Y-64365238D01*
X91003571Y-64270000D01*
X91146429Y-64222381D01*
X91241667Y-64222381D01*
X91384524Y-64270000D01*
X91432143Y-64317619D01*
X92384524Y-65222381D02*
X91813095Y-65222381D01*
X92098809Y-65222381D02*
X92098809Y-64222381D01*
X92003571Y-64365238D01*
X91908333Y-64460476D01*
X91813095Y-64508095D01*
X92860714Y-65222381D02*
X93051190Y-65222381D01*
X93146429Y-65174762D01*
X93194048Y-65127143D01*
X93289286Y-64984286D01*
X93336905Y-64793810D01*
X93336905Y-64412857D01*
X93289286Y-64317619D01*
X93241667Y-64270000D01*
X93146429Y-64222381D01*
X92955952Y-64222381D01*
X92860714Y-64270000D01*
X92813095Y-64317619D01*
X92765476Y-64412857D01*
X92765476Y-64650952D01*
X92813095Y-64746190D01*
X92860714Y-64793810D01*
X92955952Y-64841429D01*
X93146429Y-64841429D01*
X93241667Y-64793810D01*
X93289286Y-64746190D01*
X93336905Y-64650952D01*
X74287143Y-34647143D02*
X74239524Y-34694762D01*
X74096667Y-34742381D01*
X74001429Y-34742381D01*
X73858571Y-34694762D01*
X73763333Y-34599524D01*
X73715714Y-34504286D01*
X73668095Y-34313810D01*
X73668095Y-34170952D01*
X73715714Y-33980476D01*
X73763333Y-33885238D01*
X73858571Y-33790000D01*
X74001429Y-33742381D01*
X74096667Y-33742381D01*
X74239524Y-33790000D01*
X74287143Y-33837619D01*
X74668095Y-33837619D02*
X74715714Y-33790000D01*
X74810952Y-33742381D01*
X75049048Y-33742381D01*
X75144286Y-33790000D01*
X75191905Y-33837619D01*
X75239524Y-33932857D01*
X75239524Y-34028095D01*
X75191905Y-34170952D01*
X74620476Y-34742381D01*
X75239524Y-34742381D01*
X75858571Y-33742381D02*
X75953810Y-33742381D01*
X76049048Y-33790000D01*
X76096667Y-33837619D01*
X76144286Y-33932857D01*
X76191905Y-34123333D01*
X76191905Y-34361429D01*
X76144286Y-34551905D01*
X76096667Y-34647143D01*
X76049048Y-34694762D01*
X75953810Y-34742381D01*
X75858571Y-34742381D01*
X75763333Y-34694762D01*
X75715714Y-34647143D01*
X75668095Y-34551905D01*
X75620476Y-34361429D01*
X75620476Y-34123333D01*
X75668095Y-33932857D01*
X75715714Y-33837619D01*
X75763333Y-33790000D01*
X75858571Y-33742381D01*
X97363599Y-54657497D02*
X97411218Y-54705116D01*
X97458837Y-54847973D01*
X97458837Y-54943211D01*
X97411218Y-55086069D01*
X97315980Y-55181307D01*
X97220742Y-55228926D01*
X97030266Y-55276545D01*
X96887408Y-55276545D01*
X96696932Y-55228926D01*
X96601694Y-55181307D01*
X96506456Y-55086069D01*
X96458837Y-54943211D01*
X96458837Y-54847973D01*
X96506456Y-54705116D01*
X96554075Y-54657497D01*
X96554075Y-54276545D02*
X96506456Y-54228926D01*
X96458837Y-54133688D01*
X96458837Y-53895592D01*
X96506456Y-53800354D01*
X96554075Y-53752735D01*
X96649313Y-53705116D01*
X96744551Y-53705116D01*
X96887408Y-53752735D01*
X97458837Y-54324164D01*
X97458837Y-53705116D01*
X97458837Y-52752735D02*
X97458837Y-53324164D01*
X97458837Y-53038450D02*
X96458837Y-53038450D01*
X96601694Y-53133688D01*
X96696932Y-53228926D01*
X96744551Y-53324164D01*
X97363599Y-48053497D02*
X97411218Y-48101116D01*
X97458837Y-48243973D01*
X97458837Y-48339211D01*
X97411218Y-48482069D01*
X97315980Y-48577307D01*
X97220742Y-48624926D01*
X97030266Y-48672545D01*
X96887408Y-48672545D01*
X96696932Y-48624926D01*
X96601694Y-48577307D01*
X96506456Y-48482069D01*
X96458837Y-48339211D01*
X96458837Y-48243973D01*
X96506456Y-48101116D01*
X96554075Y-48053497D01*
X96554075Y-47672545D02*
X96506456Y-47624926D01*
X96458837Y-47529688D01*
X96458837Y-47291592D01*
X96506456Y-47196354D01*
X96554075Y-47148735D01*
X96649313Y-47101116D01*
X96744551Y-47101116D01*
X96887408Y-47148735D01*
X97458837Y-47720164D01*
X97458837Y-47101116D01*
X96554075Y-46720164D02*
X96506456Y-46672545D01*
X96458837Y-46577307D01*
X96458837Y-46339211D01*
X96506456Y-46243973D01*
X96554075Y-46196354D01*
X96649313Y-46148735D01*
X96744551Y-46148735D01*
X96887408Y-46196354D01*
X97458837Y-46767783D01*
X97458837Y-46148735D01*
X110069334Y-28646381D02*
X109736000Y-28170190D01*
X109497905Y-28646381D02*
X109497905Y-27646381D01*
X109878858Y-27646381D01*
X109974096Y-27694000D01*
X110021715Y-27741619D01*
X110069334Y-27836857D01*
X110069334Y-27979714D01*
X110021715Y-28074952D01*
X109974096Y-28122571D01*
X109878858Y-28170190D01*
X109497905Y-28170190D01*
X111021715Y-28646381D02*
X110450286Y-28646381D01*
X110736000Y-28646381D02*
X110736000Y-27646381D01*
X110640762Y-27789238D01*
X110545524Y-27884476D01*
X110450286Y-27932095D01*
X105497334Y-49474381D02*
X105164000Y-48998190D01*
X104925905Y-49474381D02*
X104925905Y-48474381D01*
X105306858Y-48474381D01*
X105402096Y-48522000D01*
X105449715Y-48569619D01*
X105497334Y-48664857D01*
X105497334Y-48807714D01*
X105449715Y-48902952D01*
X105402096Y-48950571D01*
X105306858Y-48998190D01*
X104925905Y-48998190D01*
X105878286Y-48569619D02*
X105925905Y-48522000D01*
X106021143Y-48474381D01*
X106259239Y-48474381D01*
X106354477Y-48522000D01*
X106402096Y-48569619D01*
X106449715Y-48664857D01*
X106449715Y-48760095D01*
X106402096Y-48902952D01*
X105830667Y-49474381D01*
X106449715Y-49474381D01*
X110069334Y-52522381D02*
X109736000Y-52046190D01*
X109497905Y-52522381D02*
X109497905Y-51522381D01*
X109878858Y-51522381D01*
X109974096Y-51570000D01*
X110021715Y-51617619D01*
X110069334Y-51712857D01*
X110069334Y-51855714D01*
X110021715Y-51950952D01*
X109974096Y-51998571D01*
X109878858Y-52046190D01*
X109497905Y-52046190D01*
X110402667Y-51522381D02*
X111021715Y-51522381D01*
X110688381Y-51903333D01*
X110831239Y-51903333D01*
X110926477Y-51950952D01*
X110974096Y-51998571D01*
X111021715Y-52093810D01*
X111021715Y-52331905D01*
X110974096Y-52427143D01*
X110926477Y-52474762D01*
X110831239Y-52522381D01*
X110545524Y-52522381D01*
X110450286Y-52474762D01*
X110402667Y-52427143D01*
X105243334Y-74112381D02*
X104910000Y-73636190D01*
X104671905Y-74112381D02*
X104671905Y-73112381D01*
X105052858Y-73112381D01*
X105148096Y-73160000D01*
X105195715Y-73207619D01*
X105243334Y-73302857D01*
X105243334Y-73445714D01*
X105195715Y-73540952D01*
X105148096Y-73588571D01*
X105052858Y-73636190D01*
X104671905Y-73636190D01*
X106100477Y-73445714D02*
X106100477Y-74112381D01*
X105862381Y-73064762D02*
X105624286Y-73779048D01*
X106243334Y-73779048D01*
X110069334Y-49474381D02*
X109736000Y-48998190D01*
X109497905Y-49474381D02*
X109497905Y-48474381D01*
X109878858Y-48474381D01*
X109974096Y-48522000D01*
X110021715Y-48569619D01*
X110069334Y-48664857D01*
X110069334Y-48807714D01*
X110021715Y-48902952D01*
X109974096Y-48950571D01*
X109878858Y-48998190D01*
X109497905Y-48998190D01*
X110974096Y-48474381D02*
X110497905Y-48474381D01*
X110450286Y-48950571D01*
X110497905Y-48902952D01*
X110593143Y-48855333D01*
X110831239Y-48855333D01*
X110926477Y-48902952D01*
X110974096Y-48950571D01*
X111021715Y-49045810D01*
X111021715Y-49283905D01*
X110974096Y-49379143D01*
X110926477Y-49426762D01*
X110831239Y-49474381D01*
X110593143Y-49474381D01*
X110497905Y-49426762D01*
X110450286Y-49379143D01*
X110069334Y-74112381D02*
X109736000Y-73636190D01*
X109497905Y-74112381D02*
X109497905Y-73112381D01*
X109878858Y-73112381D01*
X109974096Y-73160000D01*
X110021715Y-73207619D01*
X110069334Y-73302857D01*
X110069334Y-73445714D01*
X110021715Y-73540952D01*
X109974096Y-73588571D01*
X109878858Y-73636190D01*
X109497905Y-73636190D01*
X110926477Y-73112381D02*
X110736000Y-73112381D01*
X110640762Y-73160000D01*
X110593143Y-73207619D01*
X110497905Y-73350476D01*
X110450286Y-73540952D01*
X110450286Y-73921905D01*
X110497905Y-74017143D01*
X110545524Y-74064762D01*
X110640762Y-74112381D01*
X110831239Y-74112381D01*
X110926477Y-74064762D01*
X110974096Y-74017143D01*
X111021715Y-73921905D01*
X111021715Y-73683810D01*
X110974096Y-73588571D01*
X110926477Y-73540952D01*
X110831239Y-73493333D01*
X110640762Y-73493333D01*
X110545524Y-73540952D01*
X110497905Y-73588571D01*
X110450286Y-73683810D01*
X110069334Y-45918381D02*
X109736000Y-45442190D01*
X109497905Y-45918381D02*
X109497905Y-44918381D01*
X109878858Y-44918381D01*
X109974096Y-44966000D01*
X110021715Y-45013619D01*
X110069334Y-45108857D01*
X110069334Y-45251714D01*
X110021715Y-45346952D01*
X109974096Y-45394571D01*
X109878858Y-45442190D01*
X109497905Y-45442190D01*
X110402667Y-44918381D02*
X111069334Y-44918381D01*
X110640762Y-45918381D01*
X110069334Y-70302381D02*
X109736000Y-69826190D01*
X109497905Y-70302381D02*
X109497905Y-69302381D01*
X109878858Y-69302381D01*
X109974096Y-69350000D01*
X110021715Y-69397619D01*
X110069334Y-69492857D01*
X110069334Y-69635714D01*
X110021715Y-69730952D01*
X109974096Y-69778571D01*
X109878858Y-69826190D01*
X109497905Y-69826190D01*
X110640762Y-69730952D02*
X110545524Y-69683333D01*
X110497905Y-69635714D01*
X110450286Y-69540476D01*
X110450286Y-69492857D01*
X110497905Y-69397619D01*
X110545524Y-69350000D01*
X110640762Y-69302381D01*
X110831239Y-69302381D01*
X110926477Y-69350000D01*
X110974096Y-69397619D01*
X111021715Y-69492857D01*
X111021715Y-69540476D01*
X110974096Y-69635714D01*
X110926477Y-69683333D01*
X110831239Y-69730952D01*
X110640762Y-69730952D01*
X110545524Y-69778571D01*
X110497905Y-69826190D01*
X110450286Y-69921429D01*
X110450286Y-70111905D01*
X110497905Y-70207143D01*
X110545524Y-70254762D01*
X110640762Y-70302381D01*
X110831239Y-70302381D01*
X110926477Y-70254762D01*
X110974096Y-70207143D01*
X111021715Y-70111905D01*
X111021715Y-69921429D01*
X110974096Y-69826190D01*
X110926477Y-69778571D01*
X110831239Y-69730952D01*
X113625334Y-45918381D02*
X113292000Y-45442190D01*
X113053905Y-45918381D02*
X113053905Y-44918381D01*
X113434858Y-44918381D01*
X113530096Y-44966000D01*
X113577715Y-45013619D01*
X113625334Y-45108857D01*
X113625334Y-45251714D01*
X113577715Y-45346952D01*
X113530096Y-45394571D01*
X113434858Y-45442190D01*
X113053905Y-45442190D01*
X114101524Y-45918381D02*
X114292000Y-45918381D01*
X114387239Y-45870762D01*
X114434858Y-45823143D01*
X114530096Y-45680286D01*
X114577715Y-45489810D01*
X114577715Y-45108857D01*
X114530096Y-45013619D01*
X114482477Y-44966000D01*
X114387239Y-44918381D01*
X114196762Y-44918381D01*
X114101524Y-44966000D01*
X114053905Y-45013619D01*
X114006286Y-45108857D01*
X114006286Y-45346952D01*
X114053905Y-45442190D01*
X114101524Y-45489810D01*
X114196762Y-45537429D01*
X114387239Y-45537429D01*
X114482477Y-45489810D01*
X114530096Y-45442190D01*
X114577715Y-45346952D01*
X113149143Y-70302381D02*
X112815809Y-69826190D01*
X112577714Y-70302381D02*
X112577714Y-69302381D01*
X112958667Y-69302381D01*
X113053905Y-69350000D01*
X113101524Y-69397619D01*
X113149143Y-69492857D01*
X113149143Y-69635714D01*
X113101524Y-69730952D01*
X113053905Y-69778571D01*
X112958667Y-69826190D01*
X112577714Y-69826190D01*
X114101524Y-70302381D02*
X113530095Y-70302381D01*
X113815809Y-70302381D02*
X113815809Y-69302381D01*
X113720571Y-69445238D01*
X113625333Y-69540476D01*
X113530095Y-69588095D01*
X114720571Y-69302381D02*
X114815810Y-69302381D01*
X114911048Y-69350000D01*
X114958667Y-69397619D01*
X115006286Y-69492857D01*
X115053905Y-69683333D01*
X115053905Y-69921429D01*
X115006286Y-70111905D01*
X114958667Y-70207143D01*
X114911048Y-70254762D01*
X114815810Y-70302381D01*
X114720571Y-70302381D01*
X114625333Y-70254762D01*
X114577714Y-70207143D01*
X114530095Y-70111905D01*
X114482476Y-69921429D01*
X114482476Y-69683333D01*
X114530095Y-69492857D01*
X114577714Y-69397619D01*
X114625333Y-69350000D01*
X114720571Y-69302381D01*
X125807381Y-43306905D02*
X126616905Y-43306905D01*
X126712143Y-43259286D01*
X126759762Y-43211667D01*
X126807381Y-43116429D01*
X126807381Y-42925952D01*
X126759762Y-42830714D01*
X126712143Y-42783095D01*
X126616905Y-42735476D01*
X125807381Y-42735476D01*
X125807381Y-42354524D02*
X125807381Y-41735476D01*
X126188333Y-42068810D01*
X126188333Y-41925952D01*
X126235952Y-41830714D01*
X126283571Y-41783095D01*
X126378810Y-41735476D01*
X126616905Y-41735476D01*
X126712143Y-41783095D01*
X126759762Y-41830714D01*
X126807381Y-41925952D01*
X126807381Y-42211667D01*
X126759762Y-42306905D01*
X126712143Y-42354524D01*
X125817381Y-59816905D02*
X126626905Y-59816905D01*
X126722143Y-59769286D01*
X126769762Y-59721667D01*
X126817381Y-59626429D01*
X126817381Y-59435952D01*
X126769762Y-59340714D01*
X126722143Y-59293095D01*
X126626905Y-59245476D01*
X125817381Y-59245476D01*
X126150714Y-58340714D02*
X126817381Y-58340714D01*
X125769762Y-58578810D02*
X126484048Y-58816905D01*
X126484048Y-58197857D01*
X85598095Y-57237381D02*
X85598095Y-58046905D01*
X85645714Y-58142143D01*
X85693333Y-58189762D01*
X85788571Y-58237381D01*
X85979048Y-58237381D01*
X86074286Y-58189762D01*
X86121905Y-58142143D01*
X86169524Y-58046905D01*
X86169524Y-57237381D01*
X87121905Y-57237381D02*
X86645714Y-57237381D01*
X86598095Y-57713571D01*
X86645714Y-57665952D01*
X86740952Y-57618333D01*
X86979048Y-57618333D01*
X87074286Y-57665952D01*
X87121905Y-57713571D01*
X87169524Y-57808810D01*
X87169524Y-58046905D01*
X87121905Y-58142143D01*
X87074286Y-58189762D01*
X86979048Y-58237381D01*
X86740952Y-58237381D01*
X86645714Y-58189762D01*
X86598095Y-58142143D01*
X85598095Y-43267381D02*
X85598095Y-44076905D01*
X85645714Y-44172143D01*
X85693333Y-44219762D01*
X85788571Y-44267381D01*
X85979048Y-44267381D01*
X86074286Y-44219762D01*
X86121905Y-44172143D01*
X86169524Y-44076905D01*
X86169524Y-43267381D01*
X87074286Y-43267381D02*
X86883809Y-43267381D01*
X86788571Y-43315000D01*
X86740952Y-43362619D01*
X86645714Y-43505476D01*
X86598095Y-43695952D01*
X86598095Y-44076905D01*
X86645714Y-44172143D01*
X86693333Y-44219762D01*
X86788571Y-44267381D01*
X86979048Y-44267381D01*
X87074286Y-44219762D01*
X87121905Y-44172143D01*
X87169524Y-44076905D01*
X87169524Y-43838810D01*
X87121905Y-43743571D01*
X87074286Y-43695952D01*
X86979048Y-43648333D01*
X86788571Y-43648333D01*
X86693333Y-43695952D01*
X86645714Y-43743571D01*
X86598095Y-43838810D01*
X59126381Y-51538095D02*
X58126381Y-51538095D01*
X58126381Y-51157142D01*
X58174000Y-51061904D01*
X58221619Y-51014285D01*
X58316857Y-50966666D01*
X58459714Y-50966666D01*
X58554952Y-51014285D01*
X58602571Y-51061904D01*
X58650190Y-51157142D01*
X58650190Y-51538095D01*
X59126381Y-50014285D02*
X59126381Y-50585714D01*
X59126381Y-50300000D02*
X58126381Y-50300000D01*
X58269238Y-50395238D01*
X58364476Y-50490476D01*
X58412095Y-50585714D01*
X107188095Y-36282381D02*
X107188095Y-37091905D01*
X107235714Y-37187143D01*
X107283333Y-37234762D01*
X107378571Y-37282381D01*
X107569048Y-37282381D01*
X107664286Y-37234762D01*
X107711905Y-37187143D01*
X107759524Y-37091905D01*
X107759524Y-36282381D01*
X108759524Y-37282381D02*
X108188095Y-37282381D01*
X108473809Y-37282381D02*
X108473809Y-36282381D01*
X108378571Y-36425238D01*
X108283333Y-36520476D01*
X108188095Y-36568095D01*
X69032381Y-45188095D02*
X68032381Y-45188095D01*
X68032381Y-44950000D01*
X68080000Y-44807142D01*
X68175238Y-44711904D01*
X68270476Y-44664285D01*
X68460952Y-44616666D01*
X68603810Y-44616666D01*
X68794286Y-44664285D01*
X68889524Y-44711904D01*
X68984762Y-44807142D01*
X69032381Y-44950000D01*
X69032381Y-45188095D01*
X68032381Y-44283333D02*
X68032381Y-43664285D01*
X68413333Y-43997619D01*
X68413333Y-43854761D01*
X68460952Y-43759523D01*
X68508571Y-43711904D01*
X68603810Y-43664285D01*
X68841905Y-43664285D01*
X68937143Y-43711904D01*
X68984762Y-43759523D01*
X69032381Y-43854761D01*
X69032381Y-44140476D01*
X68984762Y-44235714D01*
X68937143Y-44283333D01*
X69000566Y-57281660D02*
X68000566Y-57281660D01*
X68000566Y-57043565D01*
X68048185Y-56900707D01*
X68143423Y-56805469D01*
X68238661Y-56757850D01*
X68429137Y-56710231D01*
X68571995Y-56710231D01*
X68762471Y-56757850D01*
X68857709Y-56805469D01*
X68952947Y-56900707D01*
X69000566Y-57043565D01*
X69000566Y-57281660D01*
X68333899Y-55853088D02*
X69000566Y-55853088D01*
X67952947Y-56091184D02*
X68667233Y-56329279D01*
X68667233Y-55710231D01*
X76731905Y-46172381D02*
X76731905Y-45172381D01*
X76970000Y-45172381D01*
X77112858Y-45220000D01*
X77208096Y-45315238D01*
X77255715Y-45410476D01*
X77303334Y-45600952D01*
X77303334Y-45743810D01*
X77255715Y-45934286D01*
X77208096Y-46029524D01*
X77112858Y-46124762D01*
X76970000Y-46172381D01*
X76731905Y-46172381D01*
X78255715Y-46172381D02*
X77684286Y-46172381D01*
X77970000Y-46172381D02*
X77970000Y-45172381D01*
X77874762Y-45315238D01*
X77779524Y-45410476D01*
X77684286Y-45458095D01*
X76731905Y-56332381D02*
X76731905Y-55332381D01*
X76970000Y-55332381D01*
X77112858Y-55380000D01*
X77208096Y-55475238D01*
X77255715Y-55570476D01*
X77303334Y-55760952D01*
X77303334Y-55903810D01*
X77255715Y-56094286D01*
X77208096Y-56189524D01*
X77112858Y-56284762D01*
X76970000Y-56332381D01*
X76731905Y-56332381D01*
X77684286Y-55427619D02*
X77731905Y-55380000D01*
X77827143Y-55332381D01*
X78065239Y-55332381D01*
X78160477Y-55380000D01*
X78208096Y-55427619D01*
X78255715Y-55522857D01*
X78255715Y-55618095D01*
X78208096Y-55760952D01*
X77636667Y-56332381D01*
X78255715Y-56332381D01*
X117451143Y-39282666D02*
X117498762Y-39330285D01*
X117546381Y-39473142D01*
X117546381Y-39568380D01*
X117498762Y-39711238D01*
X117403524Y-39806476D01*
X117308286Y-39854095D01*
X117117810Y-39901714D01*
X116974952Y-39901714D01*
X116784476Y-39854095D01*
X116689238Y-39806476D01*
X116594000Y-39711238D01*
X116546381Y-39568380D01*
X116546381Y-39473142D01*
X116594000Y-39330285D01*
X116641619Y-39282666D01*
X116546381Y-38949333D02*
X116546381Y-38330285D01*
X116927333Y-38663619D01*
X116927333Y-38520761D01*
X116974952Y-38425523D01*
X117022571Y-38377904D01*
X117117810Y-38330285D01*
X117355905Y-38330285D01*
X117451143Y-38377904D01*
X117498762Y-38425523D01*
X117546381Y-38520761D01*
X117546381Y-38806476D01*
X117498762Y-38901714D01*
X117451143Y-38949333D01*
X121769143Y-48934666D02*
X121816762Y-48982285D01*
X121864381Y-49125142D01*
X121864381Y-49220380D01*
X121816762Y-49363238D01*
X121721524Y-49458476D01*
X121626286Y-49506095D01*
X121435810Y-49553714D01*
X121292952Y-49553714D01*
X121102476Y-49506095D01*
X121007238Y-49458476D01*
X120912000Y-49363238D01*
X120864381Y-49220380D01*
X120864381Y-49125142D01*
X120912000Y-48982285D01*
X120959619Y-48934666D01*
X121864381Y-48458476D02*
X121864381Y-48268000D01*
X121816762Y-48172761D01*
X121769143Y-48125142D01*
X121626286Y-48029904D01*
X121435810Y-47982285D01*
X121054857Y-47982285D01*
X120959619Y-48029904D01*
X120912000Y-48077523D01*
X120864381Y-48172761D01*
X120864381Y-48363238D01*
X120912000Y-48458476D01*
X120959619Y-48506095D01*
X121054857Y-48553714D01*
X121292952Y-48553714D01*
X121388190Y-48506095D01*
X121435810Y-48458476D01*
X121483429Y-48363238D01*
X121483429Y-48172761D01*
X121435810Y-48077523D01*
X121388190Y-48029904D01*
X121292952Y-47982285D01*
X121769143Y-36964857D02*
X121816762Y-37012476D01*
X121864381Y-37155333D01*
X121864381Y-37250571D01*
X121816762Y-37393429D01*
X121721524Y-37488667D01*
X121626286Y-37536286D01*
X121435810Y-37583905D01*
X121292952Y-37583905D01*
X121102476Y-37536286D01*
X121007238Y-37488667D01*
X120912000Y-37393429D01*
X120864381Y-37250571D01*
X120864381Y-37155333D01*
X120912000Y-37012476D01*
X120959619Y-36964857D01*
X121864381Y-36012476D02*
X121864381Y-36583905D01*
X121864381Y-36298191D02*
X120864381Y-36298191D01*
X121007238Y-36393429D01*
X121102476Y-36488667D01*
X121150095Y-36583905D01*
X120864381Y-35393429D02*
X120864381Y-35298190D01*
X120912000Y-35202952D01*
X120959619Y-35155333D01*
X121054857Y-35107714D01*
X121245333Y-35060095D01*
X121483429Y-35060095D01*
X121673905Y-35107714D01*
X121769143Y-35155333D01*
X121816762Y-35202952D01*
X121864381Y-35298190D01*
X121864381Y-35393429D01*
X121816762Y-35488667D01*
X121769143Y-35536286D01*
X121673905Y-35583905D01*
X121483429Y-35631524D01*
X121245333Y-35631524D01*
X121054857Y-35583905D01*
X120959619Y-35536286D01*
X120912000Y-35488667D01*
X120864381Y-35393429D01*
X121769143Y-53474857D02*
X121816762Y-53522476D01*
X121864381Y-53665333D01*
X121864381Y-53760571D01*
X121816762Y-53903429D01*
X121721524Y-53998667D01*
X121626286Y-54046286D01*
X121435810Y-54093905D01*
X121292952Y-54093905D01*
X121102476Y-54046286D01*
X121007238Y-53998667D01*
X120912000Y-53903429D01*
X120864381Y-53760571D01*
X120864381Y-53665333D01*
X120912000Y-53522476D01*
X120959619Y-53474857D01*
X121864381Y-52522476D02*
X121864381Y-53093905D01*
X121864381Y-52808191D02*
X120864381Y-52808191D01*
X121007238Y-52903429D01*
X121102476Y-52998667D01*
X121150095Y-53093905D01*
X120959619Y-52141524D02*
X120912000Y-52093905D01*
X120864381Y-51998667D01*
X120864381Y-51760571D01*
X120912000Y-51665333D01*
X120959619Y-51617714D01*
X121054857Y-51570095D01*
X121150095Y-51570095D01*
X121292952Y-51617714D01*
X121864381Y-52189143D01*
X121864381Y-51570095D01*
X102973143Y-44362666D02*
X103020762Y-44410285D01*
X103068381Y-44553142D01*
X103068381Y-44648380D01*
X103020762Y-44791238D01*
X102925524Y-44886476D01*
X102830286Y-44934095D01*
X102639810Y-44981714D01*
X102496952Y-44981714D01*
X102306476Y-44934095D01*
X102211238Y-44886476D01*
X102116000Y-44791238D01*
X102068381Y-44648380D01*
X102068381Y-44553142D01*
X102116000Y-44410285D01*
X102163619Y-44362666D01*
X103068381Y-43410285D02*
X103068381Y-43981714D01*
X103068381Y-43696000D02*
X102068381Y-43696000D01*
X102211238Y-43791238D01*
X102306476Y-43886476D01*
X102354095Y-43981714D01*
X102997143Y-68746666D02*
X103044762Y-68794285D01*
X103092381Y-68937142D01*
X103092381Y-69032380D01*
X103044762Y-69175238D01*
X102949524Y-69270476D01*
X102854286Y-69318095D01*
X102663810Y-69365714D01*
X102520952Y-69365714D01*
X102330476Y-69318095D01*
X102235238Y-69270476D01*
X102140000Y-69175238D01*
X102092381Y-69032380D01*
X102092381Y-68937142D01*
X102140000Y-68794285D01*
X102187619Y-68746666D01*
X102187619Y-68365714D02*
X102140000Y-68318095D01*
X102092381Y-68222857D01*
X102092381Y-67984761D01*
X102140000Y-67889523D01*
X102187619Y-67841904D01*
X102282857Y-67794285D01*
X102378095Y-67794285D01*
X102520952Y-67841904D01*
X103092381Y-68413333D01*
X103092381Y-67794285D01*
X108561143Y-68746666D02*
X108608762Y-68794285D01*
X108656381Y-68937142D01*
X108656381Y-69032380D01*
X108608762Y-69175238D01*
X108513524Y-69270476D01*
X108418286Y-69318095D01*
X108227810Y-69365714D01*
X108084952Y-69365714D01*
X107894476Y-69318095D01*
X107799238Y-69270476D01*
X107704000Y-69175238D01*
X107656381Y-69032380D01*
X107656381Y-68937142D01*
X107704000Y-68794285D01*
X107751619Y-68746666D01*
X108084952Y-68175238D02*
X108037333Y-68270476D01*
X107989714Y-68318095D01*
X107894476Y-68365714D01*
X107846857Y-68365714D01*
X107751619Y-68318095D01*
X107704000Y-68270476D01*
X107656381Y-68175238D01*
X107656381Y-67984761D01*
X107704000Y-67889523D01*
X107751619Y-67841904D01*
X107846857Y-67794285D01*
X107894476Y-67794285D01*
X107989714Y-67841904D01*
X108037333Y-67889523D01*
X108084952Y-67984761D01*
X108084952Y-68175238D01*
X108132571Y-68270476D01*
X108180190Y-68318095D01*
X108275429Y-68365714D01*
X108465905Y-68365714D01*
X108561143Y-68318095D01*
X108608762Y-68270476D01*
X108656381Y-68175238D01*
X108656381Y-67984761D01*
X108608762Y-67889523D01*
X108561143Y-67841904D01*
X108465905Y-67794285D01*
X108275429Y-67794285D01*
X108180190Y-67841904D01*
X108132571Y-67889523D01*
X108084952Y-67984761D01*
X108561143Y-44362666D02*
X108608762Y-44410285D01*
X108656381Y-44553142D01*
X108656381Y-44648380D01*
X108608762Y-44791238D01*
X108513524Y-44886476D01*
X108418286Y-44934095D01*
X108227810Y-44981714D01*
X108084952Y-44981714D01*
X107894476Y-44934095D01*
X107799238Y-44886476D01*
X107704000Y-44791238D01*
X107656381Y-44648380D01*
X107656381Y-44553142D01*
X107704000Y-44410285D01*
X107751619Y-44362666D01*
X107656381Y-44029333D02*
X107656381Y-43362666D01*
X108656381Y-43791238D01*
M02*
