M48
;DRILL file {KiCad 4.0.5-e0-6337~49~ubuntu15.04.1} date Thu Oct 26 21:35:43 2017
;FORMAT={-:-/ absolute / metric / decimal}
FMAT,2
METRIC,TZ
T1C0.400
T2C0.800
T3C1.000
T4C1.143
T5C1.300
%
G90
G05
M71
T1
X75.47Y-50.8
X91.44Y-50.165
X94.906Y-44.871
X94.906Y-56.555
X98.425Y-50.165
X101.6Y-55.626
X102.034Y-31.517
X102.616Y-45.212
X102.87Y-69.596
X103.505Y-50.165
X106.045Y-53.975
X109.22Y-38.735
X109.22Y-62.992
X112.268Y-53.848
X112.776Y-29.845
X113.284Y-37.592
X113.284Y-61.722
X118.109Y-62.279
X118.149Y-55.815
X119.38Y-50.165
X120.65Y-55.88
X120.65Y-62.23
X121.92Y-36.195
X121.92Y-50.8
X121.92Y-65.405
X125.91Y-54.439
X125.96Y-41.155
X125.967Y-50.958
X126.365Y-45.085
X126.365Y-59.69
X129.54Y-31.75
X129.54Y-31.75
X129.54Y-35.56
X129.54Y-38.1
X129.54Y-40.005
X129.54Y-42.545
X129.54Y-45.085
X129.54Y-46.99
X129.54Y-54.61
X129.54Y-56.515
X129.54Y-59.055
X129.54Y-61.595
X129.54Y-63.5
X129.54Y-66.04
X129.54Y-69.85
X129.54Y-69.85
X131.445Y-31.75
X131.445Y-35.56
X131.445Y-66.04
X131.445Y-69.85
X132.08Y-48.26
X132.08Y-53.34
X132.715Y-31.75
X132.715Y-35.56
X132.715Y-66.04
X132.715Y-69.85
X134.62Y-31.75
X134.62Y-35.56
X134.62Y-48.26
X134.62Y-53.34
X134.62Y-66.04
X134.62Y-69.85
X136.525Y-31.75
X136.525Y-35.56
X136.525Y-66.04
X136.525Y-69.85
X138.43Y-31.75
X138.43Y-35.56
X138.43Y-66.04
X138.43Y-69.85
X139.7Y-36.83
X139.7Y-40.005
X139.7Y-42.545
X139.7Y-45.085
X139.7Y-48.26
X139.7Y-53.34
X139.7Y-56.515
X139.7Y-59.055
X139.7Y-61.595
X139.7Y-64.77
X141.605Y-31.75
X141.605Y-36.83
X141.605Y-40.005
X141.605Y-42.545
X141.605Y-45.085
X141.605Y-48.26
X141.605Y-53.34
X141.605Y-56.515
X141.605Y-59.055
X141.605Y-61.595
X141.605Y-64.77
X141.605Y-69.85
X143.51Y-31.75
X143.51Y-36.83
X143.51Y-40.005
X143.51Y-42.545
X143.51Y-45.085
X143.51Y-48.26
X143.51Y-53.34
X143.51Y-56.515
X143.51Y-59.055
X143.51Y-61.595
X143.51Y-64.77
X143.51Y-69.85
X145.415Y-31.75
X145.415Y-36.83
X145.415Y-40.005
X145.415Y-42.545
X145.415Y-45.085
X145.415Y-48.26
X145.415Y-53.34
X145.415Y-56.515
X145.415Y-59.055
X145.415Y-61.595
X145.415Y-64.77
X145.415Y-69.85
T2
X74.649Y-31.682
X74.649Y-39.182
X74.649Y-62.162
X74.649Y-69.662
X91.794Y-31.682
X91.794Y-39.182
X91.794Y-62.162
X91.794Y-69.662
X104.14Y-33.02
X104.14Y-40.64
X104.14Y-57.15
X104.14Y-64.77
X106.68Y-33.02
X106.68Y-40.64
X106.68Y-57.15
X106.68Y-64.77
X109.22Y-33.02
X109.22Y-40.64
X109.22Y-57.15
X109.22Y-64.77
X111.76Y-33.02
X111.76Y-40.64
X111.76Y-57.15
X111.76Y-64.77
T3
X119.38Y-29.21
X119.38Y-31.75
X119.38Y-69.85
X119.38Y-72.39
X152.4Y-48.26
X152.4Y-50.8
X152.4Y-53.34
T4
X85.344Y-46.736
X85.344Y-54.864
X87.884Y-46.736
X87.884Y-54.864
X90.424Y-46.736
X90.424Y-54.864
T5
X62.484Y-45.8
X62.484Y-50.8
X62.484Y-55.8
T0
M30
